STARTFONT 2.1
COMMENT
COMMENT Converted from OpenType font "IBMPlexSans-Medium.ttf" by "otf2bdf 3.0".
COMMENT
FONT -FreeType-IBM Plex Sans Medm-Medium-R-Normal--24-240-72-72-P-123-ISO10646-1
SIZE 24 72 72
FONTBOUNDINGBOX 36 34 -5 -6
STARTPROPERTIES 19
FOUNDRY "FreeType"
FAMILY_NAME "IBM Plex Sans Medm"
WEIGHT_NAME "Medium"
SLANT "R"
SETWIDTH_NAME "Normal"
ADD_STYLE_NAME ""
PIXEL_SIZE 24
POINT_SIZE 240
RESOLUTION_X 72
RESOLUTION_Y 72
SPACING "P"
AVERAGE_WIDTH 123
CHARSET_REGISTRY "ISO10646"
CHARSET_ENCODING "1"
FONT_ASCENT 24
FONT_DESCENT 6
COPYRIGHT "Copyright 2018 IBM Corp. All rights reserved."
_OTF_FONTFILE "IBMPlexSans-Medium.ttf"
_OTF_PSNAME "IBMPlexSans-Medm"
ENDPROPERTIES
CHARS 844
STARTCHAR 0000
ENCODING 0
SWIDTH 0 0
DWIDTH 0 0
BBX 0 0 0 0
BITMAP
ENDCHAR
STARTCHAR 000D
ENCODING 13
SWIDTH 250 0
DWIDTH 6 0
BBX 0 0 0 0
BITMAP
ENDCHAR
STARTCHAR 0020
ENCODING 32
SWIDTH 250 0
DWIDTH 6 0
BBX 0 0 0 0
BITMAP
ENDCHAR
STARTCHAR 0021
ENCODING 33
SWIDTH 291 0
DWIDTH 7 0
BBX 3 17 2 0
BITMAP
E0
E0
E0
E0
E0
E0
E0
60
40
40
40
00
00
E0
E0
E0
E0
ENDCHAR
STARTCHAR 0022
ENCODING 34
SWIDTH 458 0
DWIDTH 11 0
BBX 7 7 2 11
BITMAP
C6
C6
C6
C6
C6
C6
C6
ENDCHAR
STARTCHAR 0023
ENCODING 35
SWIDTH 666 0
DWIDTH 16 0
BBX 14 17 1 0
BITMAP
0630
0430
0C30
0C30
0C30
7FFC
7FFC
0860
1860
1860
FFF8
FFF8
18C0
30C0
30C0
30C0
30C0
ENDCHAR
STARTCHAR 0024
ENCODING 36
SWIDTH 583 0
DWIDTH 14 0
BBX 12 21 1 -2
BITMAP
0600
0600
1F80
3FE0
7670
6620
6600
6600
7600
3F00
1FC0
07E0
0670
0630
0630
4670
F6F0
7FE0
1F80
0600
0600
ENDCHAR
STARTCHAR 0025
ENCODING 37
SWIDTH 958 0
DWIDTH 23 0
BBX 20 17 1 0
BITMAP
3E0180
7F0300
630700
E30600
E30C00
E31C00
631800
7F3000
3E73C0
00E7F0
00C630
01CE30
038E30
030E30
060630
0E07F0
1C03E0
ENDCHAR
STARTCHAR 0026
ENCODING 38
SWIDTH 708 0
DWIDTH 17 0
BBX 15 17 2 0
BITMAP
1F00
3F80
71C0
71C0
71C0
71C0
3B80
1E00
3E3C
7F3C
E7B0
C3B0
C1F0
C0E0
E1F0
7FB8
3E1E
ENDCHAR
STARTCHAR 0027
ENCODING 39
SWIDTH 250 0
DWIDTH 6 0
BBX 2 7 2 11
BITMAP
C0
C0
C0
C0
C0
C0
C0
ENDCHAR
STARTCHAR 0028
ENCODING 40
SWIDTH 333 0
DWIDTH 8 0
BBX 6 21 2 -3
BITMAP
1C
38
30
70
60
E0
C0
C0
C0
C0
C0
C0
C0
C0
C0
E0
60
70
30
38
1C
ENDCHAR
STARTCHAR 0029
ENCODING 41
SWIDTH 333 0
DWIDTH 8 0
BBX 7 21 0 -3
BITMAP
E0
70
30
18
18
1C
0C
0C
0C
0E
0E
0E
0C
0C
0C
1C
18
18
30
70
E0
ENDCHAR
STARTCHAR 002A
ENCODING 42
SWIDTH 500 0
DWIDTH 12 0
BBX 11 10 1 8
BITMAP
0C00
0C00
0C00
EDC0
FFC0
1E20
1E00
3B00
7380
2100
ENDCHAR
STARTCHAR 002B
ENCODING 43
SWIDTH 583 0
DWIDTH 14 0
BBX 11 12 2 1
BITMAP
0C00
0C00
0C00
0C00
0C00
FFE0
FFE0
0C00
0C00
0C00
0C00
0C00
ENDCHAR
STARTCHAR 002C
ENCODING 44
SWIDTH 291 0
DWIDTH 7 0
BBX 4 7 1 -3
BITMAP
70
70
70
70
30
60
C0
ENDCHAR
STARTCHAR 002D
ENCODING 45
SWIDTH 416 0
DWIDTH 10 0
BBX 7 3 1 6
BITMAP
FE
FE
FE
ENDCHAR
STARTCHAR 002E
ENCODING 46
SWIDTH 291 0
DWIDTH 7 0
BBX 3 4 2 0
BITMAP
E0
E0
E0
E0
ENDCHAR
STARTCHAR 002F
ENCODING 47
SWIDTH 416 0
DWIDTH 10 0
BBX 9 22 0 -4
BITMAP
0180
0380
0300
0300
0700
0600
0600
0600
0E00
0C00
0C00
1C00
1800
1800
3800
3000
3000
3000
6000
6000
6000
E000
ENDCHAR
STARTCHAR 0030
ENCODING 48
SWIDTH 583 0
DWIDTH 14 0
BBX 12 17 1 0
BITMAP
0F80
3FC0
78E0
7060
6070
E070
E070
E070
E070
E070
E070
E070
6070
7060
78E0
3FC0
0F80
ENDCHAR
STARTCHAR 0031
ENCODING 49
SWIDTH 583 0
DWIDTH 14 0
BBX 13 17 1 0
BITMAP
0F00
1F00
3B00
7300
F300
E300
4300
0300
0300
0300
0300
0300
0300
0300
0300
7FF8
7FF8
ENDCHAR
STARTCHAR 0032
ENCODING 50
SWIDTH 583 0
DWIDTH 14 0
BBX 12 17 1 0
BITMAP
1F80
3FC0
70E0
E0E0
2060
0060
00E0
00E0
01C0
0380
0700
0E00
1C00
3800
7000
7FF0
7FF0
ENDCHAR
STARTCHAR 0033
ENCODING 51
SWIDTH 583 0
DWIDTH 14 0
BBX 11 17 1 0
BITMAP
1F80
7FC0
F1E0
20E0
00E0
00E0
01C0
0F80
0F80
01E0
00E0
0060
0060
40E0
F1E0
7FC0
3F00
ENDCHAR
STARTCHAR 0034
ENCODING 52
SWIDTH 583 0
DWIDTH 14 0
BBX 12 17 1 0
BITMAP
03C0
03C0
06C0
06C0
0CC0
1CC0
18C0
38C0
30C0
70C0
60C0
C0C0
FFF0
FFF0
00C0
00C0
00C0
ENDCHAR
STARTCHAR 0035
ENCODING 53
SWIDTH 583 0
DWIDTH 14 0
BBX 11 17 2 0
BITMAP
7FC0
7FC0
6000
E000
E000
E000
CF00
DFC0
E1C0
00E0
00E0
00E0
00E0
C0E0
E1C0
7F80
3F00
ENDCHAR
STARTCHAR 0036
ENCODING 54
SWIDTH 583 0
DWIDTH 14 0
BBX 12 17 1 0
BITMAP
03C0
0F00
0E00
1C00
3800
3000
7780
6FE0
F0E0
F070
E070
E070
6070
7070
70E0
3FC0
0F80
ENDCHAR
STARTCHAR 0037
ENCODING 55
SWIDTH 583 0
DWIDTH 14 0
BBX 11 17 2 0
BITMAP
FFE0
FFE0
C0E0
C0C0
C1C0
C1C0
0380
0380
0300
0700
0700
0E00
0E00
0C00
1C00
1C00
3800
ENDCHAR
STARTCHAR 0038
ENCODING 56
SWIDTH 583 0
DWIDTH 14 0
BBX 12 17 1 0
BITMAP
1F80
3FE0
70E0
6070
6070
6060
30E0
1FC0
3FC0
70E0
E070
E070
E070
E070
70F0
3FE0
1F80
ENDCHAR
STARTCHAR 0039
ENCODING 57
SWIDTH 583 0
DWIDTH 14 0
BBX 12 17 1 0
BITMAP
0F80
3FC0
70E0
6070
E070
E070
E070
E070
70F0
3FF0
1E60
00E0
01C0
01C0
0380
0F00
3E00
ENDCHAR
STARTCHAR 003A
ENCODING 58
SWIDTH 291 0
DWIDTH 7 0
BBX 3 13 2 0
BITMAP
E0
E0
E0
E0
00
00
00
00
00
E0
E0
E0
E0
ENDCHAR
STARTCHAR 003B
ENCODING 59
SWIDTH 291 0
DWIDTH 7 0
BBX 4 16 1 -3
BITMAP
70
70
70
70
00
00
00
00
00
70
70
70
70
30
60
E0
ENDCHAR
STARTCHAR 003C
ENCODING 60
SWIDTH 583 0
DWIDTH 14 0
BBX 10 14 2 0
BITMAP
0040
00C0
03C0
0F80
1E00
7800
F000
F000
7800
1E00
0F80
03C0
00C0
0040
ENDCHAR
STARTCHAR 003D
ENCODING 61
SWIDTH 583 0
DWIDTH 14 0
BBX 11 7 2 4
BITMAP
FFE0
FFE0
0000
0000
0000
FFE0
FFE0
ENDCHAR
STARTCHAR 003E
ENCODING 62
SWIDTH 583 0
DWIDTH 14 0
BBX 10 14 2 0
BITMAP
8000
E000
F000
3C00
1F00
0780
01C0
01C0
0780
1F00
3C00
F000
E000
8000
ENDCHAR
STARTCHAR 003F
ENCODING 63
SWIDTH 500 0
DWIDTH 12 0
BBX 11 17 0 0
BITMAP
1F00
3FC0
71C0
E0E0
00E0
00E0
01C0
0FC0
0F00
0E00
0E00
0000
0000
0E00
0E00
0E00
0E00
ENDCHAR
STARTCHAR 0040
ENCODING 64
SWIDTH 916 0
DWIDTH 22 0
BBX 18 20 2 -3
BITMAP
03F000
0FFC00
3C0F00
300300
600180
C3D880
C7D8C0
C638C0
8E18C0
8C18C0
8C18C0
8E18C0
C63980
C7FF80
C3CF00
600000
700000
3C0000
1FFC00
07FC00
ENDCHAR
STARTCHAR 0041
ENCODING 65
SWIDTH 666 0
DWIDTH 16 0
BBX 14 17 1 0
BITMAP
0780
0780
0F80
0FC0
0CC0
1CC0
1CE0
1860
3870
3870
3FF0
7FF8
7038
6038
E01C
E01C
C01C
ENDCHAR
STARTCHAR 0042
ENCODING 66
SWIDTH 666 0
DWIDTH 16 0
BBX 13 17 2 0
BITMAP
FFC0
FFE0
E0F0
E070
E070
E070
E0E0
FFC0
FFE0
E070
E030
E038
E038
E030
E070
FFE0
FFC0
ENDCHAR
STARTCHAR 0043
ENCODING 67
SWIDTH 625 0
DWIDTH 15 0
BBX 13 17 1 0
BITMAP
07C0
1FF0
3878
7038
7020
6000
E000
E000
E000
E000
E000
6000
7010
7038
3878
1FF0
07C0
ENDCHAR
STARTCHAR 0044
ENCODING 68
SWIDTH 666 0
DWIDTH 16 0
BBX 13 17 2 0
BITMAP
FF80
FFC0
E0E0
E070
E030
E038
E038
E038
E038
E038
E038
E038
E030
E070
E0E0
FFC0
FF80
ENDCHAR
STARTCHAR 0045
ENCODING 69
SWIDTH 583 0
DWIDTH 14 0
BBX 11 17 2 0
BITMAP
FFE0
FFE0
E000
E000
E000
E000
E000
FFC0
FFC0
E000
E000
E000
E000
E000
E000
FFE0
FFE0
ENDCHAR
STARTCHAR 0046
ENCODING 70
SWIDTH 583 0
DWIDTH 14 0
BBX 11 17 2 0
BITMAP
FFE0
FFE0
E000
E000
E000
E000
E000
FFC0
FFC0
E000
E000
E000
E000
E000
E000
E000
E000
ENDCHAR
STARTCHAR 0047
ENCODING 71
SWIDTH 708 0
DWIDTH 17 0
BBX 14 17 1 0
BITMAP
07E0
1FF0
3C38
701C
7010
6000
E000
E000
E0FC
E0FC
E00C
600C
701C
701C
3C3C
1FEC
07CC
ENDCHAR
STARTCHAR 0048
ENCODING 72
SWIDTH 708 0
DWIDTH 17 0
BBX 13 17 2 0
BITMAP
E038
E038
E038
E038
E038
E038
E038
FFF8
FFF8
E038
E038
E038
E038
E038
E038
E038
E038
ENDCHAR
STARTCHAR 0049
ENCODING 73
SWIDTH 416 0
DWIDTH 10 0
BBX 8 17 1 0
BITMAP
FF
FF
18
18
18
18
18
18
18
18
18
18
18
18
18
FF
FF
ENDCHAR
STARTCHAR 004A
ENCODING 74
SWIDTH 541 0
DWIDTH 13 0
BBX 10 17 1 0
BITMAP
3FC0
3FC0
01C0
01C0
01C0
01C0
01C0
01C0
01C0
01C0
01C0
01C0
01C0
C1C0
E380
7F80
3E00
ENDCHAR
STARTCHAR 004B
ENCODING 75
SWIDTH 666 0
DWIDTH 16 0
BBX 13 17 2 0
BITMAP
E078
E070
E0E0
E1C0
E380
E700
EF00
EE00
FF00
FF80
F380
E1C0
E1C0
E0E0
E070
E070
E038
ENDCHAR
STARTCHAR 004C
ENCODING 76
SWIDTH 500 0
DWIDTH 12 0
BBX 10 17 2 0
BITMAP
E000
E000
E000
E000
E000
E000
E000
E000
E000
E000
E000
E000
E000
E000
E000
FFC0
FFC0
ENDCHAR
STARTCHAR 004D
ENCODING 77
SWIDTH 833 0
DWIDTH 20 0
BBX 15 17 2 0
BITMAP
F00E
F00E
F81E
F81E
F83E
FC36
EC76
EE66
E6E6
E7C6
E3C6
E386
E186
E106
E006
E006
E006
ENDCHAR
STARTCHAR 004E
ENCODING 78
SWIDTH 708 0
DWIDTH 17 0
BBX 13 17 2 0
BITMAP
E038
F038
F838
F838
FC38
EC38
EE38
E638
E738
E3B8
E3B8
E1F8
E1F8
E0F8
E078
E078
E038
ENDCHAR
STARTCHAR 004F
ENCODING 79
SWIDTH 708 0
DWIDTH 17 0
BBX 15 17 1 0
BITMAP
07C0
1FF0
3C38
701C
701C
600C
E00E
E00E
E00E
E00E
E00E
600C
701C
701C
3838
1FF0
07C0
ENDCHAR
STARTCHAR 0050
ENCODING 80
SWIDTH 625 0
DWIDTH 15 0
BBX 12 17 2 0
BITMAP
FFC0
FFE0
E070
E070
E070
E070
E070
E070
FFE0
FFC0
E000
E000
E000
E000
E000
E000
E000
ENDCHAR
STARTCHAR 0051
ENCODING 81
SWIDTH 708 0
DWIDTH 17 0
BBX 15 21 1 -4
BITMAP
07C0
1FF0
3C38
701C
701C
600C
E00E
E00E
E00E
E00E
E00E
600C
701C
701C
3838
1FF0
0FE0
0380
0380
01F0
01F0
ENDCHAR
STARTCHAR 0052
ENCODING 82
SWIDTH 666 0
DWIDTH 16 0
BBX 13 17 2 0
BITMAP
FFC0
FFE0
E070
E070
E070
E070
E070
E070
FFE0
FFC0
E380
E1C0
E1C0
E0E0
E0E0
E070
E078
ENDCHAR
STARTCHAR 0053
ENCODING 83
SWIDTH 583 0
DWIDTH 14 0
BBX 12 17 1 0
BITMAP
1F80
3FE0
70F0
6020
E000
6000
7000
3F00
1FC0
01E0
0070
0070
0070
6070
F0F0
7FE0
1F80
ENDCHAR
STARTCHAR 0054
ENCODING 84
SWIDTH 583 0
DWIDTH 14 0
BBX 12 17 1 0
BITMAP
FFF0
FFF0
0600
0600
0600
0600
0600
0600
0600
0600
0600
0600
0600
0600
0600
0600
0600
ENDCHAR
STARTCHAR 0055
ENCODING 85
SWIDTH 666 0
DWIDTH 16 0
BBX 13 17 2 0
BITMAP
E038
E038
E038
E038
E038
E038
E038
E038
E038
E038
E030
E030
E030
E070
70F0
3FE0
1F80
ENDCHAR
STARTCHAR 0056
ENCODING 86
SWIDTH 625 0
DWIDTH 15 0
BBX 15 17 0 0
BITMAP
E00E
701C
701C
301C
3838
3838
1838
1C30
1C70
1C70
0C60
0EE0
0EE0
06C0
07C0
07C0
0380
ENDCHAR
STARTCHAR 0057
ENCODING 87
SWIDTH 916 0
DWIDTH 22 0
BBX 21 17 1 0
BITMAP
C0F038
E0F030
E0F070
E0F070
60F870
619860
719860
7198E0
319CE0
330CC0
3B0CC0
3B0CC0
3B0FC0
1E0780
1E0780
1E0780
1E0780
ENDCHAR
STARTCHAR 0058
ENCODING 88
SWIDTH 625 0
DWIDTH 15 0
BBX 15 17 0 0
BITMAP
701E
381C
3838
1C70
0E70
0EE0
07C0
07C0
0380
07C0
06E0
0EE0
1C70
1C38
3838
701C
F01E
ENDCHAR
STARTCHAR 0059
ENCODING 89
SWIDTH 625 0
DWIDTH 15 0
BBX 15 17 0 0
BITMAP
F01E
701C
3838
3838
1C70
1C70
0EE0
0EC0
07C0
0780
0380
0380
0380
0380
0380
0380
0380
ENDCHAR
STARTCHAR 005A
ENCODING 90
SWIDTH 583 0
DWIDTH 14 0
BBX 12 17 1 0
BITMAP
FFF0
FFF0
0070
00E0
01C0
01C0
0380
0700
0F00
0E00
1C00
3800
3800
7000
E000
FFF0
FFF0
ENDCHAR
STARTCHAR 005B
ENCODING 91
SWIDTH 333 0
DWIDTH 8 0
BBX 4 21 2 -3
BITMAP
F0
F0
C0
C0
C0
C0
C0
C0
C0
C0
C0
C0
C0
C0
C0
C0
C0
C0
C0
F0
F0
ENDCHAR
STARTCHAR 005C
ENCODING 92
SWIDTH 416 0
DWIDTH 10 0
BBX 9 22 1 -4
BITMAP
C000
E000
6000
6000
7000
3000
3000
3000
3800
1800
1800
1C00
0C00
0C00
0E00
0600
0600
0600
0300
0300
0300
0380
ENDCHAR
STARTCHAR 005D
ENCODING 93
SWIDTH 333 0
DWIDTH 8 0
BBX 5 21 1 -3
BITMAP
F8
F8
38
38
38
38
38
38
38
38
38
38
38
38
38
38
38
38
38
F8
F8
ENDCHAR
STARTCHAR 005E
ENCODING 94
SWIDTH 583 0
DWIDTH 14 0
BBX 12 10 1 7
BITMAP
0700
0F00
0F80
1D80
39C0
38C0
70E0
6070
E070
4020
ENDCHAR
STARTCHAR 005F
ENCODING 95
SWIDTH 541 0
DWIDTH 13 0
BBX 12 2 1 -4
BITMAP
FFF0
FFF0
ENDCHAR
STARTCHAR 0060
ENCODING 96
SWIDTH 583 0
DWIDTH 14 0
BBX 5 5 4 14
BITMAP
60
E0
70
30
18
ENDCHAR
STARTCHAR 0061
ENCODING 97
SWIDTH 541 0
DWIDTH 13 0
BBX 11 12 1 0
BITMAP
1F00
7F80
E1C0
01C0
00C0
3FC0
7FC0
E0C0
E0C0
E1C0
FEE0
3C60
ENDCHAR
STARTCHAR 0062
ENCODING 98
SWIDTH 583 0
DWIDTH 14 0
BBX 11 18 2 0
BITMAP
C000
C000
C000
C000
C000
C000
CF00
DFC0
E1C0
E0E0
C0E0
C0E0
C0E0
C0E0
E0E0
E1C0
DFC0
CF00
ENDCHAR
STARTCHAR 0063
ENCODING 99
SWIDTH 500 0
DWIDTH 12 0
BBX 11 12 1 0
BITMAP
1F00
3FC0
71C0
E0A0
E000
E000
E000
E000
E0C0
71E0
3FC0
1F00
ENDCHAR
STARTCHAR 0064
ENCODING 100
SWIDTH 583 0
DWIDTH 14 0
BBX 11 18 1 0
BITMAP
0060
0060
0060
0060
0060
0060
1E60
7F60
70E0
E060
E060
E060
E060
E060
E060
70E0
7F60
1E60
ENDCHAR
STARTCHAR 0065
ENCODING 101
SWIDTH 541 0
DWIDTH 13 0
BBX 11 12 1 0
BITMAP
1F00
3FC0
71C0
E0E0
E060
FFE0
FFE0
E000
E080
70E0
3FC0
1F80
ENDCHAR
STARTCHAR 0066
ENCODING 102
SWIDTH 333 0
DWIDTH 8 0
BBX 7 18 1 0
BITMAP
1E
3E
30
30
30
30
FE
FE
30
30
30
30
30
30
30
30
30
30
ENDCHAR
STARTCHAR 0067
ENCODING 103
SWIDTH 541 0
DWIDTH 13 0
BBX 12 19 1 -5
BITMAP
00E0
00E0
1F80
7FC0
71C0
E0C0
E0C0
71C0
7FC0
1F00
6000
6000
7FC0
3FE0
C070
C070
E070
FFE0
3F80
ENDCHAR
STARTCHAR 0068
ENCODING 104
SWIDTH 583 0
DWIDTH 14 0
BBX 10 18 2 0
BITMAP
C000
C000
C000
C000
C000
C000
CF00
DF80
E1C0
E1C0
C0C0
C0C0
C0C0
C0C0
C0C0
C0C0
C0C0
C0C0
ENDCHAR
STARTCHAR 0069
ENCODING 105
SWIDTH 250 0
DWIDTH 6 0
BBX 3 18 2 0
BITMAP
C0
E0
E0
C0
00
00
C0
C0
C0
C0
C0
C0
C0
C0
C0
C0
C0
C0
ENDCHAR
STARTCHAR 006A
ENCODING 106
SWIDTH 250 0
DWIDTH 6 0
BBX 5 23 0 -5
BITMAP
30
38
38
30
00
00
30
30
30
30
30
30
30
30
30
30
30
30
30
30
30
F0
E0
ENDCHAR
STARTCHAR 006B
ENCODING 107
SWIDTH 541 0
DWIDTH 13 0
BBX 11 18 2 0
BITMAP
C000
C000
C000
C000
C000
C000
C1C0
C380
C700
CE00
DC00
FE00
FE00
E700
C380
C380
C1C0
C1E0
ENDCHAR
STARTCHAR 006C
ENCODING 108
SWIDTH 291 0
DWIDTH 7 0
BBX 4 18 2 0
BITMAP
C0
C0
C0
C0
C0
C0
C0
C0
C0
C0
C0
C0
C0
C0
C0
C0
F0
70
ENDCHAR
STARTCHAR 006D
ENCODING 109
SWIDTH 875 0
DWIDTH 21 0
BBX 17 12 2 0
BITMAP
CF1F00
DFBF80
E1E380
E1C180
C1C180
C1C180
C1C180
C1C180
C1C180
C1C180
C1C180
C1C180
ENDCHAR
STARTCHAR 006E
ENCODING 110
SWIDTH 583 0
DWIDTH 14 0
BBX 10 12 2 0
BITMAP
CF00
DF80
E1C0
E1C0
C0C0
C0C0
C0C0
C0C0
C0C0
C0C0
C0C0
C0C0
ENDCHAR
STARTCHAR 006F
ENCODING 111
SWIDTH 583 0
DWIDTH 14 0
BBX 12 12 1 0
BITMAP
1F00
3FC0
70E0
E0E0
E060
E060
E070
E060
E0E0
70E0
3FC0
1F00
ENDCHAR
STARTCHAR 0070
ENCODING 112
SWIDTH 583 0
DWIDTH 14 0
BBX 11 17 2 -5
BITMAP
CF00
DFC0
E1C0
E0E0
C0E0
C0E0
C0E0
C0E0
E0E0
E1C0
DFC0
CF00
C000
C000
C000
C000
C000
ENDCHAR
STARTCHAR 0071
ENCODING 113
SWIDTH 583 0
DWIDTH 14 0
BBX 11 17 1 -5
BITMAP
1E60
7F60
70E0
E060
E060
E060
E060
E060
E060
70E0
7F60
1E60
0060
0060
0060
0060
0060
ENDCHAR
STARTCHAR 0072
ENCODING 114
SWIDTH 375 0
DWIDTH 9 0
BBX 7 12 2 0
BITMAP
CE
DE
E0
E0
C0
C0
C0
C0
C0
C0
C0
C0
ENDCHAR
STARTCHAR 0073
ENCODING 115
SWIDTH 500 0
DWIDTH 12 0
BBX 10 12 1 0
BITMAP
3F00
7F80
E1C0
E000
F000
7F00
3F80
01C0
41C0
E1C0
FF80
3F00
ENDCHAR
STARTCHAR 0074
ENCODING 116
SWIDTH 375 0
DWIDTH 9 0
BBX 7 16 1 0
BITMAP
30
30
30
30
FE
FE
30
30
30
30
30
30
30
30
3E
3E
ENDCHAR
STARTCHAR 0075
ENCODING 117
SWIDTH 583 0
DWIDTH 14 0
BBX 10 12 2 0
BITMAP
C1C0
C1C0
C1C0
C1C0
C1C0
C1C0
C1C0
C1C0
E1C0
E1C0
7FC0
3DC0
ENDCHAR
STARTCHAR 0076
ENCODING 118
SWIDTH 500 0
DWIDTH 12 0
BBX 12 12 0 0
BITMAP
E070
6060
7060
30E0
38C0
39C0
19C0
1980
1D80
0F80
0F00
0F00
ENDCHAR
STARTCHAR 0077
ENCODING 119
SWIDTH 791 0
DWIDTH 19 0
BBX 18 12 1 0
BITMAP
C1C1C0
E1C180
E1E380
636380
636300
737300
773700
363600
363600
3E3E00
1C1E00
1C1C00
ENDCHAR
STARTCHAR 0078
ENCODING 120
SWIDTH 541 0
DWIDTH 13 0
BBX 12 12 0 0
BITMAP
7070
38E0
38C0
1DC0
0F80
0700
0F00
0F80
1DC0
38C0
30E0
F070
ENDCHAR
STARTCHAR 0079
ENCODING 121
SWIDTH 500 0
DWIDTH 12 0
BBX 12 17 0 -5
BITMAP
E070
6070
7060
30E0
30C0
38C0
19C0
1980
1D80
0F80
0F00
0F00
0700
0600
0E00
3C00
3C00
ENDCHAR
STARTCHAR 007A
ENCODING 122
SWIDTH 500 0
DWIDTH 12 0
BBX 10 12 1 0
BITMAP
FFC0
FFC0
0380
0700
0E00
0E00
1C00
3800
7000
E000
FFC0
FFC0
ENDCHAR
STARTCHAR 007B
ENCODING 123
SWIDTH 375 0
DWIDTH 9 0
BBX 7 21 0 -3
BITMAP
1E
1E
18
18
18
18
18
18
38
F0
E0
F0
38
18
18
18
18
18
18
1E
1E
ENDCHAR
STARTCHAR 007C
ENCODING 124
SWIDTH 333 0
DWIDTH 8 0
BBX 2 21 3 -3
BITMAP
C0
C0
C0
C0
C0
C0
C0
C0
C0
C0
C0
C0
C0
C0
C0
C0
C0
C0
C0
C0
C0
ENDCHAR
STARTCHAR 007D
ENCODING 125
SWIDTH 375 0
DWIDTH 9 0
BBX 7 21 1 -3
BITMAP
F0
F8
38
38
38
38
38
38
18
0E
06
0E
18
38
38
38
38
38
38
F8
F0
ENDCHAR
STARTCHAR 007E
ENCODING 126
SWIDTH 583 0
DWIDTH 14 0
BBX 12 4 1 5
BITMAP
7800
FE20
47F0
01E0
ENDCHAR
STARTCHAR 00A0
ENCODING 160
SWIDTH 250 0
DWIDTH 6 0
BBX 0 0 0 0
BITMAP
ENDCHAR
STARTCHAR 00A1
ENCODING 161
SWIDTH 291 0
DWIDTH 7 0
BBX 3 16 2 -4
BITMAP
E0
E0
E0
E0
00
00
40
40
60
E0
E0
E0
E0
E0
E0
E0
ENDCHAR
STARTCHAR 00A2
ENCODING 162
SWIDTH 541 0
DWIDTH 13 0
BBX 11 18 1 -3
BITMAP
0600
0600
0600
1F00
3FC0
76E0
E680
E600
E600
E600
E600
E640
76E0
3FC0
1F80
0600
0600
0600
ENDCHAR
STARTCHAR 00A3
ENCODING 163
SWIDTH 583 0
DWIDTH 14 0
BBX 12 17 1 0
BITMAP
0FC0
1FE0
3870
7020
7000
7000
7000
3000
FF80
FF80
1800
1800
3800
3800
7000
7FF0
7FF0
ENDCHAR
STARTCHAR 00A4
ENCODING 164
SWIDTH 625 0
DWIDTH 15 0
BBX 15 13 0 2
BITMAP
600C
F7DE
3FF8
1C70
3838
3838
3838
3838
3838
1C70
3FF8
77DC
E00E
ENDCHAR
STARTCHAR 00A5
ENCODING 165
SWIDTH 625 0
DWIDTH 15 0
BBX 13 17 1 0
BITMAP
E038
F030
7070
3860
38E0
1CC0
1DC0
0F80
7FF0
7FF0
0700
0700
7FF0
7FF0
0700
0700
0700
ENDCHAR
STARTCHAR 00A6
ENCODING 166
SWIDTH 333 0
DWIDTH 8 0
BBX 2 21 3 -3
BITMAP
C0
C0
C0
C0
C0
C0
C0
C0
C0
00
00
00
C0
C0
C0
C0
C0
C0
C0
C0
C0
ENDCHAR
STARTCHAR 00A7
ENCODING 167
SWIDTH 583 0
DWIDTH 14 0
BBX 10 21 2 -4
BITMAP
1F00
7FC0
6180
E000
E000
7000
7E00
3F80
C3C0
C0C0
C0C0
C0C0
F180
7F00
1F80
0380
0180
01C0
6380
FF80
3E00
ENDCHAR
STARTCHAR 00A8
ENCODING 168
SWIDTH 583 0
DWIDTH 14 0
BBX 8 3 3 15
BITMAP
67
E7
67
ENDCHAR
STARTCHAR 00A9
ENCODING 169
SWIDTH 791 0
DWIDTH 19 0
BBX 17 17 1 0
BITMAP
07E000
1C1800
300400
200600
63E300
47F100
C63100
CE0100
CE0180
CE0180
C63100
47F300
63E300
200600
300400
1C1800
07E000
ENDCHAR
STARTCHAR 00AA
ENCODING 170
SWIDTH 416 0
DWIDTH 10 0
BBX 8 9 1 8
BITMAP
7C
C6
86
06
7E
C6
C6
C6
7B
ENDCHAR
STARTCHAR 00AB
ENCODING 171
SWIDTH 541 0
DWIDTH 13 0
BBX 11 10 1 2
BITMAP
0840
18C0
31E0
F380
E700
C700
E380
71C0
38E0
0840
ENDCHAR
STARTCHAR 00AC
ENCODING 172
SWIDTH 583 0
DWIDTH 14 0
BBX 12 6 1 2
BITMAP
FFF0
FFF0
0030
0030
0030
0030
ENDCHAR
STARTCHAR 00AD
ENCODING 173
SWIDTH 416 0
DWIDTH 10 0
BBX 7 3 1 6
BITMAP
FE
FE
FE
ENDCHAR
STARTCHAR 00AE
ENCODING 174
SWIDTH 458 0
DWIDTH 11 0
BBX 9 9 1 8
BITMAP
3E00
6100
DC80
9680
9C80
9480
D680
6100
3E00
ENDCHAR
STARTCHAR 00AF
ENCODING 175
SWIDTH 583 0
DWIDTH 14 0
BBX 7 2 4 15
BITMAP
FE
FE
ENDCHAR
STARTCHAR 00B0
ENCODING 176
SWIDTH 458 0
DWIDTH 11 0
BBX 9 9 1 8
BITMAP
1E00
7F00
6300
6180
C180
6180
6300
7F00
1E00
ENDCHAR
STARTCHAR 00B1
ENCODING 177
SWIDTH 583 0
DWIDTH 14 0
BBX 11 14 2 0
BITMAP
0C00
0C00
0C00
0C00
FFE0
FFE0
0C00
0C00
0C00
0C00
0000
0000
FFE0
FFE0
ENDCHAR
STARTCHAR 00B2
ENCODING 178
SWIDTH 333 0
DWIDTH 8 0
BBX 7 9 1 8
BITMAP
78
CC
0C
0C
0C
10
60
C0
FE
ENDCHAR
STARTCHAR 00B3
ENCODING 179
SWIDTH 333 0
DWIDTH 8 0
BBX 7 9 0 8
BITMAP
7C
46
06
06
18
06
06
46
FC
ENDCHAR
STARTCHAR 00B4
ENCODING 180
SWIDTH 583 0
DWIDTH 14 0
BBX 4 5 6 14
BITMAP
20
70
60
E0
C0
ENDCHAR
STARTCHAR 00B5
ENCODING 181
SWIDTH 583 0
DWIDTH 14 0
BBX 10 17 2 -5
BITMAP
C0C0
C0C0
C0C0
C0C0
C0C0
C0C0
C0C0
C0C0
E1C0
E1C0
FEC0
DCC0
C000
C000
C000
C000
C000
ENDCHAR
STARTCHAR 00B6
ENCODING 182
SWIDTH 666 0
DWIDTH 16 0
BBX 13 21 1 -4
BITMAP
1FF8
7FF8
7E30
FE30
FE30
FE30
FE30
7E30
7E30
1E30
0630
0630
0630
0630
0630
0630
0630
0630
0630
0630
0630
ENDCHAR
STARTCHAR 00B7
ENCODING 183
SWIDTH 375 0
DWIDTH 9 0
BBX 4 4 2 5
BITMAP
70
F0
F0
70
ENDCHAR
STARTCHAR 00B8
ENCODING 184
SWIDTH 583 0
DWIDTH 14 0
BBX 5 5 5 -5
BITMAP
60
78
18
98
F0
ENDCHAR
STARTCHAR 00B9
ENCODING 185
SWIDTH 333 0
DWIDTH 8 0
BBX 7 9 1 8
BITMAP
78
F8
D8
98
18
18
18
18
FE
ENDCHAR
STARTCHAR 00BA
ENCODING 186
SWIDTH 416 0
DWIDTH 10 0
BBX 8 9 1 8
BITMAP
3C
66
C3
C3
C3
C3
C3
66
3C
ENDCHAR
STARTCHAR 00BB
ENCODING 187
SWIDTH 541 0
DWIDTH 13 0
BBX 11 10 1 2
BITMAP
4200
E300
7380
39C0
1CE0
1CE0
39E0
7380
E300
4200
ENDCHAR
STARTCHAR 00BC
ENCODING 188
SWIDTH 833 0
DWIDTH 20 0
BBX 19 17 1 0
BITMAP
780380
F80300
D80600
980C00
181C00
181800
183000
186000
FE61C0
00C3C0
0182C0
0386C0
030CC0
0618C0
0C1FE0
0C00C0
1800C0
ENDCHAR
STARTCHAR 00BD
ENCODING 189
SWIDTH 833 0
DWIDTH 20 0
BBX 19 17 1 0
BITMAP
780300
F80600
D80E00
980C00
181800
183000
183000
186000
FEC780
00CCC0
0180C0
0300C0
0700C0
060180
0C0600
180C00
380FE0
ENDCHAR
STARTCHAR 00BE
ENCODING 190
SWIDTH 833 0
DWIDTH 20 0
BBX 19 17 0 0
BITMAP
7C0180
460300
060700
060600
180C00
061800
061800
463000
FC61C0
00E1C0
00C3C0
0186C0
0306C0
030CC0
060FE0
0C00C0
1C00C0
ENDCHAR
STARTCHAR 00BF
ENCODING 191
SWIDTH 500 0
DWIDTH 12 0
BBX 10 17 1 -5
BITMAP
0E00
0E00
0E00
0E00
0000
0000
0E00
0E00
3E00
7E00
F000
E000
E000
E0C0
E1C0
7F80
3F00
ENDCHAR
STARTCHAR 00C0
ENCODING 192
SWIDTH 666 0
DWIDTH 16 0
BBX 14 23 1 0
BITMAP
0400
0E00
0600
0300
0300
0000
0780
0780
0F80
0FC0
0CC0
1CC0
1CE0
1860
3870
3870
3FF0
7FF8
7038
6038
E01C
E01C
C01C
ENDCHAR
STARTCHAR 00C1
ENCODING 193
SWIDTH 666 0
DWIDTH 16 0
BBX 14 23 1 0
BITMAP
0180
01C0
0380
0300
0300
0000
0780
0780
0F80
0FC0
0CC0
1CC0
1CE0
1860
3870
3870
3FF0
7FF8
7038
6038
E01C
E01C
C01C
ENDCHAR
STARTCHAR 00C2
ENCODING 194
SWIDTH 666 0
DWIDTH 16 0
BBX 14 23 1 0
BITMAP
0780
0F80
0DC0
18E0
1840
0000
0780
0780
0F80
0FC0
0CC0
1CC0
1CE0
1860
3870
3870
3FF0
7FF8
7038
6038
E01C
E01C
C01C
ENDCHAR
STARTCHAR 00C3
ENCODING 195
SWIDTH 666 0
DWIDTH 16 0
BBX 14 22 1 0
BITMAP
0E20
1FE0
11C0
0000
0000
0780
0780
0F80
0FC0
0CC0
1CC0
1CE0
1860
3870
3870
3FF0
7FF8
7038
6038
E01C
E01C
C01C
ENDCHAR
STARTCHAR 00C4
ENCODING 196
SWIDTH 666 0
DWIDTH 16 0
BBX 14 22 1 0
BITMAP
1CE0
1CE0
1CE0
0000
0000
0780
0780
0F80
0FC0
0CC0
1CC0
1CE0
1860
3870
3870
3FF0
7FF8
7038
6038
E01C
E01C
C01C
ENDCHAR
STARTCHAR 00C5
ENCODING 197
SWIDTH 666 0
DWIDTH 16 0
BBX 14 24 1 0
BITMAP
0780
0CC0
0CC0
0CC0
0CC0
0780
0000
0780
0780
0F80
0FC0
0CC0
1CC0
1CE0
1860
3870
3870
3FF0
7FF8
7038
6038
E01C
E01C
C01C
ENDCHAR
STARTCHAR 00C6
ENCODING 198
SWIDTH 916 0
DWIDTH 22 0
BBX 21 17 0 0
BITMAP
00FFF8
00FFF8
01F800
01B800
03B800
033800
073800
063FF0
0E3FF0
0C3800
1FF800
1FF800
383800
303800
703800
603FF8
E03FF8
ENDCHAR
STARTCHAR 00C7
ENCODING 199
SWIDTH 625 0
DWIDTH 15 0
BBX 13 22 1 -5
BITMAP
07C0
1FF0
3878
7038
7020
6000
E000
E000
E000
E000
E000
6000
7010
7038
3878
1FF0
0FC0
0300
03C0
00C0
04C0
0780
ENDCHAR
STARTCHAR 00C8
ENCODING 200
SWIDTH 583 0
DWIDTH 14 0
BBX 11 23 2 0
BITMAP
1800
3800
1C00
0C00
0600
0000
FFE0
FFE0
E000
E000
E000
E000
E000
FFC0
FFC0
E000
E000
E000
E000
E000
E000
FFE0
FFE0
ENDCHAR
STARTCHAR 00C9
ENCODING 201
SWIDTH 583 0
DWIDTH 14 0
BBX 11 23 2 0
BITMAP
0200
0780
0600
0E00
0400
0000
FFE0
FFE0
E000
E000
E000
E000
E000
FFC0
FFC0
E000
E000
E000
E000
E000
E000
FFE0
FFE0
ENDCHAR
STARTCHAR 00CA
ENCODING 202
SWIDTH 583 0
DWIDTH 14 0
BBX 11 23 2 0
BITMAP
0E00
1F00
3B80
3180
60C0
0000
FFE0
FFE0
E000
E000
E000
E000
E000
FFC0
FFC0
E000
E000
E000
E000
E000
E000
FFE0
FFE0
ENDCHAR
STARTCHAR 00CB
ENCODING 203
SWIDTH 583 0
DWIDTH 14 0
BBX 11 22 2 0
BITMAP
3180
7B80
3180
0000
0000
FFE0
FFE0
E000
E000
E000
E000
E000
FFC0
FFC0
E000
E000
E000
E000
E000
E000
FFE0
FFE0
ENDCHAR
STARTCHAR 00CC
ENCODING 204
SWIDTH 416 0
DWIDTH 10 0
BBX 8 23 1 0
BITMAP
20
70
30
18
18
00
FF
FF
18
18
18
18
18
18
18
18
18
18
18
18
18
FF
FF
ENDCHAR
STARTCHAR 00CD
ENCODING 205
SWIDTH 416 0
DWIDTH 10 0
BBX 8 23 1 0
BITMAP
0C
0E
1C
18
18
00
FF
FF
18
18
18
18
18
18
18
18
18
18
18
18
18
FF
FF
ENDCHAR
STARTCHAR 00CE
ENCODING 206
SWIDTH 416 0
DWIDTH 10 0
BBX 8 23 1 0
BITMAP
3C
3C
7E
E7
42
00
FF
FF
18
18
18
18
18
18
18
18
18
18
18
18
18
FF
FF
ENDCHAR
STARTCHAR 00CF
ENCODING 207
SWIDTH 416 0
DWIDTH 10 0
BBX 8 22 1 0
BITMAP
E7
E7
E7
00
00
FF
FF
18
18
18
18
18
18
18
18
18
18
18
18
18
FF
FF
ENDCHAR
STARTCHAR 00D0
ENCODING 208
SWIDTH 666 0
DWIDTH 16 0
BBX 15 17 0 0
BITMAP
3FE0
3FF8
383C
381C
380E
380E
380E
FF0E
FF0E
380E
380E
380E
380E
381C
383C
3FF8
3FE0
ENDCHAR
STARTCHAR 00D1
ENCODING 209
SWIDTH 708 0
DWIDTH 17 0
BBX 13 22 2 0
BITMAP
1E40
3FE0
13C0
0000
0000
E038
F038
F838
F838
FC38
EC38
EE38
E638
E738
E3B8
E3B8
E1F8
E1F8
E0F8
E078
E078
E038
ENDCHAR
STARTCHAR 00D2
ENCODING 210
SWIDTH 708 0
DWIDTH 17 0
BBX 15 23 1 0
BITMAP
0200
0F00
0700
0380
0100
0000
07C0
1FF0
3C38
701C
701C
600C
E00E
E00E
E00E
E00E
E00E
600C
701C
701C
3838
1FF0
07C0
ENDCHAR
STARTCHAR 00D3
ENCODING 211
SWIDTH 708 0
DWIDTH 17 0
BBX 15 23 1 0
BITMAP
00C0
00E0
01C0
0180
0300
0000
07C0
1FF0
3C38
701C
701C
600C
E00E
E00E
E00E
E00E
E00E
600C
701C
701C
3838
1FF0
07C0
ENDCHAR
STARTCHAR 00D4
ENCODING 212
SWIDTH 708 0
DWIDTH 17 0
BBX 15 23 1 0
BITMAP
0380
07C0
0EE0
0C60
1830
0000
07C0
1FF0
3C38
701C
701C
600C
E00E
E00E
E00E
E00E
E00E
600C
701C
701C
3838
1FF0
07C0
ENDCHAR
STARTCHAR 00D5
ENCODING 213
SWIDTH 708 0
DWIDTH 17 0
BBX 15 22 1 0
BITMAP
0F20
1FF0
09E0
0000
0000
07C0
1FF0
3C38
701C
701C
600C
E00E
E00E
E00E
E00E
E00E
600C
701C
701C
3838
1FF0
07C0
ENDCHAR
STARTCHAR 00D6
ENCODING 214
SWIDTH 708 0
DWIDTH 17 0
BBX 15 22 1 0
BITMAP
0C60
0EE0
0C60
0000
0000
07C0
1FF0
3C38
701C
701C
600C
E00E
E00E
E00E
E00E
E00E
600C
701C
701C
3838
1FF0
07C0
ENDCHAR
STARTCHAR 00D7
ENCODING 215
SWIDTH 583 0
DWIDTH 14 0
BBX 10 11 2 1
BITMAP
4080
E1C0
7380
3F00
1E00
1E00
3F00
7B80
71C0
E0C0
4080
ENDCHAR
STARTCHAR 00D8
ENCODING 216
SWIDTH 708 0
DWIDTH 17 0
BBX 15 19 1 -1
BITMAP
0008
07CE
1FFC
3C78
703C
707C
60EC
E0CE
E18E
E38E
E30E
E60E
6E0C
7C1C
781C
3C38
7FF0
67C0
2000
ENDCHAR
STARTCHAR 00D9
ENCODING 217
SWIDTH 666 0
DWIDTH 16 0
BBX 13 23 2 0
BITMAP
0C00
1C00
0E00
0600
0300
0000
E038
E038
E038
E038
E038
E038
E038
E038
E038
E038
E030
E030
E030
E070
70F0
3FE0
1F80
ENDCHAR
STARTCHAR 00DA
ENCODING 218
SWIDTH 666 0
DWIDTH 16 0
BBX 13 23 2 0
BITMAP
0100
0380
0300
0700
0600
0000
E038
E038
E038
E038
E038
E038
E038
E038
E038
E038
E030
E030
E030
E070
70F0
3FE0
1F80
ENDCHAR
STARTCHAR 00DB
ENCODING 219
SWIDTH 666 0
DWIDTH 16 0
BBX 13 23 2 0
BITMAP
0700
0F80
1D80
38C0
1040
0000
E038
E038
E038
E038
E038
E038
E038
E038
E038
E038
E030
E030
E030
E070
70F0
3FE0
1F80
ENDCHAR
STARTCHAR 00DC
ENCODING 220
SWIDTH 666 0
DWIDTH 16 0
BBX 13 22 2 0
BITMAP
19C0
39C0
19C0
0000
0000
E038
E038
E038
E038
E038
E038
E038
E038
E038
E038
E030
E030
E030
E070
70F0
3FE0
1F80
ENDCHAR
STARTCHAR 00DD
ENCODING 221
SWIDTH 625 0
DWIDTH 15 0
BBX 15 23 0 0
BITMAP
0080
01E0
0180
0380
0100
0000
F01E
701C
3838
3838
1C70
1C70
0EE0
0EC0
07C0
0780
0380
0380
0380
0380
0380
0380
0380
ENDCHAR
STARTCHAR 00DE
ENCODING 222
SWIDTH 625 0
DWIDTH 15 0
BBX 12 17 2 0
BITMAP
E000
E000
E000
FFC0
FFE0
E070
E070
E070
E070
E070
E070
FFE0
FFC0
E000
E000
E000
E000
ENDCHAR
STARTCHAR 00DF
ENCODING 223
SWIDTH 666 0
DWIDTH 16 0
BBX 14 18 1 0
BITMAP
07C0
1FE0
3870
3030
3030
3038
F0F8
F1F8
3380
3380
33C0
31F8
30FC
301C
300C
331C
37F8
31F0
ENDCHAR
STARTCHAR 00E0
ENCODING 224
SWIDTH 541 0
DWIDTH 13 0
BBX 11 19 1 0
BITMAP
1800
3800
1C00
0C00
0600
0000
0000
1F00
7F80
E1C0
01C0
00C0
3FC0
7FC0
E0C0
E0C0
E1C0
FEE0
3C60
ENDCHAR
STARTCHAR 00E1
ENCODING 225
SWIDTH 541 0
DWIDTH 13 0
BBX 11 19 1 0
BITMAP
0200
0700
0600
0E00
0C00
0000
0000
1F00
7F80
E1C0
01C0
00C0
3FC0
7FC0
E0C0
E0C0
E1C0
FEE0
3C60
ENDCHAR
STARTCHAR 00E2
ENCODING 226
SWIDTH 541 0
DWIDTH 13 0
BBX 11 19 1 0
BITMAP
0E00
1F00
3B00
7180
2080
0000
0000
1F00
7F80
E1C0
01C0
00C0
3FC0
7FC0
E0C0
E0C0
E1C0
FEE0
3C60
ENDCHAR
STARTCHAR 00E3
ENCODING 227
SWIDTH 541 0
DWIDTH 13 0
BBX 11 18 1 0
BITMAP
3880
7FC0
4780
0000
0000
0000
1F00
7F80
E1C0
01C0
00C0
3FC0
7FC0
E0C0
E0C0
E1C0
FEE0
3C60
ENDCHAR
STARTCHAR 00E4
ENCODING 228
SWIDTH 541 0
DWIDTH 13 0
BBX 11 18 1 0
BITMAP
3380
7380
3380
0000
0000
0000
1F00
7F80
E1C0
01C0
00C0
3FC0
7FC0
E0C0
E0C0
E1C0
FEE0
3C60
ENDCHAR
STARTCHAR 00E5
ENCODING 229
SWIDTH 541 0
DWIDTH 13 0
BBX 11 20 1 0
BITMAP
1E00
3300
3100
3100
3300
1E00
0000
0000
1F00
7F80
E1C0
01C0
00C0
3FC0
7FC0
E0C0
E0C0
E1C0
FEE0
3C60
ENDCHAR
STARTCHAR 00E6
ENCODING 230
SWIDTH 875 0
DWIDTH 21 0
BBX 19 12 1 0
BITMAP
3E1F00
7F3F80
E1E1C0
41C0C0
00C0E0
3FFFE0
7FFFE0
E0C000
E0C080
E160C0
7F7FC0
3C1F00
ENDCHAR
STARTCHAR 00E7
ENCODING 231
SWIDTH 500 0
DWIDTH 12 0
BBX 11 17 1 -5
BITMAP
1F00
3FC0
71C0
E0A0
E000
E000
E000
E000
E0C0
71E0
3FC0
1F00
0400
0F00
0380
1180
0F00
ENDCHAR
STARTCHAR 00E8
ENCODING 232
SWIDTH 541 0
DWIDTH 13 0
BBX 11 19 1 0
BITMAP
0800
1C00
0C00
0E00
0600
0000
0000
1F00
3FC0
71C0
E0E0
E060
FFE0
FFE0
E000
E080
70E0
3FC0
1F80
ENDCHAR
STARTCHAR 00E9
ENCODING 233
SWIDTH 541 0
DWIDTH 13 0
BBX 11 19 1 0
BITMAP
0300
0380
0700
0600
0C00
0000
0000
1F00
3FC0
71C0
E0E0
E060
FFE0
FFE0
E000
E080
70E0
3FC0
1F80
ENDCHAR
STARTCHAR 00EA
ENCODING 234
SWIDTH 541 0
DWIDTH 13 0
BBX 11 19 1 0
BITMAP
0F00
1F00
1B80
31C0
2080
0000
0000
1F00
3FC0
71C0
E0E0
E060
FFE0
FFE0
E000
E080
70E0
3FC0
1F80
ENDCHAR
STARTCHAR 00EB
ENCODING 235
SWIDTH 541 0
DWIDTH 13 0
BBX 11 18 1 0
BITMAP
3980
39C0
3980
0000
0000
0000
1F00
3FC0
71C0
E0E0
E060
FFE0
FFE0
E000
E080
70E0
3FC0
1F80
ENDCHAR
STARTCHAR 00EC
ENCODING 236
SWIDTH 250 0
DWIDTH 6 0
BBX 5 19 0 0
BITMAP
60
E0
70
30
18
00
00
30
30
30
30
30
30
30
30
30
30
30
30
ENDCHAR
STARTCHAR 00ED
ENCODING 237
SWIDTH 250 0
DWIDTH 6 0
BBX 4 19 2 0
BITMAP
20
70
60
E0
C0
00
00
C0
C0
C0
C0
C0
C0
C0
C0
C0
C0
C0
C0
ENDCHAR
STARTCHAR 00EE
ENCODING 238
SWIDTH 250 0
DWIDTH 6 0
BBX 8 19 -1 0
BITMAP
3C
3E
76
E3
41
00
00
18
18
18
18
18
18
18
18
18
18
18
18
ENDCHAR
STARTCHAR 00EF
ENCODING 239
SWIDTH 250 0
DWIDTH 6 0
BBX 8 18 -1 0
BITMAP
67
E7
67
00
00
00
18
18
18
18
18
18
18
18
18
18
18
18
ENDCHAR
STARTCHAR 00F0
ENCODING 240
SWIDTH 583 0
DWIDTH 14 0
BBX 12 18 1 0
BITMAP
7C80
1FC0
0700
1F80
11C0
01C0
1EE0
3F60
70E0
E0E0
E070
E070
E070
E060
E0E0
70E0
3FC0
1F00
ENDCHAR
STARTCHAR 00F1
ENCODING 241
SWIDTH 583 0
DWIDTH 14 0
BBX 10 18 2 0
BITMAP
3880
7F80
4700
0000
0000
0000
CF00
DF80
E1C0
E1C0
C0C0
C0C0
C0C0
C0C0
C0C0
C0C0
C0C0
C0C0
ENDCHAR
STARTCHAR 00F2
ENCODING 242
SWIDTH 583 0
DWIDTH 14 0
BBX 12 19 1 0
BITMAP
0800
1C00
0C00
0E00
0600
0000
0000
1F00
3FC0
70E0
E0E0
E060
E060
E070
E060
E0E0
70E0
3FC0
1F00
ENDCHAR
STARTCHAR 00F3
ENCODING 243
SWIDTH 583 0
DWIDTH 14 0
BBX 12 19 1 0
BITMAP
0300
0380
0700
0600
0C00
0000
0000
1F00
3FC0
70E0
E0E0
E060
E060
E070
E060
E0E0
70E0
3FC0
1F00
ENDCHAR
STARTCHAR 00F4
ENCODING 244
SWIDTH 583 0
DWIDTH 14 0
BBX 12 19 1 0
BITMAP
0E00
1F00
1B80
31C0
2080
0000
0000
1F00
3FC0
70E0
E0E0
E060
E060
E070
E060
E0E0
70E0
3FC0
1F00
ENDCHAR
STARTCHAR 00F5
ENCODING 245
SWIDTH 583 0
DWIDTH 14 0
BBX 12 18 1 0
BITMAP
3C80
3FC0
2380
0000
0000
0000
1F00
3FC0
70E0
E0E0
E060
E060
E070
E060
E0E0
70E0
3FC0
1F00
ENDCHAR
STARTCHAR 00F6
ENCODING 246
SWIDTH 583 0
DWIDTH 14 0
BBX 12 18 1 0
BITMAP
3980
39C0
3980
0000
0000
0000
1F00
3FC0
70E0
E0E0
E060
E060
E070
E060
E0E0
70E0
3FC0
1F00
ENDCHAR
STARTCHAR 00F7
ENCODING 247
SWIDTH 583 0
DWIDTH 14 0
BBX 11 12 2 1
BITMAP
0E00
1E00
0E00
0000
0000
FFE0
FFE0
0000
0000
0E00
1E00
0E00
ENDCHAR
STARTCHAR 00F8
ENCODING 248
SWIDTH 583 0
DWIDTH 14 0
BBX 12 14 1 -1
BITMAP
0020
1F70
3FE0
70E0
61E0
E360
E670
EE70
FC60
7860
70E0
7FC0
DF00
8000
ENDCHAR
STARTCHAR 00F9
ENCODING 249
SWIDTH 583 0
DWIDTH 14 0
BBX 10 19 2 0
BITMAP
1000
3800
1800
0C00
0C00
0000
0000
C1C0
C1C0
C1C0
C1C0
C1C0
C1C0
C1C0
C1C0
E1C0
E1C0
7FC0
3DC0
ENDCHAR
STARTCHAR 00FA
ENCODING 250
SWIDTH 583 0
DWIDTH 14 0
BBX 10 19 2 0
BITMAP
0600
0700
0E00
0C00
0C00
0000
0000
C1C0
C1C0
C1C0
C1C0
C1C0
C1C0
C1C0
C1C0
E1C0
E1C0
7FC0
3DC0
ENDCHAR
STARTCHAR 00FB
ENCODING 251
SWIDTH 583 0
DWIDTH 14 0
BBX 10 19 2 0
BITMAP
1E00
3E00
3700
7380
6100
0000
0000
C1C0
C1C0
C1C0
C1C0
C1C0
C1C0
C1C0
C1C0
E1C0
E1C0
7FC0
3DC0
ENDCHAR
STARTCHAR 00FC
ENCODING 252
SWIDTH 583 0
DWIDTH 14 0
BBX 10 18 2 0
BITMAP
7380
7380
7380
0000
0000
0000
C1C0
C1C0
C1C0
C1C0
C1C0
C1C0
C1C0
C1C0
E1C0
E1C0
7FC0
3DC0
ENDCHAR
STARTCHAR 00FD
ENCODING 253
SWIDTH 500 0
DWIDTH 12 0
BBX 12 24 0 -5
BITMAP
0100
0380
0300
0700
0600
0000
0000
E070
6070
7060
30E0
30C0
38C0
19C0
1980
1D80
0F80
0F00
0F00
0700
0600
0E00
3C00
3C00
ENDCHAR
STARTCHAR 00FE
ENCODING 254
SWIDTH 583 0
DWIDTH 14 0
BBX 11 23 2 -5
BITMAP
C000
C000
C000
C000
C000
C000
CF00
DFC0
E1C0
E0E0
C0E0
C0E0
C0E0
C0E0
E0E0
E1C0
DFC0
CF00
C000
C000
C000
C000
C000
ENDCHAR
STARTCHAR 00FF
ENCODING 255
SWIDTH 500 0
DWIDTH 12 0
BBX 12 23 0 -5
BITMAP
19C0
39C0
19C0
0000
0000
0000
E070
6070
7060
30E0
30C0
38C0
19C0
1980
1D80
0F80
0F00
0F00
0700
0600
0E00
3C00
3C00
ENDCHAR
STARTCHAR 0100
ENCODING 256
SWIDTH 666 0
DWIDTH 16 0
BBX 14 21 1 0
BITMAP
1FC0
1FC0
0000
0000
0780
0780
0F80
0FC0
0CC0
1CC0
1CE0
1860
3870
3870
3FF0
7FF8
7038
6038
E01C
E01C
C01C
ENDCHAR
STARTCHAR 0101
ENCODING 257
SWIDTH 541 0
DWIDTH 13 0
BBX 11 17 1 0
BITMAP
3F80
3F80
0000
0000
0000
1F00
7F80
E1C0
01C0
00C0
3FC0
7FC0
E0C0
E0C0
E1C0
FEE0
3C60
ENDCHAR
STARTCHAR 0102
ENCODING 258
SWIDTH 666 0
DWIDTH 16 0
BBX 14 22 1 0
BITMAP
1860
18E0
0FC0
0780
0000
0780
0780
0F80
0FC0
0CC0
1CC0
1CE0
1860
3870
3870
3FF0
7FF8
7038
6038
E01C
E01C
C01C
ENDCHAR
STARTCHAR 0103
ENCODING 259
SWIDTH 541 0
DWIDTH 13 0
BBX 11 18 1 0
BITMAP
2180
7180
3F00
1E00
0000
0000
1F00
7F80
E1C0
01C0
00C0
3FC0
7FC0
E0C0
E0C0
E1C0
FEE0
3C60
ENDCHAR
STARTCHAR 0104
ENCODING 260
SWIDTH 666 0
DWIDTH 16 0
BBX 15 22 1 -5
BITMAP
0780
0780
0F80
0FC0
0CC0
1CC0
1CE0
1860
3870
3870
3FF0
7FF8
7038
6038
E01C
E01C
C01C
000C
0018
0030
0034
001E
ENDCHAR
STARTCHAR 0105
ENCODING 261
SWIDTH 541 0
DWIDTH 13 0
BBX 12 17 1 -5
BITMAP
1F00
7F80
E1C0
01C0
00C0
3FC0
7FC0
E0C0
E0C0
E1C0
FEE0
3C60
0060
00C0
0180
0190
00F0
ENDCHAR
STARTCHAR 0106
ENCODING 262
SWIDTH 625 0
DWIDTH 15 0
BBX 13 23 1 0
BITMAP
0080
01C0
0180
0380
0300
0000
07C0
1FF0
3878
7038
7020
6000
E000
E000
E000
E000
E000
6000
7010
7038
3878
1FF0
07C0
ENDCHAR
STARTCHAR 0107
ENCODING 263
SWIDTH 500 0
DWIDTH 12 0
BBX 11 19 1 0
BITMAP
0300
0380
0700
0600
0C00
0000
0000
1F00
3FC0
71C0
E0A0
E000
E000
E000
E000
E0C0
71E0
3FC0
1F00
ENDCHAR
STARTCHAR 0108
ENCODING 264
SWIDTH 625 0
DWIDTH 15 0
BBX 13 23 1 0
BITMAP
0380
07C0
0EC0
1C60
0820
0000
07C0
1FF0
3878
7038
7020
6000
E000
E000
E000
E000
E000
6000
7010
7038
3878
1FF0
07C0
ENDCHAR
STARTCHAR 0109
ENCODING 265
SWIDTH 500 0
DWIDTH 12 0
BBX 11 19 1 0
BITMAP
0E00
1F00
3B80
31C0
6080
0000
0000
1F00
3FC0
71C0
E0A0
E000
E000
E000
E000
E0C0
71E0
3FC0
1F00
ENDCHAR
STARTCHAR 010A
ENCODING 266
SWIDTH 625 0
DWIDTH 15 0
BBX 13 22 1 0
BITMAP
0380
0380
0380
0000
0000
07C0
1FF0
3878
7038
7020
6000
E000
E000
E000
E000
E000
6000
7010
7038
3878
1FF0
07C0
ENDCHAR
STARTCHAR 010B
ENCODING 267
SWIDTH 500 0
DWIDTH 12 0
BBX 11 18 1 0
BITMAP
0E00
0E00
0E00
0000
0000
0000
1F00
3FC0
71C0
E0A0
E000
E000
E000
E000
E0C0
71E0
3FC0
1F00
ENDCHAR
STARTCHAR 010C
ENCODING 268
SWIDTH 625 0
DWIDTH 15 0
BBX 13 23 1 0
BITMAP
0820
1C60
0EC0
07C0
0380
0000
07C0
1FF0
3878
7038
7020
6000
E000
E000
E000
E000
E000
6000
7010
7038
3878
1FF0
07C0
ENDCHAR
STARTCHAR 010D
ENCODING 269
SWIDTH 500 0
DWIDTH 12 0
BBX 11 19 1 0
BITMAP
2080
71C0
3B80
1F00
0E00
0000
0000
1F00
3FC0
71C0
E0A0
E000
E000
E000
E000
E0C0
71E0
3FC0
1F00
ENDCHAR
STARTCHAR 010E
ENCODING 270
SWIDTH 666 0
DWIDTH 16 0
BBX 13 23 2 0
BITMAP
2080
71C0
3B80
1F00
0E00
0000
FF80
FFC0
E0E0
E070
E030
E038
E038
E038
E038
E038
E038
E038
E030
E070
E0E0
FFC0
FF80
ENDCHAR
STARTCHAR 010F
ENCODING 271
SWIDTH 625 0
DWIDTH 15 0
BBX 16 18 1 0
BITMAP
0067
0066
0066
0066
0066
0060
1E60
7F60
70E0
E060
E060
E060
E060
E060
E060
70E0
7F60
1E60
ENDCHAR
STARTCHAR 0110
ENCODING 272
SWIDTH 666 0
DWIDTH 16 0
BBX 15 17 0 0
BITMAP
3FE0
3FF8
383C
381C
380E
380E
380E
FF0E
FF0E
380E
380E
380E
380E
381C
383C
3FF8
3FE0
ENDCHAR
STARTCHAR 0111
ENCODING 273
SWIDTH 583 0
DWIDTH 14 0
BBX 13 18 1 0
BITMAP
0060
0060
07F8
07F8
0060
0060
1E60
7F60
70E0
E060
E060
E060
E060
E060
E060
70E0
7F60
1E60
ENDCHAR
STARTCHAR 0112
ENCODING 274
SWIDTH 583 0
DWIDTH 14 0
BBX 11 21 2 0
BITMAP
3F80
3F80
0000
0000
FFE0
FFE0
E000
E000
E000
E000
E000
FFC0
FFC0
E000
E000
E000
E000
E000
E000
FFE0
FFE0
ENDCHAR
STARTCHAR 0113
ENCODING 275
SWIDTH 541 0
DWIDTH 13 0
BBX 11 17 1 0
BITMAP
3F80
3F80
0000
0000
0000
1F00
3FC0
71C0
E0E0
E060
FFE0
FFE0
E000
E080
70E0
3FC0
1F80
ENDCHAR
STARTCHAR 0114
ENCODING 276
SWIDTH 583 0
DWIDTH 14 0
BBX 11 22 2 0
BITMAP
2080
7180
3F80
1E00
0000
FFE0
FFE0
E000
E000
E000
E000
E000
FFC0
FFC0
E000
E000
E000
E000
E000
E000
FFE0
FFE0
ENDCHAR
STARTCHAR 0115
ENCODING 277
SWIDTH 541 0
DWIDTH 13 0
BBX 11 18 1 0
BITMAP
3080
31C0
1F80
0F00
0000
0000
1F00
3FC0
71C0
E0E0
E060
FFE0
FFE0
E000
E080
70E0
3FC0
1F80
ENDCHAR
STARTCHAR 0116
ENCODING 278
SWIDTH 583 0
DWIDTH 14 0
BBX 11 22 2 0
BITMAP
0E00
0E00
0E00
0000
0000
FFE0
FFE0
E000
E000
E000
E000
E000
FFC0
FFC0
E000
E000
E000
E000
E000
E000
FFE0
FFE0
ENDCHAR
STARTCHAR 0117
ENCODING 279
SWIDTH 541 0
DWIDTH 13 0
BBX 11 18 1 0
BITMAP
0E00
0E00
0E00
0000
0000
0000
1F00
3FC0
71C0
E0E0
E060
FFE0
FFE0
E000
E080
70E0
3FC0
1F80
ENDCHAR
STARTCHAR 0118
ENCODING 280
SWIDTH 583 0
DWIDTH 14 0
BBX 11 22 2 -5
BITMAP
FFE0
FFE0
E000
E000
E000
E000
E000
FFC0
FFC0
E000
E000
E000
E000
E000
E000
FFE0
FFE0
00C0
0180
0300
0320
01E0
ENDCHAR
STARTCHAR 0119
ENCODING 281
SWIDTH 541 0
DWIDTH 13 0
BBX 11 17 1 -5
BITMAP
1F00
3FC0
71C0
E0E0
E060
FFE0
FFE0
E000
E080
70E0
3FC0
1F80
0300
0600
0600
0680
07C0
ENDCHAR
STARTCHAR 011A
ENCODING 282
SWIDTH 583 0
DWIDTH 14 0
BBX 11 23 2 0
BITMAP
2080
71C0
3B80
1F00
0E00
0000
FFE0
FFE0
E000
E000
E000
E000
E000
FFC0
FFC0
E000
E000
E000
E000
E000
E000
FFE0
FFE0
ENDCHAR
STARTCHAR 011B
ENCODING 283
SWIDTH 541 0
DWIDTH 13 0
BBX 11 19 1 0
BITMAP
2080
31C0
1B80
1F00
0F00
0000
0000
1F00
3FC0
71C0
E0E0
E060
FFE0
FFE0
E000
E080
70E0
3FC0
1F80
ENDCHAR
STARTCHAR 011C
ENCODING 284
SWIDTH 708 0
DWIDTH 17 0
BBX 14 23 1 0
BITMAP
0380
07C0
0EE0
0C60
1830
0000
07E0
1FF0
3C38
701C
7010
6000
E000
E000
E0FC
E0FC
E00C
600C
701C
701C
3C3C
1FEC
07CC
ENDCHAR
STARTCHAR 011D
ENCODING 285
SWIDTH 541 0
DWIDTH 13 0
BBX 12 24 1 -5
BITMAP
0E00
1F00
3B80
3180
60C0
0000
0000
1FF0
7FF0
71C0
E0C0
E0C0
71C0
7FC0
1F00
6000
6000
7FC0
3FE0
C070
C070
E070
FFE0
3F80
ENDCHAR
STARTCHAR 011E
ENCODING 286
SWIDTH 708 0
DWIDTH 17 0
BBX 14 22 1 0
BITMAP
0820
0C70
0FE0
03C0
0000
07E0
1FF0
3C38
701C
7010
6000
E000
E000
E0FC
E0FC
E00C
600C
701C
701C
3C3C
1FEC
07CC
ENDCHAR
STARTCHAR 011F
ENCODING 287
SWIDTH 541 0
DWIDTH 13 0
BBX 12 23 1 -5
BITMAP
2080
7180
3F80
1E00
0000
0000
1FF0
7FF0
71C0
E0C0
E0C0
71C0
7FC0
1F00
6000
6000
7FC0
3FE0
C070
C070
E070
FFE0
3F80
ENDCHAR
STARTCHAR 0120
ENCODING 288
SWIDTH 708 0
DWIDTH 17 0
BBX 14 22 1 0
BITMAP
0380
0380
0380
0000
0000
07E0
1FF0
3C38
701C
7010
6000
E000
E000
E0FC
E0FC
E00C
600C
701C
701C
3C3C
1FEC
07CC
ENDCHAR
STARTCHAR 0121
ENCODING 289
SWIDTH 541 0
DWIDTH 13 0
BBX 12 23 1 -5
BITMAP
0E00
0E00
0E00
0000
0000
0000
1FF0
7FF0
71C0
E0C0
E0C0
71C0
7FC0
1F00
6000
6000
7FC0
3FE0
C070
C070
E070
FFE0
3F80
ENDCHAR
STARTCHAR 0122
ENCODING 290
SWIDTH 708 0
DWIDTH 17 0
BBX 14 23 1 -6
BITMAP
07E0
1FF0
3C38
701C
7010
6000
E000
E000
E0FC
E0FC
E00C
600C
701C
701C
3C3C
1FEC
07CC
0000
0380
0380
0380
0100
0300
ENDCHAR
STARTCHAR 0123
ENCODING 291
SWIDTH 541 0
DWIDTH 13 0
BBX 12 24 1 -5
BITMAP
0600
0C00
0E00
0E00
0E00
0000
0000
1FF0
7FF0
71C0
E0C0
E0C0
71C0
7FC0
1F00
6000
6000
7FC0
3FE0
C070
C070
E070
FFE0
3F80
ENDCHAR
STARTCHAR 0124
ENCODING 292
SWIDTH 708 0
DWIDTH 17 0
BBX 13 23 2 0
BITMAP
0700
0F80
1DC0
18C0
3060
0000
E038
E038
E038
E038
E038
E038
E038
FFF8
FFF8
E038
E038
E038
E038
E038
E038
E038
E038
ENDCHAR
STARTCHAR 0125
ENCODING 293
SWIDTH 583 0
DWIDTH 14 0
BBX 13 23 -1 0
BITMAP
1C00
3E00
7600
E300
4100
1800
1800
1800
1800
1800
1800
19E0
1BF0
1C38
1C38
1818
1818
1818
1818
1818
1818
1818
1818
ENDCHAR
STARTCHAR 0126
ENCODING 294
SWIDTH 708 0
DWIDTH 17 0
BBX 17 17 0 0
BITMAP
380E00
380E00
FFFF80
FFFF80
380E00
380E00
380E00
3FFE00
3FFE00
380E00
380E00
380E00
380E00
380E00
380E00
380E00
380E00
ENDCHAR
STARTCHAR 0127
ENCODING 295
SWIDTH 583 0
DWIDTH 14 0
BBX 12 18 0 0
BITMAP
3000
3000
FF00
FF00
3000
3000
33C0
37E0
3870
3870
3030
3030
3030
3030
3030
3030
3030
3030
ENDCHAR
STARTCHAR 0128
ENCODING 296
SWIDTH 416 0
DWIDTH 10 0
BBX 8 22 1 0
BITMAP
71
FF
8E
00
00
FF
FF
18
18
18
18
18
18
18
18
18
18
18
18
18
FF
FF
ENDCHAR
STARTCHAR 0129
ENCODING 297
SWIDTH 250 0
DWIDTH 6 0
BBX 8 18 -1 0
BITMAP
71
FF
8F
00
00
00
18
18
18
18
18
18
18
18
18
18
18
18
ENDCHAR
STARTCHAR 012A
ENCODING 298
SWIDTH 416 0
DWIDTH 10 0
BBX 8 21 1 0
BITMAP
FF
FF
00
00
FF
FF
18
18
18
18
18
18
18
18
18
18
18
18
18
FF
FF
ENDCHAR
STARTCHAR 012B
ENCODING 299
SWIDTH 250 0
DWIDTH 6 0
BBX 7 17 0 0
BITMAP
FE
FE
00
00
00
30
30
30
30
30
30
30
30
30
30
30
30
ENDCHAR
STARTCHAR 012C
ENCODING 300
SWIDTH 416 0
DWIDTH 10 0
BBX 8 22 1 0
BITMAP
C3
E7
7E
3C
00
FF
FF
18
18
18
18
18
18
18
18
18
18
18
18
18
FF
FF
ENDCHAR
STARTCHAR 012D
ENCODING 301
SWIDTH 250 0
DWIDTH 6 0
BBX 8 18 -1 0
BITMAP
43
E3
7E
3C
00
00
18
18
18
18
18
18
18
18
18
18
18
18
ENDCHAR
STARTCHAR 012E
ENCODING 302
SWIDTH 416 0
DWIDTH 10 0
BBX 8 22 1 -5
BITMAP
FF
FF
18
18
18
18
18
18
18
18
18
18
18
18
18
FF
FF
06
0C
18
19
0F
ENDCHAR
STARTCHAR 012F
ENCODING 303
SWIDTH 250 0
DWIDTH 6 0
BBX 5 23 0 -5
BITMAP
30
38
38
30
00
00
30
30
30
30
30
30
30
30
30
30
30
30
30
60
C0
C8
78
ENDCHAR
STARTCHAR 0130
ENCODING 304
SWIDTH 416 0
DWIDTH 10 0
BBX 8 22 1 0
BITMAP
18
3C
18
00
00
FF
FF
18
18
18
18
18
18
18
18
18
18
18
18
18
FF
FF
ENDCHAR
STARTCHAR 0131
ENCODING 305
SWIDTH 250 0
DWIDTH 6 0
BBX 2 12 2 0
BITMAP
C0
C0
C0
C0
C0
C0
C0
C0
C0
C0
C0
C0
ENDCHAR
STARTCHAR 0132
ENCODING 306
SWIDTH 666 0
DWIDTH 16 0
BBX 12 17 2 0
BITMAP
E3F0
E3F0
E070
E070
E070
E070
E070
E070
E070
E070
0070
0070
0070
E060
70E0
7FC0
1F00
ENDCHAR
STARTCHAR 0133
ENCODING 307
SWIDTH 541 0
DWIDTH 13 0
BBX 9 23 2 -5
BITMAP
C380
E380
E380
C380
0000
0000
C380
C380
C380
C380
C380
C380
C380
C380
C380
C380
C380
C380
0380
0380
0380
0F00
0F00
ENDCHAR
STARTCHAR 0134
ENCODING 308
SWIDTH 541 0
DWIDTH 13 0
BBX 10 23 1 0
BITMAP
0E00
1F00
1B80
31C0
2080
0000
3FC0
3FC0
01C0
01C0
01C0
01C0
01C0
01C0
01C0
01C0
01C0
01C0
01C0
C1C0
E380
7F80
3E00
ENDCHAR
STARTCHAR 0135
ENCODING 309
SWIDTH 250 0
DWIDTH 6 0
BBX 8 24 -1 -5
BITMAP
3C
3E
76
E3
41
00
00
18
18
18
18
18
18
18
18
18
18
18
18
18
18
18
78
70
ENDCHAR
STARTCHAR 0136
ENCODING 310
SWIDTH 666 0
DWIDTH 16 0
BBX 13 23 2 -6
BITMAP
E078
E070
E0E0
E1C0
E380
E700
EF00
EE00
FF00
FF80
F380
E1C0
E1C0
E0E0
E070
E070
E038
0000
0700
0700
0700
0200
0600
ENDCHAR
STARTCHAR 0137
ENCODING 311
SWIDTH 541 0
DWIDTH 13 0
BBX 11 24 2 -6
BITMAP
C000
C000
C000
C000
C000
C000
C1C0
C380
C700
CE00
DC00
FE00
FE00
E700
C380
C380
C1C0
C1E0
0000
0C00
0E00
0E00
0400
0C00
ENDCHAR
STARTCHAR 0138
ENCODING 312
SWIDTH 541 0
DWIDTH 13 0
BBX 11 12 2 0
BITMAP
C1E0
C380
C700
CE00
DC00
FE00
FE00
E700
C380
C380
C1C0
C1E0
ENDCHAR
STARTCHAR 0139
ENCODING 313
SWIDTH 500 0
DWIDTH 12 0
BBX 10 23 2 0
BITMAP
3000
7800
7000
E000
4000
0000
E000
E000
E000
E000
E000
E000
E000
E000
E000
E000
E000
E000
E000
E000
E000
FFC0
FFC0
ENDCHAR
STARTCHAR 013A
ENCODING 314
SWIDTH 291 0
DWIDTH 7 0
BBX 4 24 2 0
BITMAP
20
70
60
E0
C0
00
C0
C0
C0
C0
C0
C0
C0
C0
C0
C0
C0
C0
C0
C0
C0
C0
F0
70
ENDCHAR
STARTCHAR 013B
ENCODING 315
SWIDTH 500 0
DWIDTH 12 0
BBX 10 23 2 -6
BITMAP
E000
E000
E000
E000
E000
E000
E000
E000
E000
E000
E000
E000
E000
E000
E000
FFC0
FFC0
0000
0C00
0C00
0C00
0C00
1800
ENDCHAR
STARTCHAR 013C
ENCODING 316
SWIDTH 291 0
DWIDTH 7 0
BBX 4 24 2 -6
BITMAP
C0
C0
C0
C0
C0
C0
C0
C0
C0
C0
C0
C0
C0
C0
C0
C0
F0
70
00
60
60
60
60
C0
ENDCHAR
STARTCHAR 013D
ENCODING 317
SWIDTH 500 0
DWIDTH 12 0
BBX 10 18 2 0
BITMAP
0700
E600
E600
E600
E400
E000
E000
E000
E000
E000
E000
E000
E000
E000
E000
E000
FFC0
FFC0
ENDCHAR
STARTCHAR 013E
ENCODING 318
SWIDTH 291 0
DWIDTH 7 0
BBX 7 18 2 0
BITMAP
CE
CE
CC
CC
CC
C0
C0
C0
C0
C0
C0
C0
C0
C0
C0
C0
F0
70
ENDCHAR
STARTCHAR 013F
ENCODING 319
SWIDTH 500 0
DWIDTH 12 0
BBX 10 17 2 0
BITMAP
E000
E000
E000
E000
E000
E000
E380
E380
E380
E000
E000
E000
E000
E000
E000
FFC0
FFC0
ENDCHAR
STARTCHAR 0140
ENCODING 320
SWIDTH 416 0
DWIDTH 10 0
BBX 8 18 2 0
BITMAP
C0
C0
C0
C0
C0
C0
C0
C0
C6
CF
C6
C0
C0
C0
C0
C0
F0
70
ENDCHAR
STARTCHAR 0141
ENCODING 321
SWIDTH 541 0
DWIDTH 13 0
BBX 12 17 0 0
BITMAP
3800
3800
3800
3800
3800
3800
3880
3F80
3F80
FC00
F800
3800
3800
3800
3800
3FF0
3FF0
ENDCHAR
STARTCHAR 0142
ENCODING 322
SWIDTH 291 0
DWIDTH 7 0
BBX 7 18 0 0
BITMAP
38
38
38
38
38
38
38
3E
7E
F8
B8
38
38
38
38
38
3C
1C
ENDCHAR
STARTCHAR 0143
ENCODING 323
SWIDTH 708 0
DWIDTH 17 0
BBX 13 23 2 0
BITMAP
0180
01C0
0380
0300
0600
0000
E038
F038
F838
F838
FC38
EC38
EE38
E638
E738
E3B8
E3B8
E1F8
E1F8
E0F8
E078
E078
E038
ENDCHAR
STARTCHAR 0144
ENCODING 324
SWIDTH 583 0
DWIDTH 14 0
BBX 10 19 2 0
BITMAP
0200
0700
0600
0C00
0C00
0000
0000
CF00
DF80
E1C0
E1C0
C0C0
C0C0
C0C0
C0C0
C0C0
C0C0
C0C0
C0C0
ENDCHAR
STARTCHAR 0145
ENCODING 325
SWIDTH 708 0
DWIDTH 17 0
BBX 13 23 2 -6
BITMAP
E038
F038
F838
F838
FC38
EC38
EE38
E638
E738
E3B8
E3B8
E1F8
E1F8
E0F8
E078
E078
E038
0000
0700
0700
0700
0300
0600
ENDCHAR
STARTCHAR 0146
ENCODING 326
SWIDTH 583 0
DWIDTH 14 0
BBX 10 18 2 -6
BITMAP
CF00
DF80
E1C0
E1C0
C0C0
C0C0
C0C0
C0C0
C0C0
C0C0
C0C0
C0C0
0000
0C00
0C00
0C00
0C00
1800
ENDCHAR
STARTCHAR 0147
ENCODING 327
SWIDTH 708 0
DWIDTH 17 0
BBX 13 23 2 0
BITMAP
1040
38E0
1DC0
0F80
0700
0000
E038
F038
F838
F838
FC38
EC38
EE38
E638
E738
E3B8
E3B8
E1F8
E1F8
E0F8
E078
E078
E038
ENDCHAR
STARTCHAR 0148
ENCODING 328
SWIDTH 583 0
DWIDTH 14 0
BBX 10 19 2 0
BITMAP
2180
7380
3B00
1F00
1E00
0000
0000
CF00
DF80
E1C0
E1C0
C0C0
C0C0
C0C0
C0C0
C0C0
C0C0
C0C0
C0C0
ENDCHAR
STARTCHAR 0149
ENCODING 329
SWIDTH 833 0
DWIDTH 20 0
BBX 18 18 1 0
BITMAP
700000
700000
700000
300000
700000
600000
C1DF00
01FF80
01E380
01C180
01C1C0
01C1C0
01C1C0
01C1C0
01C1C0
01C1C0
01C1C0
01C1C0
ENDCHAR
STARTCHAR 014A
ENCODING 330
SWIDTH 708 0
DWIDTH 17 0
BBX 13 22 2 -5
BITMAP
E038
F038
F838
F838
FC38
EC38
EE38
E638
E738
E3B8
E3B8
E1F8
E1F8
E0F8
E078
E078
E038
0038
0038
0038
00F8
00F0
ENDCHAR
STARTCHAR 014B
ENCODING 331
SWIDTH 583 0
DWIDTH 14 0
BBX 10 17 2 -5
BITMAP
CF00
DF80
E1C0
E1C0
C0C0
C0C0
C0C0
C0C0
C0C0
C0C0
C0C0
C0C0
00C0
00C0
00C0
03C0
0380
ENDCHAR
STARTCHAR 014C
ENCODING 332
SWIDTH 708 0
DWIDTH 17 0
BBX 15 21 1 0
BITMAP
0FE0
0FE0
0000
0000
07C0
1FF0
3C38
701C
701C
600C
E00E
E00E
E00E
E00E
E00E
600C
701C
701C
3838
1FF0
07C0
ENDCHAR
STARTCHAR 014D
ENCODING 333
SWIDTH 583 0
DWIDTH 14 0
BBX 12 17 1 0
BITMAP
3F80
3F80
0000
0000
0000
1F00
3FC0
70E0
E0E0
E060
E060
E070
E060
E0E0
70E0
3FC0
1F00
ENDCHAR
STARTCHAR 014E
ENCODING 334
SWIDTH 708 0
DWIDTH 17 0
BBX 15 22 1 0
BITMAP
0820
1C70
0FE0
07C0
0000
07C0
1FF0
3C38
701C
701C
600C
E00E
E00E
E00E
E00E
E00E
600C
701C
701C
3838
1FF0
07C0
ENDCHAR
STARTCHAR 014F
ENCODING 335
SWIDTH 583 0
DWIDTH 14 0
BBX 12 18 1 0
BITMAP
3080
31C0
1F80
0F00
0000
0000
1F00
3FC0
70E0
E0E0
E060
E060
E070
E060
E0E0
70E0
3FC0
1F00
ENDCHAR
STARTCHAR 0150
ENCODING 336
SWIDTH 708 0
DWIDTH 17 0
BBX 15 23 1 0
BITMAP
0230
0338
0670
0660
0CC0
0000
07C0
1FF0
3C38
701C
701C
600C
E00E
E00E
E00E
E00E
E00E
600C
701C
701C
3838
1FF0
07C0
ENDCHAR
STARTCHAR 0151
ENCODING 337
SWIDTH 583 0
DWIDTH 14 0
BBX 12 19 1 0
BITMAP
0C40
0EE0
1CC0
1980
3180
0000
0000
1F00
3FC0
70E0
E0E0
E060
E060
E070
E060
E0E0
70E0
3FC0
1F00
ENDCHAR
STARTCHAR 0152
ENCODING 338
SWIDTH 1000 0
DWIDTH 24 0
BBX 21 17 1 0
BITMAP
07FFF8
1FFFF8
3C1800
701800
701800
601800
E01800
E01FF8
E01FF8
E01800
E01800
601800
701800
701800
3C1800
1FFFF8
07FFF8
ENDCHAR
STARTCHAR 0153
ENCODING 339
SWIDTH 916 0
DWIDTH 22 0
BBX 20 12 1 0
BITMAP
1F0F80
3FDFC0
70F8E0
E0F070
E07070
E07FF0
E07FF0
E07000
E0F040
70F860
3FDFF0
1F0FC0
ENDCHAR
STARTCHAR 0154
ENCODING 340
SWIDTH 666 0
DWIDTH 16 0
BBX 13 23 2 0
BITMAP
0300
0380
0700
0600
0C00
0000
FFC0
FFE0
E070
E070
E070
E070
E070
E070
FFE0
FFC0
E380
E1C0
E1C0
E0E0
E0E0
E070
E078
ENDCHAR
STARTCHAR 0155
ENCODING 341
SWIDTH 375 0
DWIDTH 9 0
BBX 7 19 2 0
BITMAP
08
1C
18
38
10
00
00
CE
DE
E0
E0
C0
C0
C0
C0
C0
C0
C0
C0
ENDCHAR
STARTCHAR 0156
ENCODING 342
SWIDTH 666 0
DWIDTH 16 0
BBX 13 23 2 -6
BITMAP
FFC0
FFE0
E070
E070
E070
E070
E070
E070
FFE0
FFC0
E380
E1C0
E1C0
E0E0
E0E0
E070
E070
0008
0600
0600
0600
0600
0C00
ENDCHAR
STARTCHAR 0157
ENCODING 343
SWIDTH 375 0
DWIDTH 9 0
BBX 8 18 1 -6
BITMAP
67
6F
70
70
60
60
60
60
60
60
60
60
00
60
70
70
20
E0
ENDCHAR
STARTCHAR 0158
ENCODING 344
SWIDTH 666 0
DWIDTH 16 0
BBX 13 23 2 0
BITMAP
2080
71C0
3B80
1F00
0E00
0000
FFC0
FFE0
E070
E070
E070
E070
E070
E070
FFE0
FFC0
E380
E1C0
E1C0
E0E0
E0E0
E070
E078
ENDCHAR
STARTCHAR 0159
ENCODING 345
SWIDTH 375 0
DWIDTH 9 0
BBX 9 19 1 0
BITMAP
4100
E380
7700
3E00
1C00
0000
0000
6700
6F00
7000
7000
6000
6000
6000
6000
6000
6000
6000
6000
ENDCHAR
STARTCHAR 015A
ENCODING 346
SWIDTH 583 0
DWIDTH 14 0
BBX 12 23 1 0
BITMAP
0100
0380
0300
0600
0600
0000
1F80
3FE0
70F0
6020
E000
6000
7000
3F00
1FC0
01E0
0070
0070
0070
6070
F0F0
7FE0
1F80
ENDCHAR
STARTCHAR 015B
ENCODING 347
SWIDTH 500 0
DWIDTH 12 0
BBX 10 19 1 0
BITMAP
0600
0700
0E00
0C00
1800
0000
0000
3F00
7F80
E1C0
E000
F000
7F00
3F80
01C0
41C0
E1C0
FF80
3F00
ENDCHAR
STARTCHAR 015C
ENCODING 348
SWIDTH 583 0
DWIDTH 14 0
BBX 12 23 1 0
BITMAP
0F00
0F80
1D80
38C0
10C0
0000
1F80
3FE0
70F0
6020
E000
6000
7000
3F00
1FC0
01E0
0070
0070
0070
6070
F0F0
7FE0
1F80
ENDCHAR
STARTCHAR 015D
ENCODING 349
SWIDTH 500 0
DWIDTH 12 0
BBX 10 19 1 0
BITMAP
1E00
3E00
3700
6380
4100
0000
0000
3F00
7F80
E1C0
E000
F000
7F00
3F80
01C0
41C0
E1C0
FF80
3F00
ENDCHAR
STARTCHAR 015E
ENCODING 350
SWIDTH 583 0
DWIDTH 14 0
BBX 12 22 1 -5
BITMAP
1FC0
3FE0
70F0
6040
E000
6000
7000
3F00
1FC0
01E0
0070
0070
0070
4070
F0F0
7FE0
1F80
0600
0780
0180
0980
0F00
ENDCHAR
STARTCHAR 015F
ENCODING 351
SWIDTH 500 0
DWIDTH 12 0
BBX 10 17 1 -5
BITMAP
3F00
7F80
E1C0
E000
F000
7F00
3F80
01C0
41C0
E1C0
FF80
3F00
0800
0F00
0300
1300
1E00
ENDCHAR
STARTCHAR 0160
ENCODING 352
SWIDTH 583 0
DWIDTH 14 0
BBX 12 23 1 0
BITMAP
10C0
38C0
1D80
0F80
0F00
0000
1F80
3FE0
70F0
6020
E000
6000
7000
3F00
1FC0
01E0
0070
0070
0070
6070
F0F0
7FE0
1F80
ENDCHAR
STARTCHAR 0161
ENCODING 353
SWIDTH 500 0
DWIDTH 12 0
BBX 10 19 1 0
BITMAP
4100
6380
3700
3E00
1E00
0000
0000
3F00
7F80
E1C0
E000
F000
7F00
3F80
01C0
41C0
E1C0
FF80
3F00
ENDCHAR
STARTCHAR 0162
ENCODING 354
SWIDTH 583 0
DWIDTH 14 0
BBX 12 22 1 -5
BITMAP
FFF0
FFF0
0600
0600
0600
0600
0600
0600
0600
0600
0600
0600
0600
0600
0600
0600
0600
0400
0780
0180
0980
0F00
ENDCHAR
STARTCHAR 0163
ENCODING 355
SWIDTH 375 0
DWIDTH 9 0
BBX 7 21 1 -5
BITMAP
30
30
30
30
FE
FE
30
30
30
30
30
30
30
30
3E
3E
18
1E
06
26
3E
ENDCHAR
STARTCHAR 0164
ENCODING 356
SWIDTH 583 0
DWIDTH 14 0
BBX 12 23 1 0
BITMAP
3080
39C0
1B80
1F00
0F00
0000
FFF0
FFF0
0600
0600
0600
0600
0600
0600
0600
0600
0600
0600
0600
0600
0600
0600
0600
ENDCHAR
STARTCHAR 0165
ENCODING 357
SWIDTH 375 0
DWIDTH 9 0
BBX 9 19 1 0
BITMAP
0380
0300
0300
3300
3300
3000
3000
FE00
FE00
3000
3000
3000
3000
3000
3000
3000
3000
3E00
3E00
ENDCHAR
STARTCHAR 0166
ENCODING 358
SWIDTH 583 0
DWIDTH 14 0
BBX 12 17 1 0
BITMAP
FFF0
FFF0
0600
0600
0600
0600
0600
7FE0
7FE0
0600
0600
0600
0600
0600
0600
0600
0600
ENDCHAR
STARTCHAR 0167
ENCODING 359
SWIDTH 375 0
DWIDTH 9 0
BBX 7 16 1 0
BITMAP
30
30
30
30
FE
FE
30
30
30
FC
FC
30
30
30
3E
3E
ENDCHAR
STARTCHAR 0168
ENCODING 360
SWIDTH 666 0
DWIDTH 16 0
BBX 13 22 2 0
BITMAP
1C40
3FC0
23C0
0000
0000
E038
E038
E038
E038
E038
E038
E038
E038
E038
E038
E030
E030
E030
E070
70F0
3FE0
1F80
ENDCHAR
STARTCHAR 0169
ENCODING 361
SWIDTH 583 0
DWIDTH 14 0
BBX 10 18 2 0
BITMAP
3880
7F80
4700
0000
0000
0000
C1C0
C1C0
C1C0
C1C0
C1C0
C1C0
C1C0
C1C0
E1C0
E1C0
7FC0
3DC0
ENDCHAR
STARTCHAR 016A
ENCODING 362
SWIDTH 666 0
DWIDTH 16 0
BBX 13 21 2 0
BITMAP
1FC0
1FC0
0000
0000
E038
E038
E038
E038
E038
E038
E038
E038
E038
E038
E030
E030
E030
E070
70F0
3FE0
1F80
ENDCHAR
STARTCHAR 016B
ENCODING 363
SWIDTH 583 0
DWIDTH 14 0
BBX 10 17 2 0
BITMAP
7F00
7F00
0000
0000
0000
C1C0
C1C0
C1C0
C1C0
C1C0
C1C0
C1C0
C1C0
E1C0
E1C0
7FC0
3DC0
ENDCHAR
STARTCHAR 016C
ENCODING 364
SWIDTH 666 0
DWIDTH 16 0
BBX 13 22 2 0
BITMAP
10C0
38C0
1F80
0F00
0000
E038
E038
E038
E038
E038
E038
E038
E038
E038
E038
E030
E030
E030
E070
70F0
3FE0
1F80
ENDCHAR
STARTCHAR 016D
ENCODING 365
SWIDTH 583 0
DWIDTH 14 0
BBX 10 18 2 0
BITMAP
6180
7380
3F00
1E00
0000
0000
C1C0
C1C0
C1C0
C1C0
C1C0
C1C0
C1C0
C1C0
E1C0
E1C0
7FC0
3DC0
ENDCHAR
STARTCHAR 016E
ENCODING 366
SWIDTH 666 0
DWIDTH 16 0
BBX 13 24 2 0
BITMAP
0F00
1980
1880
1880
1980
0F00
0000
E038
E038
E038
E038
E038
E038
E038
E038
E038
E038
E030
E030
E030
E070
70F0
3FE0
1F80
ENDCHAR
STARTCHAR 016F
ENCODING 367
SWIDTH 583 0
DWIDTH 14 0
BBX 10 20 2 0
BITMAP
1E00
3300
3300
3300
3300
1E00
0000
0000
C1C0
C1C0
C1C0
C1C0
C1C0
C1C0
C1C0
C1C0
E1C0
E1C0
7FC0
3DC0
ENDCHAR
STARTCHAR 0170
ENCODING 368
SWIDTH 666 0
DWIDTH 16 0
BBX 13 23 2 0
BITMAP
0440
0E60
0CC0
18C0
1980
0000
E038
E038
E038
E038
E038
E038
E038
E038
E038
E038
E030
E030
E030
E070
70F0
3FE0
1F80
ENDCHAR
STARTCHAR 0171
ENCODING 369
SWIDTH 583 0
DWIDTH 14 0
BBX 10 19 2 0
BITMAP
1880
1DC0
3980
3300
2300
0000
0000
C1C0
C1C0
C1C0
C1C0
C1C0
C1C0
C1C0
C1C0
E1C0
E1C0
7FC0
3DC0
ENDCHAR
STARTCHAR 0172
ENCODING 370
SWIDTH 666 0
DWIDTH 16 0
BBX 13 22 2 -5
BITMAP
E038
E038
E038
E038
E038
E038
E038
E038
E038
E038
E038
E030
E030
E070
70F0
3FE0
1FE0
01C0
0380
0300
0240
03E0
ENDCHAR
STARTCHAR 0173
ENCODING 371
SWIDTH 583 0
DWIDTH 14 0
BBX 11 17 2 -5
BITMAP
C1C0
C1C0
C1C0
C1C0
C1C0
C1C0
C1C0
C1C0
E1C0
E1C0
7FC0
3DC0
0080
0300
0300
0340
03E0
ENDCHAR
STARTCHAR 0174
ENCODING 372
SWIDTH 916 0
DWIDTH 22 0
BBX 21 23 1 0
BITMAP
00F000
00F800
01D800
038C00
010400
000000
C0F038
E0F030
E0F070
E0F070
60F870
619860
719860
7198E0
319CE0
330CC0
3B0CC0
3B0CC0
3B0FC0
1E0780
1E0780
1E0780
1E0780
ENDCHAR
STARTCHAR 0175
ENCODING 373
SWIDTH 791 0
DWIDTH 19 0
BBX 18 19 1 0
BITMAP
01C000
03E000
077000
063800
0C1000
000000
000000
C1C1C0
E1C180
E1E380
636380
636300
737300
773700
363600
363600
3E3E00
1C1E00
1C1C00
ENDCHAR
STARTCHAR 0176
ENCODING 374
SWIDTH 625 0
DWIDTH 15 0
BBX 15 23 0 0
BITMAP
0380
07C0
0EE0
0C60
1830
0000
F01E
701C
3838
3838
1C70
1C70
0EE0
0EC0
07C0
0780
0380
0380
0380
0380
0380
0380
0380
ENDCHAR
STARTCHAR 0177
ENCODING 375
SWIDTH 500 0
DWIDTH 12 0
BBX 12 24 0 -5
BITMAP
0700
0F80
1D80
38C0
1040
0000
0000
E070
6070
7060
30E0
30C0
38C0
19C0
1980
1D80
0F80
0F00
0F00
0700
0600
0E00
3C00
3C00
ENDCHAR
STARTCHAR 0178
ENCODING 376
SWIDTH 625 0
DWIDTH 15 0
BBX 15 22 0 0
BITMAP
0C60
1EE0
0C60
0000
0000
F01E
701C
3838
3838
1C70
1C70
0EE0
0EC0
07C0
0780
0380
0380
0380
0380
0380
0380
0380
ENDCHAR
STARTCHAR 0179
ENCODING 377
SWIDTH 583 0
DWIDTH 14 0
BBX 12 23 1 0
BITMAP
0100
0380
0300
0700
0600
0000
FFF0
FFF0
0070
00E0
01C0
01C0
0380
0700
0F00
0E00
1C00
3800
3800
7000
E000
FFF0
FFF0
ENDCHAR
STARTCHAR 017A
ENCODING 378
SWIDTH 500 0
DWIDTH 12 0
BBX 10 19 1 0
BITMAP
0600
0700
0E00
0C00
0C00
0000
0000
FFC0
FFC0
0380
0700
0E00
0E00
1C00
3800
7000
E000
FFC0
FFC0
ENDCHAR
STARTCHAR 017B
ENCODING 379
SWIDTH 583 0
DWIDTH 14 0
BBX 12 22 1 0
BITMAP
0700
0700
0700
0000
0000
FFF0
FFF0
0070
00E0
01C0
01C0
0380
0700
0F00
0E00
1C00
3800
3800
7000
E000
FFF0
FFF0
ENDCHAR
STARTCHAR 017C
ENCODING 380
SWIDTH 500 0
DWIDTH 12 0
BBX 10 18 1 0
BITMAP
0C00
1E00
0C00
0000
0000
0000
FFC0
FFC0
0380
0700
0E00
0E00
1C00
3800
7000
E000
FFC0
FFC0
ENDCHAR
STARTCHAR 017D
ENCODING 381
SWIDTH 583 0
DWIDTH 14 0
BBX 12 23 1 0
BITMAP
1040
38C0
1D80
0F80
0F00
0000
FFF0
FFF0
0070
00E0
01C0
01C0
0380
0700
0F00
0E00
1C00
3800
3800
7000
E000
FFF0
FFF0
ENDCHAR
STARTCHAR 017E
ENCODING 382
SWIDTH 500 0
DWIDTH 12 0
BBX 10 19 1 0
BITMAP
6100
6380
3700
3E00
1E00
0000
0000
FFC0
FFC0
0380
0700
0E00
0E00
1C00
3800
7000
E000
FFC0
FFC0
ENDCHAR
STARTCHAR 017F
ENCODING 383
SWIDTH 291 0
DWIDTH 7 0
BBX 7 18 1 0
BITMAP
1E
3E
30
30
30
30
F0
F0
30
30
30
30
30
30
30
30
30
30
ENDCHAR
STARTCHAR 018F
ENCODING 399
SWIDTH 708 0
DWIDTH 17 0
BBX 15 17 1 0
BITMAP
07C0
1FF0
3878
701C
701C
000C
000E
000E
FFFE
FFFE
E00E
600C
701C
701C
3C78
1FF0
07C0
ENDCHAR
STARTCHAR 0192
ENCODING 402
SWIDTH 500 0
DWIDTH 12 0
BBX 11 20 0 -3
BITMAP
03E0
07E0
0700
0600
0600
0600
0600
0E00
7FE0
7FC0
0E00
0E00
0E00
0C00
0C00
0C00
0C00
1C00
FC00
F800
ENDCHAR
STARTCHAR 01A0
ENCODING 416
SWIDTH 708 0
DWIDTH 17 0
BBX 15 20 1 0
BITMAP
0006
0006
0006
07FE
1FFE
3C38
701C
701C
600C
E00E
E00E
E00E
E00E
E00E
600C
701C
701C
3838
1FF0
07C0
ENDCHAR
STARTCHAR 01A1
ENCODING 417
SWIDTH 583 0
DWIDTH 14 0
BBX 12 15 1 0
BITMAP
0030
0030
0030
1FF0
3FE0
70C0
E0E0
E060
E060
E060
E060
E0E0
70E0
3FC0
1F00
ENDCHAR
STARTCHAR 01AF
ENCODING 431
SWIDTH 666 0
DWIDTH 16 0
BBX 14 20 2 0
BITMAP
000C
000C
000C
E03C
E03C
E038
E038
E038
E038
E038
E038
E038
E038
E030
E030
E030
E070
70F0
3FE0
1F80
ENDCHAR
STARTCHAR 01B0
ENCODING 432
SWIDTH 583 0
DWIDTH 14 0
BBX 12 15 2 0
BITMAP
0030
0030
0030
C1F0
C1E0
C1C0
C1C0
C1C0
C1C0
C1C0
C1C0
E1C0
E1C0
7FC0
3DC0
ENDCHAR
STARTCHAR 01CD
ENCODING 461
SWIDTH 666 0
DWIDTH 16 0
BBX 14 23 1 0
BITMAP
1840
18E0
0DC0
0F80
0780
0000
0780
0780
0F80
0FC0
0CC0
1CC0
1CE0
1860
3870
3870
3FF0
7FF8
7038
6038
E01C
E01C
C01C
ENDCHAR
STARTCHAR 01CE
ENCODING 462
SWIDTH 541 0
DWIDTH 13 0
BBX 11 19 1 0
BITMAP
2080
7180
3B00
1F00
0E00
0000
0000
1F00
7F80
E1C0
01C0
00C0
3FC0
7FC0
E0C0
E0C0
E1C0
FEE0
3C60
ENDCHAR
STARTCHAR 01CF
ENCODING 463
SWIDTH 416 0
DWIDTH 10 0
BBX 8 23 1 0
BITMAP
42
E7
7E
3C
3C
00
FF
FF
18
18
18
18
18
18
18
18
18
18
18
18
18
FF
FF
ENDCHAR
STARTCHAR 01D0
ENCODING 464
SWIDTH 250 0
DWIDTH 6 0
BBX 8 19 -1 0
BITMAP
41
E3
76
3E
1C
00
00
18
18
18
18
18
18
18
18
18
18
18
18
ENDCHAR
STARTCHAR 01D1
ENCODING 465
SWIDTH 708 0
DWIDTH 17 0
BBX 15 23 1 0
BITMAP
0820
1C70
0EE0
07C0
0380
0000
07C0
1FF0
3C38
701C
701C
600C
E00E
E00E
E00E
E00E
E00E
600C
701C
701C
3838
1FF0
07C0
ENDCHAR
STARTCHAR 01D2
ENCODING 466
SWIDTH 583 0
DWIDTH 14 0
BBX 12 19 1 0
BITMAP
2080
31C0
1B80
1F00
0E00
0000
0000
1F00
3FC0
70E0
E0E0
E060
E060
E070
E060
E0E0
70E0
3FC0
1F00
ENDCHAR
STARTCHAR 01D3
ENCODING 467
SWIDTH 666 0
DWIDTH 16 0
BBX 13 23 2 0
BITMAP
1040
38C0
1D80
0F80
0F00
0000
E038
E038
E038
E038
E038
E038
E038
E038
E038
E038
E030
E030
E030
E070
70F0
3FE0
1F80
ENDCHAR
STARTCHAR 01D4
ENCODING 468
SWIDTH 583 0
DWIDTH 14 0
BBX 10 19 2 0
BITMAP
6100
7380
3700
3E00
1E00
0000
0000
C1C0
C1C0
C1C0
C1C0
C1C0
C1C0
C1C0
C1C0
E1C0
E1C0
7FC0
3DC0
ENDCHAR
STARTCHAR 01D5
ENCODING 469
SWIDTH 666 0
DWIDTH 16 0
BBX 13 24 2 0
BITMAP
1FC0
1FC0
0000
39C0
39C0
39C0
0000
E038
E038
E038
E038
E038
E038
E038
E038
E038
E038
E030
E030
E030
E070
70F0
3FE0
1F80
ENDCHAR
STARTCHAR 01D6
ENCODING 470
SWIDTH 583 0
DWIDTH 14 0
BBX 10 20 2 0
BITMAP
7F00
7F00
0000
7380
7380
7380
0000
0000
C1C0
C1C0
C1C0
C1C0
C1C0
C1C0
C1C0
C1C0
E1C0
E1C0
7FC0
3DC0
ENDCHAR
STARTCHAR 01D7
ENCODING 471
SWIDTH 666 0
DWIDTH 16 0
BBX 13 26 2 0
BITMAP
0180
0380
0300
0600
0200
39C0
39C0
39C0
0000
E038
E038
E038
E038
E038
E038
E038
E038
E038
E038
E030
E030
E030
E070
70F0
3FE0
1F80
ENDCHAR
STARTCHAR 01D8
ENCODING 472
SWIDTH 583 0
DWIDTH 14 0
BBX 10 22 2 0
BITMAP
0700
0600
0E00
0C00
0800
7380
7380
7380
0000
0000
C1C0
C1C0
C1C0
C1C0
C1C0
C1C0
C1C0
C1C0
E1C0
E1C0
7FC0
3DC0
ENDCHAR
STARTCHAR 01D9
ENCODING 473
SWIDTH 666 0
DWIDTH 16 0
BBX 13 27 2 0
BITMAP
1040
38C0
1D80
0F80
0700
0000
39C0
39C0
39C0
0000
E038
E038
E038
E038
E038
E038
E038
E038
E038
E038
E030
E030
E030
E070
70F0
3FE0
1F80
ENDCHAR
STARTCHAR 01DA
ENCODING 474
SWIDTH 583 0
DWIDTH 14 0
BBX 10 23 2 0
BITMAP
4100
6380
3700
1E00
1C00
0000
7380
7380
7380
0000
0000
C1C0
C1C0
C1C0
C1C0
C1C0
C1C0
C1C0
C1C0
E1C0
E1C0
7FC0
3DC0
ENDCHAR
STARTCHAR 01DB
ENCODING 475
SWIDTH 666 0
DWIDTH 16 0
BBX 13 26 2 0
BITMAP
0C00
1C00
0E00
0600
0400
39C0
39C0
39C0
0000
E038
E038
E038
E038
E038
E038
E038
E038
E038
E038
E030
E030
E030
E070
70F0
3FE0
1F80
ENDCHAR
STARTCHAR 01DC
ENCODING 476
SWIDTH 583 0
DWIDTH 14 0
BBX 10 22 2 0
BITMAP
3000
3800
1800
0C00
0800
7380
7380
7380
0000
0000
C1C0
C1C0
C1C0
C1C0
C1C0
C1C0
C1C0
C1C0
E1C0
E1C0
7FC0
3DC0
ENDCHAR
STARTCHAR 01FA
ENCODING 506
SWIDTH 666 0
DWIDTH 16 0
BBX 14 28 1 0
BITMAP
0100
01C0
0380
0300
0000
0780
0CC0
0CC0
0CC0
0780
0000
0780
0780
0F80
0FC0
0CC0
1CC0
1CE0
1860
3870
3870
3FF0
7FF8
7038
6038
E01C
E01C
C01C
ENDCHAR
STARTCHAR 01FB
ENCODING 507
SWIDTH 541 0
DWIDTH 13 0
BBX 11 23 1 0
BITMAP
0200
0700
0600
0C00
0000
1E00
3300
3100
3300
1E00
0000
1F00
7F80
E1C0
01C0
00C0
3FC0
7FC0
E0C0
E0C0
E1C0
FEE0
3C60
ENDCHAR
STARTCHAR 01FC
ENCODING 508
SWIDTH 916 0
DWIDTH 22 0
BBX 21 23 0 0
BITMAP
000180
0003C0
000380
000700
000200
000000
00FFF8
00FFF8
01F800
01B800
03B800
033800
073800
063FF0
0E3FF0
0C3800
1FF800
1FF800
383800
303800
703800
603FF8
E03FF8
ENDCHAR
STARTCHAR 01FD
ENCODING 509
SWIDTH 875 0
DWIDTH 21 0
BBX 19 19 1 0
BITMAP
002000
007000
006000
00C000
00C000
000000
000000
3E1F00
7F3F80
E1E1C0
41C0C0
00C0E0
3FFFE0
7FFFE0
E0C000
E0C080
E160C0
7F7FC0
3C1F00
ENDCHAR
STARTCHAR 01FE
ENCODING 510
SWIDTH 708 0
DWIDTH 17 0
BBX 15 24 1 -1
BITMAP
00C0
00E0
01C0
0180
0300
0008
07CE
1FFC
3C78
703C
707C
60EC
E0CE
E18E
E38E
E30E
E60E
6E0C
7C1C
781C
3C38
7FF0
67C0
2000
ENDCHAR
STARTCHAR 01FF
ENCODING 511
SWIDTH 583 0
DWIDTH 14 0
BBX 12 20 1 -1
BITMAP
0300
0380
0700
0600
0C00
0000
0020
1F70
3FE0
70E0
61E0
E360
E670
EE70
FC60
7860
70E0
7FC0
DF00
8000
ENDCHAR
STARTCHAR 0218
ENCODING 536
SWIDTH 583 0
DWIDTH 14 0
BBX 12 23 1 -6
BITMAP
1F80
3FE0
70F0
6020
E000
6000
7000
3F00
1FC0
01E0
0070
0070
0070
6070
F0F0
7FE0
1F80
0000
0600
0600
0600
0600
0C00
ENDCHAR
STARTCHAR 0219
ENCODING 537
SWIDTH 500 0
DWIDTH 12 0
BBX 10 18 1 -6
BITMAP
3F00
7F80
E1C0
E000
F000
7F00
3F80
01C0
41C0
E1C0
FF80
3F00
0000
0C00
1C00
0C00
0C00
1800
ENDCHAR
STARTCHAR 021A
ENCODING 538
SWIDTH 583 0
DWIDTH 14 0
BBX 12 23 1 -6
BITMAP
FFF0
FFF0
0600
0600
0600
0600
0600
0600
0600
0600
0600
0600
0600
0600
0600
0600
0600
0000
0600
0E00
0600
0600
0C00
ENDCHAR
STARTCHAR 021B
ENCODING 539
SWIDTH 375 0
DWIDTH 9 0
BBX 7 22 1 -6
BITMAP
30
30
30
30
FE
FE
30
30
30
30
30
30
30
30
3E
3E
00
18
1C
1C
08
38
ENDCHAR
STARTCHAR 0237
ENCODING 567
SWIDTH 250 0
DWIDTH 6 0
BBX 4 17 0 -5
BITMAP
30
30
30
30
30
30
30
30
30
30
30
30
30
30
30
F0
E0
ENDCHAR
STARTCHAR 0259
ENCODING 601
SWIDTH 541 0
DWIDTH 13 0
BBX 11 12 1 0
BITMAP
1F00
7FC0
61C0
40E0
0060
FFE0
FFE0
E060
E0E0
71C0
3FC0
1F00
ENDCHAR
STARTCHAR 02BB
ENCODING 699
SWIDTH 583 0
DWIDTH 14 0
BBX 3 5 6 14
BITMAP
60
C0
C0
E0
C0
ENDCHAR
STARTCHAR 02BC
ENCODING 700
SWIDTH 583 0
DWIDTH 14 0
BBX 3 5 6 13
BITMAP
E0
C0
C0
C0
80
ENDCHAR
STARTCHAR 02C6
ENCODING 710
SWIDTH 583 0
DWIDTH 14 0
BBX 8 5 3 14
BITMAP
3C
3E
76
E3
41
ENDCHAR
STARTCHAR 02C7
ENCODING 711
SWIDTH 583 0
DWIDTH 14 0
BBX 8 5 3 14
BITMAP
41
E3
76
3E
3C
ENDCHAR
STARTCHAR 02D8
ENCODING 728
SWIDTH 583 0
DWIDTH 14 0
BBX 8 4 3 14
BITMAP
43
E3
7E
3C
ENDCHAR
STARTCHAR 02D9
ENCODING 729
SWIDTH 583 0
DWIDTH 14 0
BBX 3 3 6 15
BITMAP
E0
E0
E0
ENDCHAR
STARTCHAR 02DA
ENCODING 730
SWIDTH 583 0
DWIDTH 14 0
BBX 6 6 4 14
BITMAP
78
CC
C4
CC
CC
78
ENDCHAR
STARTCHAR 02DB
ENCODING 731
SWIDTH 583 0
DWIDTH 14 0
BBX 5 6 3 -5
BITMAP
10
38
60
C0
C8
78
ENDCHAR
STARTCHAR 02DC
ENCODING 732
SWIDTH 583 0
DWIDTH 14 0
BBX 8 3 3 15
BITMAP
71
FF
8F
ENDCHAR
STARTCHAR 02DD
ENCODING 733
SWIDTH 583 0
DWIDTH 14 0
BBX 8 5 4 14
BITMAP
22
77
66
CE
CC
ENDCHAR
STARTCHAR 0300
ENCODING 768
SWIDTH 0 0
DWIDTH 0 0
BBX 4 5 -3 14
BITMAP
60
E0
70
30
30
ENDCHAR
STARTCHAR 0301
ENCODING 769
SWIDTH 0 0
DWIDTH 0 0
BBX 4 5 -1 14
BITMAP
20
70
60
C0
C0
ENDCHAR
STARTCHAR 0302
ENCODING 770
SWIDTH 0 0
DWIDTH 0 0
BBX 8 5 -4 14
BITMAP
3C
3C
7E
E7
43
ENDCHAR
STARTCHAR 0303
ENCODING 771
SWIDTH 0 0
DWIDTH 0 0
BBX 8 3 -4 15
BITMAP
71
FF
8E
ENDCHAR
STARTCHAR 0304
ENCODING 772
SWIDTH 0 0
DWIDTH 0 0
BBX 7 2 -3 15
BITMAP
FE
FE
ENDCHAR
STARTCHAR 0306
ENCODING 774
SWIDTH 0 0
DWIDTH 0 0
BBX 8 4 -4 14
BITMAP
C3
E7
7E
3C
ENDCHAR
STARTCHAR 0307
ENCODING 775
SWIDTH 0 0
DWIDTH 0 0
BBX 4 3 -2 15
BITMAP
60
F0
60
ENDCHAR
STARTCHAR 0308
ENCODING 776
SWIDTH 0 0
DWIDTH 0 0
BBX 8 3 -4 15
BITMAP
E7
E7
E7
ENDCHAR
STARTCHAR 0309
ENCODING 777
SWIDTH 0 0
DWIDTH 0 0
BBX 5 5 -2 13
BITMAP
F0
F8
30
30
60
ENDCHAR
STARTCHAR 030A
ENCODING 778
SWIDTH 0 0
DWIDTH 0 0
BBX 6 6 -3 14
BITMAP
78
CC
CC
CC
CC
78
ENDCHAR
STARTCHAR 030B
ENCODING 779
SWIDTH 0 0
DWIDTH 0 0
BBX 8 5 -3 14
BITMAP
22
77
66
CC
8C
ENDCHAR
STARTCHAR 030C
ENCODING 780
SWIDTH 0 0
DWIDTH 0 0
BBX 8 5 -4 14
BITMAP
43
E7
76
3C
3C
ENDCHAR
STARTCHAR 0312
ENCODING 786
SWIDTH 0 0
DWIDTH 0 0
BBX 3 5 -1 14
BITMAP
60
C0
C0
C0
C0
ENDCHAR
STARTCHAR 0315
ENCODING 789
SWIDTH 0 0
DWIDTH 0 0
BBX 3 5 0 13
BITMAP
E0
E0
C0
C0
C0
ENDCHAR
STARTCHAR 031B
ENCODING 795
SWIDTH 0 0
DWIDTH 0 0
BBX 4 5 -2 10
BITMAP
30
30
30
F0
F0
ENDCHAR
STARTCHAR 0323
ENCODING 803
SWIDTH 0 0
DWIDTH 0 0
BBX 4 3 -2 -4
BITMAP
60
F0
60
ENDCHAR
STARTCHAR 0326
ENCODING 806
SWIDTH 0 0
DWIDTH 0 0
BBX 3 5 -2 -6
BITMAP
60
60
60
60
C0
ENDCHAR
STARTCHAR 0327
ENCODING 807
SWIDTH 0 0
DWIDTH 0 0
BBX 5 5 -2 -5
BITMAP
60
78
18
98
F0
ENDCHAR
STARTCHAR 0328
ENCODING 808
SWIDTH 0 0
DWIDTH 0 0
BBX 5 6 -4 -5
BITMAP
30
60
C0
C0
D0
F8
ENDCHAR
STARTCHAR 037E
ENCODING 894
SWIDTH 291 0
DWIDTH 7 0
BBX 4 16 1 -3
BITMAP
70
70
70
70
00
00
00
00
00
70
70
70
70
30
60
E0
ENDCHAR
STARTCHAR 0384
ENCODING 900
SWIDTH 583 0
DWIDTH 14 0
BBX 4 5 6 14
BITMAP
70
60
60
60
C0
ENDCHAR
STARTCHAR 0385
ENCODING 901
SWIDTH 583 0
DWIDTH 14 0
BBX 9 5 3 14
BITMAP
0C00
CD80
EB80
C980
1800
ENDCHAR
STARTCHAR 0386
ENCODING 902
SWIDTH 666 0
DWIDTH 16 0
BBX 14 19 1 0
BITMAP
6000
E000
C780
C780
CF80
0FC0
0CC0
1CC0
1CE0
1860
3870
3870
3FF0
7FF8
7038
6038
E01C
E01C
C01C
ENDCHAR
STARTCHAR 0387
ENCODING 903
SWIDTH 291 0
DWIDTH 7 0
BBX 3 4 2 9
BITMAP
E0
E0
E0
E0
ENDCHAR
STARTCHAR 0388
ENCODING 904
SWIDTH 666 0
DWIDTH 16 0
BBX 14 19 0 0
BITMAP
E000
C000
DFFC
DFFC
9C00
1C00
1C00
1C00
1C00
1FF8
1FF8
1C00
1C00
1C00
1C00
1C00
1C00
1FFC
1FFC
ENDCHAR
STARTCHAR 0389
ENCODING 905
SWIDTH 750 0
DWIDTH 18 0
BBX 16 19 0 0
BITMAP
E000
C000
DC03
DC03
9C03
1C03
1C03
1C03
1C03
1FFF
1FFF
1C03
1C03
1C03
1C03
1C03
1C03
1C03
1C03
ENDCHAR
STARTCHAR 038A
ENCODING 906
SWIDTH 500 0
DWIDTH 12 0
BBX 11 19 0 0
BITMAP
E000
C000
DFE0
DFE0
8300
0300
0300
0300
0300
0300
0300
0300
0300
0300
0300
0300
0300
1FE0
1FE0
ENDCHAR
STARTCHAR 038C
ENCODING 908
SWIDTH 750 0
DWIDTH 18 0
BBX 16 19 0 0
BITMAP
E000
C000
C3F0
CFFC
8E1E
1C0E
3807
3807
3807
3807
3807
3807
3807
3807
3807
1C0E
0E1E
0FFC
03F0
ENDCHAR
STARTCHAR 038E
ENCODING 910
SWIDTH 708 0
DWIDTH 17 0
BBX 17 19 0 0
BITMAP
E00000
C00000
DC0380
CE0700
8E0700
070E00
070E00
039C00
039C00
01F800
01F800
00F000
006000
006000
006000
006000
006000
006000
006000
ENDCHAR
STARTCHAR 038F
ENCODING 911
SWIDTH 750 0
DWIDTH 18 0
BBX 16 19 0 0
BITMAP
E000
C000
C3F0
C7FC
8E1E
1C0E
3807
3807
3807
3807
3807
3807
3807
1807
1C0E
0E1C
0738
3F3F
3F3F
ENDCHAR
STARTCHAR 0390
ENCODING 912
SWIDTH 291 0
DWIDTH 7 0
BBX 9 19 -1 0
BITMAP
0C00
CD80
EB80
C980
1800
0000
0000
1800
1800
1800
1800
1800
1800
1800
1800
1800
1800
1F00
0F00
ENDCHAR
STARTCHAR 0391
ENCODING 913
SWIDTH 666 0
DWIDTH 16 0
BBX 14 17 1 0
BITMAP
0780
0780
0F80
0FC0
0CC0
1CC0
1CE0
1860
3870
3870
3FF0
7FF8
7038
6038
E01C
E01C
C01C
ENDCHAR
STARTCHAR 0392
ENCODING 914
SWIDTH 666 0
DWIDTH 16 0
BBX 13 17 2 0
BITMAP
FFC0
FFE0
E0F0
E070
E070
E070
E0E0
FFC0
FFE0
E070
E030
E038
E038
E030
E070
FFE0
FFC0
ENDCHAR
STARTCHAR 0393
ENCODING 915
SWIDTH 500 0
DWIDTH 12 0
BBX 10 17 2 0
BITMAP
FFC0
FFC0
E000
E000
E000
E000
E000
E000
E000
E000
E000
E000
E000
E000
E000
E000
E000
ENDCHAR
STARTCHAR 0394
ENCODING 916
SWIDTH 666 0
DWIDTH 16 0
BBX 14 17 1 0
BITMAP
0780
0780
0F80
0FC0
0CC0
1CE0
1CE0
1860
3870
3870
3070
7038
7038
6038
E01C
FFFC
FFFC
ENDCHAR
STARTCHAR 0395
ENCODING 917
SWIDTH 583 0
DWIDTH 14 0
BBX 11 17 2 0
BITMAP
FFE0
FFE0
E000
E000
E000
E000
E000
FFC0
FFC0
E000
E000
E000
E000
E000
E000
FFE0
FFE0
ENDCHAR
STARTCHAR 0396
ENCODING 918
SWIDTH 583 0
DWIDTH 14 0
BBX 12 17 1 0
BITMAP
FFF0
FFF0
0070
00E0
01C0
01C0
0380
0700
0F00
0E00
1C00
3800
3800
7000
E000
FFF0
FFF0
ENDCHAR
STARTCHAR 0397
ENCODING 919
SWIDTH 708 0
DWIDTH 17 0
BBX 13 17 2 0
BITMAP
E038
E038
E038
E038
E038
E038
E038
FFF8
FFF8
E038
E038
E038
E038
E038
E038
E038
E038
ENDCHAR
STARTCHAR 0398
ENCODING 920
SWIDTH 708 0
DWIDTH 17 0
BBX 15 17 1 0
BITMAP
07C0
1FF0
3838
701C
701C
600E
E00E
E7EE
E7EE
E00E
E00E
600E
701C
701C
3C38
1FF0
07C0
ENDCHAR
STARTCHAR 0399
ENCODING 921
SWIDTH 416 0
DWIDTH 10 0
BBX 8 17 1 0
BITMAP
FF
FF
18
18
18
18
18
18
18
18
18
18
18
18
18
FF
FF
ENDCHAR
STARTCHAR 039A
ENCODING 922
SWIDTH 666 0
DWIDTH 16 0
BBX 13 17 2 0
BITMAP
E078
E070
E0E0
E1C0
E380
E700
EF00
EE00
FF00
FF80
F380
E1C0
E1C0
E0E0
E070
E070
E038
ENDCHAR
STARTCHAR 039B
ENCODING 923
SWIDTH 666 0
DWIDTH 16 0
BBX 14 17 1 0
BITMAP
0780
0780
0F80
0DC0
0DC0
1CC0
1CE0
18E0
3860
3870
3070
7070
7038
6038
E038
E01C
C01C
ENDCHAR
STARTCHAR 039C
ENCODING 924
SWIDTH 833 0
DWIDTH 20 0
BBX 15 17 2 0
BITMAP
F00E
F00E
F81E
F81E
F83E
FC36
EC76
EE66
E6E6
E7C6
E3C6
E386
E186
E106
E006
E006
E006
ENDCHAR
STARTCHAR 039D
ENCODING 925
SWIDTH 708 0
DWIDTH 17 0
BBX 13 17 2 0
BITMAP
E038
F038
F838
F838
FC38
EC38
EE38
E638
E738
E3B8
E3B8
E1F8
E1F8
E0F8
E078
E078
E038
ENDCHAR
STARTCHAR 039E
ENCODING 926
SWIDTH 583 0
DWIDTH 14 0
BBX 12 17 1 0
BITMAP
FFF0
FFF0
0000
0000
0000
0000
0000
3FE0
3FE0
0000
0000
0000
0000
0000
0000
FFF0
FFF0
ENDCHAR
STARTCHAR 039F
ENCODING 927
SWIDTH 708 0
DWIDTH 17 0
BBX 15 17 1 0
BITMAP
07C0
1FF0
3C38
701C
701C
600C
E00E
E00E
E00E
E00E
E00E
600C
701C
701C
3838
1FF0
07C0
ENDCHAR
STARTCHAR 03A0
ENCODING 928
SWIDTH 708 0
DWIDTH 17 0
BBX 13 17 2 0
BITMAP
FFF8
FFF8
E038
E038
E038
E038
E038
E038
E038
E038
E038
E038
E038
E038
E038
E038
E038
ENDCHAR
STARTCHAR 03A1
ENCODING 929
SWIDTH 625 0
DWIDTH 15 0
BBX 12 17 2 0
BITMAP
FFC0
FFE0
E070
E070
E070
E070
E070
E070
FFE0
FFC0
E000
E000
E000
E000
E000
E000
E000
ENDCHAR
STARTCHAR 03A3
ENCODING 931
SWIDTH 583 0
DWIDTH 14 0
BBX 12 17 1 0
BITMAP
FFF0
FFF0
7000
7800
3C00
1E00
0E00
0700
0380
0700
0E00
1C00
3800
7000
F000
FFF0
FFF0
ENDCHAR
STARTCHAR 03A4
ENCODING 932
SWIDTH 583 0
DWIDTH 14 0
BBX 12 17 1 0
BITMAP
FFF0
FFF0
0600
0600
0600
0600
0600
0600
0600
0600
0600
0600
0600
0600
0600
0600
0600
ENDCHAR
STARTCHAR 03A5
ENCODING 933
SWIDTH 625 0
DWIDTH 15 0
BBX 15 17 0 0
BITMAP
F01E
701C
3838
3838
1C70
1C70
0EE0
0EC0
07C0
0780
0380
0380
0380
0380
0380
0380
0380
ENDCHAR
STARTCHAR 03A6
ENCODING 934
SWIDTH 833 0
DWIDTH 20 0
BBX 18 19 1 -1
BITMAP
00E000
00E000
07FC00
1FFF00
38E780
70E380
60E1C0
E0E1C0
E0E1C0
E0E1C0
E0E1C0
E0E1C0
60E1C0
70E380
38E780
1FFF00
0FFC00
00E000
00E000
ENDCHAR
STARTCHAR 03A7
ENCODING 935
SWIDTH 625 0
DWIDTH 15 0
BBX 15 17 0 0
BITMAP
701E
381C
3838
1C70
0E70
0EE0
07C0
07C0
0380
07C0
06E0
0EE0
1C70
1C38
3838
701C
F01E
ENDCHAR
STARTCHAR 03A8
ENCODING 936
SWIDTH 791 0
DWIDTH 19 0
BBX 16 17 2 0
BITMAP
C387
C387
C387
C387
C387
C387
C387
E387
E38E
739E
3FFC
1FF0
0380
0380
0380
0380
0380
ENDCHAR
STARTCHAR 03A9
ENCODING 937
SWIDTH 708 0
DWIDTH 17 0
BBX 15 17 1 0
BITMAP
07C0
1FF0
3C38
701C
701C
600E
600E
E00E
E00E
600E
700E
701C
301C
3838
0C70
FC7E
FC7E
ENDCHAR
STARTCHAR 03AA
ENCODING 938
SWIDTH 416 0
DWIDTH 10 0
BBX 8 22 1 0
BITMAP
E7
E7
E7
00
00
FF
FF
18
18
18
18
18
18
18
18
18
18
18
18
18
FF
FF
ENDCHAR
STARTCHAR 03AB
ENCODING 939
SWIDTH 625 0
DWIDTH 15 0
BBX 15 22 0 0
BITMAP
0C60
1EE0
0C60
0000
0000
F01E
701C
3838
3838
1C70
1C70
0EE0
0EC0
07C0
0780
0380
0380
0380
0380
0380
0380
0380
ENDCHAR
STARTCHAR 03AC
ENCODING 940
SWIDTH 666 0
DWIDTH 16 0
BBX 14 19 1 0
BITMAP
0700
0700
0600
0600
0600
0000
0000
1E1C
3FB8
71B8
E1F0
E0F0
E0E0
E0E0
E0F0
E1B0
71B0
3FBC
1E1C
ENDCHAR
STARTCHAR 03AD
ENCODING 941
SWIDTH 541 0
DWIDTH 13 0
BBX 11 19 1 0
BITMAP
0700
0700
0600
0600
0600
0000
0000
1F80
7FC0
70E0
6080
7000
3F00
7F00
E000
E040
E0E0
7FC0
3F00
ENDCHAR
STARTCHAR 03AE
ENCODING 942
SWIDTH 583 0
DWIDTH 14 0
BBX 11 24 1 -5
BITMAP
0380
0300
0300
0300
0600
0000
0000
E780
FFE0
78E0
7060
7060
7060
7060
7060
7060
7060
7060
7060
0060
0060
0060
0060
0060
ENDCHAR
STARTCHAR 03AF
ENCODING 943
SWIDTH 291 0
DWIDTH 7 0
BBX 5 19 2 0
BITMAP
70
60
60
60
C0
00
00
C0
C0
C0
C0
C0
C0
C0
C0
C0
C0
F8
78
ENDCHAR
STARTCHAR 03B0
ENCODING 944
SWIDTH 583 0
DWIDTH 14 0
BBX 10 19 2 0
BITMAP
0600
6D80
6DC0
6D80
0800
0000
0000
C1C0
C1C0
C1C0
C1C0
C1C0
C1C0
C1C0
C1C0
E1C0
E180
7F80
3E00
ENDCHAR
STARTCHAR 03B1
ENCODING 945
SWIDTH 666 0
DWIDTH 16 0
BBX 14 12 1 0
BITMAP
1E1C
3FB8
71B8
E1F0
E0F0
E0E0
E0E0
E0F0
E1B0
71B0
3FBC
1E1C
ENDCHAR
STARTCHAR 03B2
ENCODING 946
SWIDTH 583 0
DWIDTH 14 0
BBX 11 23 2 -5
BITMAP
1F00
7F80
61C0
E1C0
E0C0
C1C0
C180
CF00
CF80
C1C0
C0E0
C0E0
C0E0
C0E0
E0E0
E1C0
DFC0
CF00
C000
C000
C000
C000
C000
ENDCHAR
STARTCHAR 03B3
ENCODING 947
SWIDTH 500 0
DWIDTH 12 0
BBX 12 17 0 -5
BITMAP
E070
F070
3060
38E0
38C0
18C0
19C0
1D80
0D80
0F80
0F00
0700
0700
0700
0700
0700
0700
ENDCHAR
STARTCHAR 03B4
ENCODING 948
SWIDTH 541 0
DWIDTH 13 0
BBX 12 18 1 0
BITMAP
3FC0
3FC0
3800
3C00
0E00
0780
3FC0
71C0
60E0
E0E0
E060
E070
E060
E060
60E0
71E0
3FC0
1F00
ENDCHAR
STARTCHAR 03B5
ENCODING 949
SWIDTH 541 0
DWIDTH 13 0
BBX 11 12 1 0
BITMAP
1F80
7FC0
70E0
6080
7000
3F00
7F00
E000
E040
E0E0
7FC0
3F00
ENDCHAR
STARTCHAR 03B6
ENCODING 950
SWIDTH 416 0
DWIDTH 10 0
BBX 9 22 1 -4
BITMAP
FF80
FF80
0380
0700
0E00
1C00
1C00
3800
7000
7000
E000
E000
E000
E000
E000
7800
3F00
0F80
0380
0380
0300
0700
ENDCHAR
STARTCHAR 03B7
ENCODING 951
SWIDTH 583 0
DWIDTH 14 0
BBX 11 17 1 -5
BITMAP
E780
FFE0
78E0
7060
7060
7060
7060
7060
7060
7060
7060
7060
0060
0060
0060
0060
0060
ENDCHAR
STARTCHAR 03B8
ENCODING 952
SWIDTH 583 0
DWIDTH 14 0
BBX 11 18 1 0
BITMAP
1F00
3FC0
71C0
60E0
60E0
E060
E060
E060
FFE0
FFE0
E060
E060
E060
60E0
60E0
71C0
3FC0
1F00
ENDCHAR
STARTCHAR 03B9
ENCODING 953
SWIDTH 291 0
DWIDTH 7 0
BBX 5 12 2 0
BITMAP
C0
C0
C0
C0
C0
C0
C0
C0
C0
C0
F8
78
ENDCHAR
STARTCHAR 03BA
ENCODING 954
SWIDTH 541 0
DWIDTH 13 0
BBX 11 12 2 0
BITMAP
C1C0
C3C0
C700
CE00
DC00
DC00
FE00
E700
C700
C380
C1C0
C1E0
ENDCHAR
STARTCHAR 03BB
ENCODING 955
SWIDTH 541 0
DWIDTH 13 0
BBX 12 18 0 0
BITMAP
3800
3C00
0C00
0E00
0E00
0600
0700
0F00
0F00
1F80
1980
1980
39C0
31C0
30C0
70E0
60F0
E070
ENDCHAR
STARTCHAR 03BC
ENCODING 956
SWIDTH 583 0
DWIDTH 14 0
BBX 11 17 2 -5
BITMAP
C0C0
C0C0
C0C0
C0C0
C0C0
C0C0
C0C0
C0C0
E1C0
E1C0
FEE0
DC60
C000
C000
C000
C000
C000
ENDCHAR
STARTCHAR 03BD
ENCODING 957
SWIDTH 541 0
DWIDTH 13 0
BBX 12 12 0 0
BITMAP
E030
F070
3060
30E0
38E0
18C0
19C0
1D80
0D80
0F80
0F00
0700
ENDCHAR
STARTCHAR 03BE
ENCODING 958
SWIDTH 458 0
DWIDTH 11 0
BBX 9 22 1 -4
BITMAP
FF80
FF80
3800
7000
7000
7000
7000
3000
1F00
3F00
7000
E000
E000
E000
E000
7800
3F00
0F80
0380
0380
0300
0300
ENDCHAR
STARTCHAR 03BF
ENCODING 959
SWIDTH 583 0
DWIDTH 14 0
BBX 12 12 1 0
BITMAP
1F00
3FC0
70E0
E0E0
E060
E060
E070
E060
E0E0
70E0
3FC0
1F00
ENDCHAR
STARTCHAR 03C0
ENCODING 960
SWIDTH 625 0
DWIDTH 15 0
BBX 13 12 1 0
BITMAP
FFF8
FFF8
30E0
30E0
30E0
30E0
30E0
30E0
30E0
30E0
3078
3078
ENDCHAR
STARTCHAR 03C1
ENCODING 961
SWIDTH 583 0
DWIDTH 14 0
BBX 11 17 1 -5
BITMAP
1F80
3FC0
70E0
60E0
E060
E060
E060
E060
E0E0
F1E0
FFC0
EF80
E000
E000
E000
E000
E000
ENDCHAR
STARTCHAR 03C2
ENCODING 962
SWIDTH 500 0
DWIDTH 12 0
BBX 10 16 1 -4
BITMAP
1F00
3F80
71C0
E080
E000
E000
E000
E000
F000
7C00
3F80
0780
0180
0380
0380
0100
ENDCHAR
STARTCHAR 03C3
ENCODING 963
SWIDTH 583 0
DWIDTH 14 0
BBX 12 12 1 0
BITMAP
1FF0
3FF0
70C0
E0E0
E060
E060
E070
E060
E0E0
70E0
3FC0
1F00
ENDCHAR
STARTCHAR 03C4
ENCODING 964
SWIDTH 500 0
DWIDTH 12 0
BBX 11 12 0 0
BITMAP
FFE0
FFE0
0E00
0E00
0E00
0E00
0E00
0E00
0E00
0E00
0FC0
07C0
ENDCHAR
STARTCHAR 03C5
ENCODING 965
SWIDTH 583 0
DWIDTH 14 0
BBX 10 12 2 0
BITMAP
C1C0
C1C0
C1C0
C1C0
C1C0
C1C0
C1C0
C1C0
E1C0
E180
7F80
3E00
ENDCHAR
STARTCHAR 03C6
ENCODING 966
SWIDTH 750 0
DWIDTH 18 0
BBX 16 17 1 -5
BITMAP
1078
39FE
71CE
E186
E387
E387
E387
E386
638E
739E
3FFC
0FF0
0380
0380
0380
0380
0380
ENDCHAR
STARTCHAR 03C7
ENCODING 967
SWIDTH 500 0
DWIDTH 12 0
BBX 12 17 0 -5
BITMAP
F070
F060
38E0
18C0
1DC0
0D80
0F80
0F00
0700
0F00
0F80
1D80
19C0
38C0
30C0
70F0
E070
ENDCHAR
STARTCHAR 03C8
ENCODING 968
SWIDTH 750 0
DWIDTH 18 0
BBX 14 22 2 -5
BITMAP
0300
0300
0300
0300
0300
C31C
C31C
C31C
C31C
C31C
C31C
C31C
C31C
E31C
F338
7FF0
1FE0
0300
0300
0300
0300
0300
ENDCHAR
STARTCHAR 03C9
ENCODING 969
SWIDTH 750 0
DWIDTH 18 0
BBX 16 12 1 0
BITMAP
1008
381E
700E
E007
E187
E187
E187
E187
E187
73CE
7E7E
3C3C
ENDCHAR
STARTCHAR 03CA
ENCODING 970
SWIDTH 291 0
DWIDTH 7 0
BBX 8 18 -1 0
BITMAP
63
E7
63
00
00
00
18
18
18
18
18
18
18
18
18
18
1F
0F
ENDCHAR
STARTCHAR 03CB
ENCODING 971
SWIDTH 583 0
DWIDTH 14 0
BBX 10 18 2 0
BITMAP
7380
7380
7380
0000
0000
0000
C1C0
C1C0
C1C0
C1C0
C1C0
C1C0
C1C0
C1C0
E1C0
E180
7F80
3E00
ENDCHAR
STARTCHAR 03CC
ENCODING 972
SWIDTH 583 0
DWIDTH 14 0
BBX 12 19 1 0
BITMAP
0700
0700
0600
0600
0600
0000
0000
1F00
3FC0
70E0
E0E0
E060
E060
E070
E060
E0E0
70E0
3FC0
1F00
ENDCHAR
STARTCHAR 03CD
ENCODING 973
SWIDTH 583 0
DWIDTH 14 0
BBX 10 19 2 0
BITMAP
0600
0600
0E00
0C00
0C00
0000
0000
C1C0
C1C0
C1C0
C1C0
C1C0
C1C0
C1C0
C1C0
E1C0
E180
7F80
3E00
ENDCHAR
STARTCHAR 03CE
ENCODING 974
SWIDTH 750 0
DWIDTH 18 0
BBX 16 19 1 0
BITMAP
00C0
00C0
01C0
0180
0180
0000
0000
1008
381E
700E
E007
E187
E187
E187
E187
E187
73CE
7E7E
3C3C
ENDCHAR
STARTCHAR 0400
ENCODING 1024
SWIDTH 583 0
DWIDTH 14 0
BBX 11 23 2 0
BITMAP
1800
3800
1C00
0C00
0600
0000
FFE0
FFE0
E000
E000
E000
E000
E000
FFC0
FFC0
E000
E000
E000
E000
E000
E000
FFE0
FFE0
ENDCHAR
STARTCHAR 0401
ENCODING 1025
SWIDTH 583 0
DWIDTH 14 0
BBX 11 22 2 0
BITMAP
3180
7B80
3180
0000
0000
FFE0
FFE0
E000
E000
E000
E000
E000
FFC0
FFC0
E000
E000
E000
E000
E000
E000
FFE0
FFE0
ENDCHAR
STARTCHAR 0402
ENCODING 1026
SWIDTH 791 0
DWIDTH 19 0
BBX 17 21 1 -4
BITMAP
FFF000
FFF000
060000
060000
060000
060000
07FC00
07FE00
060700
060300
060380
060380
060380
060380
060380
060380
060380
000300
000700
001F00
001C00
ENDCHAR
STARTCHAR 0403
ENCODING 1027
SWIDTH 500 0
DWIDTH 12 0
BBX 10 23 2 0
BITMAP
0600
0700
0E00
0C00
1800
0000
FFC0
FFC0
E000
E000
E000
E000
E000
E000
E000
E000
E000
E000
E000
E000
E000
E000
E000
ENDCHAR
STARTCHAR 0404
ENCODING 1028
SWIDTH 666 0
DWIDTH 16 0
BBX 14 17 1 0
BITMAP
07E0
1FF0
3838
701C
7010
6000
E000
FFC0
FFC0
E000
E000
6000
7010
701C
3838
1FF0
0FE0
ENDCHAR
STARTCHAR 0405
ENCODING 1029
SWIDTH 583 0
DWIDTH 14 0
BBX 12 17 1 0
BITMAP
1F80
3FE0
70F0
6020
E000
6000
7000
3F00
1FC0
01E0
0070
0070
0070
6070
F0F0
7FE0
1F80
ENDCHAR
STARTCHAR 0406
ENCODING 1030
SWIDTH 416 0
DWIDTH 10 0
BBX 8 17 1 0
BITMAP
FF
FF
18
18
18
18
18
18
18
18
18
18
18
18
18
FF
FF
ENDCHAR
STARTCHAR 0407
ENCODING 1031
SWIDTH 416 0
DWIDTH 10 0
BBX 8 22 1 0
BITMAP
E7
E7
E7
00
00
FF
FF
18
18
18
18
18
18
18
18
18
18
18
18
18
FF
FF
ENDCHAR
STARTCHAR 0408
ENCODING 1032
SWIDTH 541 0
DWIDTH 13 0
BBX 10 17 1 0
BITMAP
3FC0
3FC0
01C0
01C0
01C0
01C0
01C0
01C0
01C0
01C0
01C0
01C0
01C0
C1C0
E380
7F80
3E00
ENDCHAR
STARTCHAR 0409
ENCODING 1033
SWIDTH 1041 0
DWIDTH 25 0
BBX 24 17 0 0
BITMAP
0FFC00
0FFC00
0E0C00
0E0C00
0E0C00
0E0C00
0E0C00
0E0FF8
0E0FFE
0E0C0E
0C0C07
0C0C07
1C0C07
1C0C07
180C0E
F80FFE
F00FF8
ENDCHAR
STARTCHAR 040A
ENCODING 1034
SWIDTH 1041 0
DWIDTH 25 0
BBX 22 17 2 0
BITMAP
E03800
E03800
E03800
E03800
E03800
E03800
E03800
E03FF0
FFFFF8
FFF83C
E0381C
E0381C
E0381C
E0381C
E0383C
E03FF8
E03FF0
ENDCHAR
STARTCHAR 040B
ENCODING 1035
SWIDTH 791 0
DWIDTH 19 0
BBX 17 17 1 0
BITMAP
FFF000
FFF000
060000
060000
060000
060000
07FC00
07FE00
060700
060380
060380
060380
060380
060380
060380
060380
060380
ENDCHAR
STARTCHAR 040C
ENCODING 1036
SWIDTH 666 0
DWIDTH 16 0
BBX 13 23 2 0
BITMAP
0100
0380
0300
0600
0600
0000
E038
E078
E0E0
E0C0
E1C0
E180
E380
E300
FF00
FF00
E380
E1C0
E1C0
E0E0
E0E0
E078
E038
ENDCHAR
STARTCHAR 040D
ENCODING 1037
SWIDTH 708 0
DWIDTH 17 0
BBX 13 23 2 0
BITMAP
0400
1E00
0600
0700
0200
0000
E038
E038
E078
E0F8
E0D8
E1D8
E3B8
E3B8
E738
E638
EE38
FC38
F838
F838
F038
E038
E038
ENDCHAR
STARTCHAR 040E
ENCODING 1038
SWIDTH 625 0
DWIDTH 15 0
BBX 14 22 0 0
BITMAP
0C60
1C70
0FE0
07C0
0000
F01C
701C
3018
3838
3830
1C70
1C70
0E60
0EE0
07C0
07C0
03C0
0380
0380
0300
1F00
1E00
ENDCHAR
STARTCHAR 040F
ENCODING 1039
SWIDTH 708 0
DWIDTH 17 0
BBX 13 21 2 -4
BITMAP
E038
E038
E038
E038
E038
E038
E038
E038
E038
E038
E038
E038
E038
E038
E038
FFF8
FFF8
0700
0700
0700
0700
ENDCHAR
STARTCHAR 0410
ENCODING 1040
SWIDTH 666 0
DWIDTH 16 0
BBX 14 17 1 0
BITMAP
0780
0780
0F80
0FC0
0CC0
1CC0
1CE0
1860
3870
3870
3FF0
7FF8
7038
6038
E01C
E01C
C01C
ENDCHAR
STARTCHAR 0411
ENCODING 1041
SWIDTH 625 0
DWIDTH 15 0
BBX 12 17 2 0
BITMAP
FFE0
FFE0
E000
E000
E000
E000
E000
FFC0
FFE0
E070
E070
E070
E070
E070
E070
FFE0
FFC0
ENDCHAR
STARTCHAR 0412
ENCODING 1042
SWIDTH 666 0
DWIDTH 16 0
BBX 13 17 2 0
BITMAP
FFC0
FFE0
E0F0
E070
E070
E070
E0E0
FFC0
FFE0
E070
E030
E038
E038
E030
E070
FFE0
FFC0
ENDCHAR
STARTCHAR 0413
ENCODING 1043
SWIDTH 500 0
DWIDTH 12 0
BBX 10 17 2 0
BITMAP
FFC0
FFC0
E000
E000
E000
E000
E000
E000
E000
E000
E000
E000
E000
E000
E000
E000
E000
ENDCHAR
STARTCHAR 0414
ENCODING 1044
SWIDTH 750 0
DWIDTH 18 0
BBX 18 21 0 -4
BITMAP
0FFE00
0FFE00
0E0E00
0E0E00
0E0E00
0E0E00
0E0E00
0E0E00
0E0E00
0E0E00
0E0E00
0C0E00
1C0E00
1C0E00
380E00
FFFFC0
FFFFC0
E001C0
E001C0
E001C0
E001C0
ENDCHAR
STARTCHAR 0415
ENCODING 1045
SWIDTH 583 0
DWIDTH 14 0
BBX 11 17 2 0
BITMAP
FFE0
FFE0
E000
E000
E000
E000
E000
FFC0
FFC0
E000
E000
E000
E000
E000
E000
FFE0
FFE0
ENDCHAR
STARTCHAR 0416
ENCODING 1046
SWIDTH 1000 0
DWIDTH 24 0
BBX 22 17 1 0
BITMAP
E03038
F03038
383070
183060
1830E0
1C30E0
0C31C0
0E31C0
07FF80
07FF80
0E31C0
1C30C0
1C30E0
383070
383070
F0303C
E0301C
ENDCHAR
STARTCHAR 0417
ENCODING 1047
SWIDTH 583 0
DWIDTH 14 0
BBX 12 17 1 0
BITMAP
1F80
7FE0
F0E0
6070
0070
0070
00E0
1FC0
1FC0
00E0
0070
0070
0070
4070
F0E0
7FE0
1F80
ENDCHAR
STARTCHAR 0418
ENCODING 1048
SWIDTH 708 0
DWIDTH 17 0
BBX 13 17 2 0
BITMAP
E038
E038
E078
E0F8
E0D8
E1D8
E3B8
E3B8
E738
E638
EE38
FC38
F838
F838
F038
E038
E038
ENDCHAR
STARTCHAR 0419
ENCODING 1049
SWIDTH 708 0
DWIDTH 17 0
BBX 13 22 2 0
BITMAP
18C0
38E0
1FC0
0F80
0000
E038
E038
E078
E0F8
E0D8
E1D8
E3B8
E3B8
E738
E638
EE38
FC38
F838
F838
F038
E038
E038
ENDCHAR
STARTCHAR 041A
ENCODING 1050
SWIDTH 666 0
DWIDTH 16 0
BBX 13 17 2 0
BITMAP
E038
E078
E0E0
E0C0
E1C0
E180
E380
E300
FF00
FF00
E380
E1C0
E1C0
E0E0
E0E0
E078
E038
ENDCHAR
STARTCHAR 041B
ENCODING 1051
SWIDTH 708 0
DWIDTH 17 0
BBX 15 17 0 0
BITMAP
0FFE
0FFE
0E0E
0E0E
0E0E
0E0E
0E0E
0E0E
0E0E
0E0E
0C0E
0C0E
1C0E
1C0E
180E
F80E
F00E
ENDCHAR
STARTCHAR 041C
ENCODING 1052
SWIDTH 833 0
DWIDTH 20 0
BBX 15 17 2 0
BITMAP
F00E
F00E
F81E
F81E
F83E
FC36
EC76
EE66
E6E6
E7C6
E3C6
E386
E186
E106
E006
E006
E006
ENDCHAR
STARTCHAR 041D
ENCODING 1053
SWIDTH 708 0
DWIDTH 17 0
BBX 13 17 2 0
BITMAP
E038
E038
E038
E038
E038
E038
E038
FFF8
FFF8
E038
E038
E038
E038
E038
E038
E038
E038
ENDCHAR
STARTCHAR 041E
ENCODING 1054
SWIDTH 708 0
DWIDTH 17 0
BBX 15 17 1 0
BITMAP
07C0
1FF0
3C38
701C
701C
600C
E00E
E00E
E00E
E00E
E00E
600C
701C
701C
3838
1FF0
07C0
ENDCHAR
STARTCHAR 041F
ENCODING 1055
SWIDTH 708 0
DWIDTH 17 0
BBX 13 17 2 0
BITMAP
FFF8
FFF8
E038
E038
E038
E038
E038
E038
E038
E038
E038
E038
E038
E038
E038
E038
E038
ENDCHAR
STARTCHAR 0420
ENCODING 1056
SWIDTH 625 0
DWIDTH 15 0
BBX 12 17 2 0
BITMAP
FFC0
FFE0
E070
E070
E070
E070
E070
E070
FFE0
FFC0
E000
E000
E000
E000
E000
E000
E000
ENDCHAR
STARTCHAR 0421
ENCODING 1057
SWIDTH 625 0
DWIDTH 15 0
BBX 13 17 1 0
BITMAP
07C0
1FF0
3878
7038
7020
6000
E000
E000
E000
E000
E000
6000
7010
7038
3878
1FF0
07C0
ENDCHAR
STARTCHAR 0422
ENCODING 1058
SWIDTH 583 0
DWIDTH 14 0
BBX 12 17 1 0
BITMAP
FFF0
FFF0
0600
0600
0600
0600
0600
0600
0600
0600
0600
0600
0600
0600
0600
0600
0600
ENDCHAR
STARTCHAR 0423
ENCODING 1059
SWIDTH 625 0
DWIDTH 15 0
BBX 14 17 0 0
BITMAP
F01C
701C
3018
3838
3830
1C70
1C70
0E60
0EE0
07C0
07C0
03C0
0380
0380
0300
1F00
1E00
ENDCHAR
STARTCHAR 0424
ENCODING 1060
SWIDTH 875 0
DWIDTH 21 0
BBX 19 18 1 -1
BITMAP
00E000
00E000
0FFE00
1FFF00
38E380
70E1C0
E0E0C0
E0E0E0
E0E0E0
E0E0E0
E0E0E0
E0E0C0
70E1C0
38E380
1FFF00
0FFE00
00E000
00E000
ENDCHAR
STARTCHAR 0425
ENCODING 1061
SWIDTH 625 0
DWIDTH 15 0
BBX 15 17 0 0
BITMAP
701E
381C
3838
1C70
0E70
0EE0
07C0
07C0
0380
07C0
06E0
0EE0
1C70
1C38
3838
701C
F01E
ENDCHAR
STARTCHAR 0426
ENCODING 1062
SWIDTH 750 0
DWIDTH 18 0
BBX 15 21 2 -4
BITMAP
E038
E038
E038
E038
E038
E038
E038
E038
E038
E038
E038
E038
E038
E038
E038
FFFE
FFFE
0006
0006
0006
0006
ENDCHAR
STARTCHAR 0427
ENCODING 1063
SWIDTH 666 0
DWIDTH 16 0
BBX 13 17 1 0
BITMAP
E038
E038
E038
E038
E038
E038
E038
7038
7038
3FF8
1FF8
0038
0038
0038
0038
0038
0038
ENDCHAR
STARTCHAR 0428
ENCODING 1064
SWIDTH 1000 0
DWIDTH 24 0
BBX 20 17 2 0
BITMAP
E0E070
E0E070
E0E070
E0E070
E0E070
E0E070
E0E070
E0E070
E0E070
E0E070
E0E070
E0E070
E0E070
E0E070
E0E070
FFFFF0
FFFFF0
ENDCHAR
STARTCHAR 0429
ENCODING 1065
SWIDTH 1041 0
DWIDTH 25 0
BBX 22 21 2 -4
BITMAP
E0E070
E0E070
E0E070
E0E070
E0E070
E0E070
E0E070
E0E070
E0E070
E0E070
E0E070
E0E070
E0E070
E0E070
E0E070
FFFFFC
FFFFFC
00000C
00000C
00000C
00000C
ENDCHAR
STARTCHAR 042A
ENCODING 1066
SWIDTH 750 0
DWIDTH 18 0
BBX 16 17 1 0
BITMAP
FC00
FC00
0C00
0C00
0C00
0C00
0C00
0FFC
0FFE
0C0F
0C07
0C07
0C07
0C07
0C0F
0FFE
0FFC
ENDCHAR
STARTCHAR 042B
ENCODING 1067
SWIDTH 916 0
DWIDTH 22 0
BBX 18 17 2 0
BITMAP
E001C0
E001C0
E001C0
E001C0
E001C0
E001C0
E001C0
FFC1C0
FFE1C0
E071C0
E071C0
E071C0
E071C0
E071C0
E071C0
FFE1C0
FFC1C0
ENDCHAR
STARTCHAR 042C
ENCODING 1068
SWIDTH 625 0
DWIDTH 15 0
BBX 13 17 2 0
BITMAP
E000
E000
E000
E000
E000
E000
E000
FFC0
FFE0
E070
E030
E038
E038
E030
E070
FFE0
FFC0
ENDCHAR
STARTCHAR 042D
ENCODING 1069
SWIDTH 666 0
DWIDTH 16 0
BBX 13 17 1 0
BITMAP
1F80
7FE0
F0F0
E070
4038
0038
0038
0FF8
0FF8
0038
0038
0038
4038
E070
F0F0
7FE0
1F80
ENDCHAR
STARTCHAR 042E
ENCODING 1070
SWIDTH 1000 0
DWIDTH 24 0
BBX 20 17 2 0
BITMAP
E01F00
E07FC0
E0E1E0
E1C0E0
E18070
E18070
E38070
E38070
FF8070
FF8070
E38070
E38070
E18070
E1C0E0
E0E1E0
E07FC0
E03F00
ENDCHAR
STARTCHAR 042F
ENCODING 1071
SWIDTH 666 0
DWIDTH 16 0
BBX 13 17 1 0
BITMAP
1FF8
3FF8
7038
7038
6038
6038
7038
7038
3FF8
0FF8
0E38
1C38
1C38
3838
3838
F038
E038
ENDCHAR
STARTCHAR 0430
ENCODING 1072
SWIDTH 541 0
DWIDTH 13 0
BBX 11 12 1 0
BITMAP
1F00
7F80
E1C0
01C0
00C0
3FC0
7FC0
E0C0
E0C0
E1C0
FEE0
3C60
ENDCHAR
STARTCHAR 0431
ENCODING 1073
SWIDTH 583 0
DWIDTH 14 0
BBX 12 18 1 0
BITMAP
03E0
1FE0
3C00
7000
7000
6000
EF80
FFC0
F0E0
E0E0
E060
E070
E070
E060
60E0
70E0
3FC0
1F00
ENDCHAR
STARTCHAR 0432
ENCODING 1074
SWIDTH 583 0
DWIDTH 14 0
BBX 10 12 2 0
BITMAP
FF80
FFC0
C1C0
C1C0
C1C0
FF00
FF80
C1C0
C0C0
C1C0
FFC0
FF80
ENDCHAR
STARTCHAR 0433
ENCODING 1075
SWIDTH 458 0
DWIDTH 11 0
BBX 8 12 2 0
BITMAP
FF
FF
C0
C0
C0
C0
C0
C0
C0
C0
C0
C0
ENDCHAR
STARTCHAR 0434
ENCODING 1076
SWIDTH 625 0
DWIDTH 15 0
BBX 14 16 0 -4
BITMAP
1FF0
1FF0
1C30
1C30
1C30
1C30
1C30
1830
3830
3830
FFFC
FFFC
E00C
E00C
E00C
E00C
ENDCHAR
STARTCHAR 0435
ENCODING 1077
SWIDTH 541 0
DWIDTH 13 0
BBX 11 12 1 0
BITMAP
1F00
3FC0
71C0
E0E0
E060
FFE0
FFE0
E000
E080
70E0
3FC0
1F80
ENDCHAR
STARTCHAR 0436
ENCODING 1078
SWIDTH 791 0
DWIDTH 19 0
BBX 18 12 1 0
BITMAP
E1C380
F1C380
31C700
39C600
19CE00
1FFC00
1FFC00
19CE00
39C600
31C700
F1C3C0
E1C3C0
ENDCHAR
STARTCHAR 0437
ENCODING 1079
SWIDTH 500 0
DWIDTH 12 0
BBX 10 12 1 0
BITMAP
3F00
FF80
41C0
01C0
0180
1F00
1F80
01C0
41C0
E1C0
FF80
3F00
ENDCHAR
STARTCHAR 0438
ENCODING 1080
SWIDTH 583 0
DWIDTH 14 0
BBX 10 12 2 0
BITMAP
C0C0
C1C0
C3C0
C3C0
C6C0
CEC0
DCC0
D8C0
F8C0
F0C0
E0C0
E0C0
ENDCHAR
STARTCHAR 0439
ENCODING 1081
SWIDTH 583 0
DWIDTH 14 0
BBX 10 18 2 0
BITMAP
2100
7180
3F00
1E00
0000
0000
C0C0
C1C0
C3C0
C3C0
C6C0
CEC0
DCC0
D8C0
F8C0
F0C0
E0C0
E0C0
ENDCHAR
STARTCHAR 043A
ENCODING 1082
SWIDTH 583 0
DWIDTH 14 0
BBX 11 12 2 0
BITMAP
C0C0
C1C0
C380
C300
C700
FE00
FE00
C700
C300
C380
C1E0
C0E0
ENDCHAR
STARTCHAR 043B
ENCODING 1083
SWIDTH 583 0
DWIDTH 14 0
BBX 12 12 0 0
BITMAP
1FF0
1FF0
1C30
1C30
1C30
1C30
1830
1830
1830
3830
F030
E030
ENDCHAR
STARTCHAR 043C
ENCODING 1084
SWIDTH 708 0
DWIDTH 17 0
BBX 13 12 2 0
BITMAP
E038
F078
F878
D8D8
DDD8
CD98
CF98
C718
C218
C218
C018
C018
ENDCHAR
STARTCHAR 043D
ENCODING 1085
SWIDTH 583 0
DWIDTH 14 0
BBX 10 12 2 0
BITMAP
C0C0
C0C0
C0C0
C0C0
C0C0
FFC0
FFC0
C0C0
C0C0
C0C0
C0C0
C0C0
ENDCHAR
STARTCHAR 043E
ENCODING 1086
SWIDTH 583 0
DWIDTH 14 0
BBX 12 12 1 0
BITMAP
1F00
3FC0
70E0
E0E0
E060
E060
E070
E060
E0E0
70E0
3FC0
1F00
ENDCHAR
STARTCHAR 043F
ENCODING 1087
SWIDTH 583 0
DWIDTH 14 0
BBX 10 12 2 0
BITMAP
FFC0
FFC0
C1C0
C1C0
C1C0
C1C0
C1C0
C1C0
C1C0
C1C0
C1C0
C1C0
ENDCHAR
STARTCHAR 0440
ENCODING 1088
SWIDTH 583 0
DWIDTH 14 0
BBX 11 17 2 -5
BITMAP
CF00
DFC0
E1C0
E0E0
C0E0
C0E0
C0E0
C0E0
E0E0
E1C0
DFC0
CF00
C000
C000
C000
C000
C000
ENDCHAR
STARTCHAR 0441
ENCODING 1089
SWIDTH 500 0
DWIDTH 12 0
BBX 11 12 1 0
BITMAP
1F00
3FC0
71C0
E0A0
E000
E000
E000
E000
E0C0
71E0
3FC0
1F00
ENDCHAR
STARTCHAR 0442
ENCODING 1090
SWIDTH 500 0
DWIDTH 12 0
BBX 11 12 0 0
BITMAP
FFE0
FFE0
0E00
0E00
0E00
0E00
0E00
0E00
0E00
0E00
0E00
0E00
ENDCHAR
STARTCHAR 0443
ENCODING 1091
SWIDTH 500 0
DWIDTH 12 0
BBX 12 17 0 -5
BITMAP
E070
6070
7060
30E0
30C0
38C0
19C0
1980
1D80
0F80
0F00
0F00
0700
0600
0E00
3C00
3C00
ENDCHAR
STARTCHAR 0444
ENCODING 1092
SWIDTH 791 0
DWIDTH 19 0
BBX 16 22 1 -5
BITMAP
01C0
01C0
01C0
01C0
01C0
3DDC
7FFE
71C7
E1C3
E1C3
E1C3
E1C3
E1C3
E1C3
71C7
7FFE
3DDC
01C0
01C0
01C0
01C0
01C0
ENDCHAR
STARTCHAR 0445
ENCODING 1093
SWIDTH 541 0
DWIDTH 13 0
BBX 12 12 0 0
BITMAP
7070
38E0
38C0
1DC0
0F80
0700
0F00
0F80
1DC0
38C0
30E0
F070
ENDCHAR
STARTCHAR 0446
ENCODING 1094
SWIDTH 625 0
DWIDTH 15 0
BBX 12 16 2 -4
BITMAP
C1C0
C1C0
C1C0
C1C0
C1C0
C1C0
C1C0
C1C0
C1C0
C1C0
FFF0
FFF0
0030
0030
0030
0030
ENDCHAR
STARTCHAR 0447
ENCODING 1095
SWIDTH 541 0
DWIDTH 13 0
BBX 10 12 1 0
BITMAP
E0C0
E0C0
E0C0
E0C0
E0C0
E1C0
7FC0
3EC0
00C0
00C0
00C0
00C0
ENDCHAR
STARTCHAR 0448
ENCODING 1096
SWIDTH 833 0
DWIDTH 20 0
BBX 16 12 2 0
BITMAP
C387
C387
C387
C387
C387
C387
C387
C387
C387
C387
FFFF
FFFF
ENDCHAR
STARTCHAR 0449
ENCODING 1097
SWIDTH 833 0
DWIDTH 20 0
BBX 18 16 2 -4
BITMAP
C38700
C38700
C38700
C38700
C38700
C38700
C38700
C38700
C38700
C38700
FFFFC0
FFFFC0
0001C0
0001C0
0001C0
0001C0
ENDCHAR
STARTCHAR 044A
ENCODING 1098
SWIDTH 625 0
DWIDTH 15 0
BBX 14 12 0 0
BITMAP
FC00
FC00
0C00
0C00
0FF0
0FF8
0C1C
0C1C
0C1C
0C1C
0FF8
0FF0
ENDCHAR
STARTCHAR 044B
ENCODING 1099
SWIDTH 750 0
DWIDTH 18 0
BBX 14 12 2 0
BITMAP
C00C
C00C
C00C
C00C
FF0C
FF8C
C1CC
C1CC
C1CC
C1CC
FF8C
FF0C
ENDCHAR
STARTCHAR 044C
ENCODING 1100
SWIDTH 541 0
DWIDTH 13 0
BBX 10 12 2 0
BITMAP
C000
C000
C000
C000
FF00
FF80
C1C0
C1C0
C1C0
C1C0
FF80
FF00
ENDCHAR
STARTCHAR 044D
ENCODING 1101
SWIDTH 541 0
DWIDTH 13 0
BBX 11 12 1 0
BITMAP
3E00
FF80
E1C0
41C0
00C0
1FC0
1FE0
00C0
41C0
E1C0
7F80
3E00
ENDCHAR
STARTCHAR 044E
ENCODING 1102
SWIDTH 791 0
DWIDTH 19 0
BBX 16 12 2 0
BITMAP
C0F8
C1FE
C38E
C707
C707
FF07
FF07
C707
C707
C38E
C1FE
C0F8
ENDCHAR
STARTCHAR 044F
ENCODING 1103
SWIDTH 541 0
DWIDTH 13 0
BBX 10 12 1 0
BITMAP
3FC0
7FC0
E0C0
E0C0
E0C0
E0C0
7FC0
1FC0
38C0
30C0
F0C0
E0C0
ENDCHAR
STARTCHAR 0450
ENCODING 1104
SWIDTH 541 0
DWIDTH 13 0
BBX 11 19 1 0
BITMAP
0800
1C00
0C00
0E00
0600
0000
0000
1F00
3FC0
71C0
E0E0
E060
FFE0
FFE0
E000
E080
70E0
3FC0
1F80
ENDCHAR
STARTCHAR 0451
ENCODING 1105
SWIDTH 541 0
DWIDTH 13 0
BBX 11 18 1 0
BITMAP
3980
39C0
3980
0000
0000
0000
1F00
3FC0
71C0
E0E0
E060
FFE0
FFE0
E000
E080
70E0
3FC0
1F80
ENDCHAR
STARTCHAR 0452
ENCODING 1106
SWIDTH 583 0
DWIDTH 14 0
BBX 12 23 0 -5
BITMAP
3000
FF00
FF00
3000
3000
3000
33C0
37E0
3870
3870
3030
3030
3030
3030
3030
3030
3030
3030
0030
0030
0030
00F0
00E0
ENDCHAR
STARTCHAR 0453
ENCODING 1107
SWIDTH 458 0
DWIDTH 11 0
BBX 8 19 2 0
BITMAP
0C
0E
1C
18
18
00
00
FF
FF
C0
C0
C0
C0
C0
C0
C0
C0
C0
C0
ENDCHAR
STARTCHAR 0454
ENCODING 1108
SWIDTH 541 0
DWIDTH 13 0
BBX 11 12 1 0
BITMAP
1F80
3FC0
70E0
E080
E000
FF00
FF00
E000
E040
70E0
3FC0
1F80
ENDCHAR
STARTCHAR 0455
ENCODING 1109
SWIDTH 500 0
DWIDTH 12 0
BBX 10 12 1 0
BITMAP
3F00
7F80
E1C0
E000
F000
7F00
3F80
01C0
41C0
E1C0
FF80
3F00
ENDCHAR
STARTCHAR 0456
ENCODING 1110
SWIDTH 250 0
DWIDTH 6 0
BBX 3 18 2 0
BITMAP
C0
E0
E0
C0
00
00
C0
C0
C0
C0
C0
C0
C0
C0
C0
C0
C0
C0
ENDCHAR
STARTCHAR 0457
ENCODING 1111
SWIDTH 250 0
DWIDTH 6 0
BBX 8 18 -1 0
BITMAP
67
E7
67
00
00
00
18
18
18
18
18
18
18
18
18
18
18
18
ENDCHAR
STARTCHAR 0458
ENCODING 1112
SWIDTH 250 0
DWIDTH 6 0
BBX 5 23 0 -5
BITMAP
30
38
38
30
00
00
30
30
30
30
30
30
30
30
30
30
30
30
30
30
30
F0
E0
ENDCHAR
STARTCHAR 0459
ENCODING 1113
SWIDTH 833 0
DWIDTH 20 0
BBX 19 12 0 0
BITMAP
1FF000
1FF000
1C7000
1C7000
1C7F80
1C7FC0
1870E0
1870E0
1870E0
3870E0
F07FC0
E07F80
ENDCHAR
STARTCHAR 045A
ENCODING 1114
SWIDTH 833 0
DWIDTH 20 0
BBX 18 12 2 0
BITMAP
C0C000
C0C000
C0C000
C0C000
C0FF00
FFFF80
FFC380
C0C1C0
C0C1C0
C0C380
C0FF80
C0FF00
ENDCHAR
STARTCHAR 045B
ENCODING 1115
SWIDTH 583 0
DWIDTH 14 0
BBX 12 18 0 0
BITMAP
3000
3000
FF00
FF00
3000
3000
33C0
37E0
3870
3870
3030
3030
3030
3030
3030
3030
3030
3030
ENDCHAR
STARTCHAR 045C
ENCODING 1116
SWIDTH 583 0
DWIDTH 14 0
BBX 11 19 2 0
BITMAP
0600
0700
0E00
0C00
0C00
0000
0000
C0C0
C1C0
C380
C300
C700
FE00
FE00
C700
C300
C380
C1E0
C0E0
ENDCHAR
STARTCHAR 045D
ENCODING 1117
SWIDTH 583 0
DWIDTH 14 0
BBX 10 19 2 0
BITMAP
1800
3800
1C00
0C00
0600
0000
0000
C0C0
C1C0
C3C0
C3C0
C6C0
CEC0
DCC0
D8C0
F8C0
F0C0
E0C0
E0C0
ENDCHAR
STARTCHAR 045E
ENCODING 1118
SWIDTH 500 0
DWIDTH 12 0
BBX 12 23 0 -5
BITMAP
10C0
38C0
1FC0
0F00
0000
0000
E070
6070
7060
30E0
30C0
38C0
19C0
1980
1D80
0F80
0F00
0F00
0700
0600
0E00
3C00
3C00
ENDCHAR
STARTCHAR 045F
ENCODING 1119
SWIDTH 583 0
DWIDTH 14 0
BBX 10 16 2 -4
BITMAP
C1C0
C1C0
C1C0
C1C0
C1C0
C1C0
C1C0
C1C0
C1C0
C1C0
FFC0
FFC0
0C00
0C00
0C00
0C00
ENDCHAR
STARTCHAR 0472
ENCODING 1138
SWIDTH 708 0
DWIDTH 17 0
BBX 15 17 1 0
BITMAP
07C0
1FF0
3838
701C
701C
600C
E00E
FFFE
FFFE
E00E
E00E
600C
701C
701C
3C78
1FF0
07C0
ENDCHAR
STARTCHAR 0473
ENCODING 1139
SWIDTH 583 0
DWIDTH 14 0
BBX 12 12 1 0
BITMAP
1F00
3FC0
70E0
E060
E060
FFE0
FFF0
E060
E060
70E0
3FC0
1F00
ENDCHAR
STARTCHAR 0490
ENCODING 1168
SWIDTH 500 0
DWIDTH 12 0
BBX 10 21 2 0
BITMAP
01C0
01C0
01C0
01C0
FFC0
FFC0
E000
E000
E000
E000
E000
E000
E000
E000
E000
E000
E000
E000
E000
E000
E000
ENDCHAR
STARTCHAR 0491
ENCODING 1169
SWIDTH 458 0
DWIDTH 11 0
BBX 8 15 2 0
BITMAP
03
03
03
FF
FF
C0
C0
C0
C0
C0
C0
C0
C0
C0
C0
ENDCHAR
STARTCHAR 0492
ENCODING 1170
SWIDTH 541 0
DWIDTH 13 0
BBX 12 17 0 0
BITMAP
1FF0
1FF0
1800
1800
1800
1800
1800
FFC0
FFC0
1800
1800
1800
1800
1800
1800
1800
1800
ENDCHAR
STARTCHAR 0493
ENCODING 1171
SWIDTH 458 0
DWIDTH 11 0
BBX 9 12 1 0
BITMAP
7F80
7F80
7000
7000
7000
FE00
FE00
7000
7000
7000
7000
7000
ENDCHAR
STARTCHAR 0494
ENCODING 1172
SWIDTH 666 0
DWIDTH 16 0
BBX 12 21 2 -4
BITMAP
FFC0
FFC0
E000
E000
E000
E000
E000
FF80
FFE0
E0E0
E070
E070
E070
E030
E030
E070
E070
0070
0060
03E0
0380
ENDCHAR
STARTCHAR 0495
ENCODING 1173
SWIDTH 541 0
DWIDTH 13 0
BBX 10 17 2 -5
BITMAP
FF00
FF00
C000
C000
C000
CF00
FF80
E1C0
C1C0
C1C0
C1C0
C1C0
01C0
01C0
01C0
0780
0700
ENDCHAR
STARTCHAR 0496
ENCODING 1174
SWIDTH 1000 0
DWIDTH 24 0
BBX 23 21 1 -4
BITMAP
E03038
F03038
383070
183060
1830E0
1C30E0
0C31C0
0E31C0
07FF80
07FF80
0E31C0
1C30C0
1C30E0
383070
383070
F0303E
E0301E
00000E
00000E
00000E
00000E
ENDCHAR
STARTCHAR 0497
ENCODING 1175
SWIDTH 833 0
DWIDTH 20 0
BBX 18 16 1 -4
BITMAP
E1C380
F1C380
31C700
39C600
19CE00
1FFC00
1FFC00
19CE00
39C600
31C700
F1C3C0
E1C3C0
0000C0
0000C0
0000C0
0000C0
ENDCHAR
STARTCHAR 0498
ENCODING 1176
SWIDTH 583 0
DWIDTH 14 0
BBX 12 20 1 -3
BITMAP
1F80
7FE0
F0E0
6070
0070
0070
00E0
1FC0
1FC0
00E0
0070
0070
0070
4070
F0E0
7FE0
1F80
0600
0600
0600
ENDCHAR
STARTCHAR 0499
ENCODING 1177
SWIDTH 500 0
DWIDTH 12 0
BBX 10 16 1 -4
BITMAP
3F00
FF80
41C0
01C0
0180
1F00
1F80
01C0
41C0
E1C0
FF80
3F00
0C00
0C00
0C00
0C00
ENDCHAR
STARTCHAR 049A
ENCODING 1178
SWIDTH 666 0
DWIDTH 16 0
BBX 14 21 2 -4
BITMAP
E038
E078
E0E0
E0C0
E1C0
E180
E380
E300
FF00
FF00
E380
E1C0
E1C0
E0E0
E0E0
E07C
E03C
000C
000C
000C
000C
ENDCHAR
STARTCHAR 049B
ENCODING 1179
SWIDTH 583 0
DWIDTH 14 0
BBX 11 16 2 -4
BITMAP
C0C0
C1C0
C380
C300
C700
FE00
FE00
C700
C300
C380
C1E0
C0E0
0060
0060
0060
0060
ENDCHAR
STARTCHAR 049C
ENCODING 1180
SWIDTH 708 0
DWIDTH 17 0
BBX 14 17 2 0
BITMAP
E01C
E03C
E030
E070
E060
ECE0
ECC0
EDC0
FF80
FFC0
EDC0
ECE0
EC60
E070
E038
E03C
E01C
ENDCHAR
STARTCHAR 049D
ENCODING 1181
SWIDTH 625 0
DWIDTH 15 0
BBX 12 12 2 0
BITMAP
C070
C0F0
C9C0
C980
CB80
FF00
FF80
CB80
C9C0
C9C0
C0F0
C070
ENDCHAR
STARTCHAR 04A0
ENCODING 1184
SWIDTH 791 0
DWIDTH 19 0
BBX 17 17 1 0
BITMAP
FC0700
FC0F00
0C0C00
0C1C00
0C1800
0C3800
0C3000
0C7000
0FE000
0FF000
0C7000
0C3800
0C1C00
0C1C00
0C0E00
0C0780
0C0780
ENDCHAR
STARTCHAR 04A1
ENCODING 1185
SWIDTH 625 0
DWIDTH 15 0
BBX 14 12 0 0
BITMAP
FC1C
FC1C
0C38
0C70
0C60
0FE0
0FE0
0C70
0C70
0C38
0C1C
0C1C
ENDCHAR
STARTCHAR 04A2
ENCODING 1186
SWIDTH 750 0
DWIDTH 18 0
BBX 16 21 2 -4
BITMAP
E038
E038
E038
E038
E038
E038
E038
E038
FFF8
FFF8
E038
E038
E038
E038
E038
E03F
E03F
0007
0007
0007
0007
ENDCHAR
STARTCHAR 04A3
ENCODING 1187
SWIDTH 625 0
DWIDTH 15 0
BBX 13 16 2 -4
BITMAP
C0C0
C0C0
C0C0
C0C0
C0C0
FFC0
FFC0
C0C0
C0C0
C0C0
C0F8
C0F8
0038
0038
0038
0038
ENDCHAR
STARTCHAR 04A4
ENCODING 1188
SWIDTH 916 0
DWIDTH 22 0
BBX 19 17 2 0
BITMAP
E03FE0
E03FE0
E03800
E03800
E03800
E03800
E03800
E03800
FFF800
FFF800
E03800
E03800
E03800
E03800
E03800
E03800
E03800
ENDCHAR
STARTCHAR 04A5
ENCODING 1189
SWIDTH 750 0
DWIDTH 18 0
BBX 16 12 2 0
BITMAP
C0FF
C0FF
C0C0
C0C0
C0C0
FFC0
FFC0
C0C0
C0C0
C0C0
C0C0
C0C0
ENDCHAR
STARTCHAR 04AA
ENCODING 1194
SWIDTH 625 0
DWIDTH 15 0
BBX 13 20 1 -3
BITMAP
07C0
1FF0
3878
7038
7020
6000
E000
E000
E000
E000
E000
6000
7010
7038
3878
1FF0
0FE0
0380
0380
0380
ENDCHAR
STARTCHAR 04AB
ENCODING 1195
SWIDTH 500 0
DWIDTH 12 0
BBX 11 16 1 -4
BITMAP
1F00
3FC0
71C0
E0A0
E000
E000
E000
E000
E0C0
71E0
3FC0
1F00
0600
0600
0600
0600
ENDCHAR
STARTCHAR 04AE
ENCODING 1198
SWIDTH 625 0
DWIDTH 15 0
BBX 15 17 0 0
BITMAP
F01E
701C
3838
3838
1C70
1C70
0EE0
0EC0
07C0
0780
0380
0380
0380
0380
0380
0380
0380
ENDCHAR
STARTCHAR 04AF
ENCODING 1199
SWIDTH 500 0
DWIDTH 12 0
BBX 12 17 0 -5
BITMAP
E070
7060
7060
30E0
38C0
39C0
19C0
1D80
0D80
0F00
0F00
0700
0600
0600
0600
0600
0600
ENDCHAR
STARTCHAR 04B0
ENCODING 1200
SWIDTH 625 0
DWIDTH 15 0
BBX 15 17 0 0
BITMAP
F01E
701C
3838
3838
1C70
1CE0
0EE0
07C0
07C0
0380
3FF0
3FF0
0380
0380
0380
0380
0380
ENDCHAR
STARTCHAR 04B1
ENCODING 1201
SWIDTH 500 0
DWIDTH 12 0
BBX 12 17 0 -5
BITMAP
E070
7060
7060
30E0
38C0
39C0
19C0
1D80
0D80
0F00
0F00
0700
3FC0
3FC0
0600
0600
0600
ENDCHAR
STARTCHAR 04B2
ENCODING 1202
SWIDTH 666 0
DWIDTH 16 0
BBX 16 21 0 -4
BITMAP
701E
381C
3838
1C70
0E70
0EE0
07E0
07C0
0380
07C0
06E0
0EE0
1C70
1C30
3838
701F
701F
8007
0007
0007
0007
ENDCHAR
STARTCHAR 04B3
ENCODING 1203
SWIDTH 541 0
DWIDTH 13 0
BBX 13 16 0 -4
BITMAP
7070
38E0
38C0
1DC0
0F80
0700
0F00
0F80
1DC0
38C0
30F8
7078
8018
0018
0018
0018
ENDCHAR
STARTCHAR 04B6
ENCODING 1206
SWIDTH 708 0
DWIDTH 17 0
BBX 15 21 1 -4
BITMAP
E038
E038
E038
E038
E038
E038
E038
7038
7038
3FF8
1FF8
0038
0038
0038
0038
003E
003E
0006
0006
0006
0006
ENDCHAR
STARTCHAR 04B7
ENCODING 1207
SWIDTH 583 0
DWIDTH 14 0
BBX 13 16 1 -4
BITMAP
E0C0
E0C0
E0C0
E0C0
E0C0
E1C0
7FC0
3EC0
00C0
00C0
00F8
00F8
0038
0038
0038
0038
ENDCHAR
STARTCHAR 04B8
ENCODING 1208
SWIDTH 666 0
DWIDTH 16 0
BBX 13 17 1 0
BITMAP
E038
E038
E038
E038
E038
E338
E338
7338
7338
3FF8
1FF8
0338
0338
0338
0038
0038
0038
ENDCHAR
STARTCHAR 04B9
ENCODING 1209
SWIDTH 583 0
DWIDTH 14 0
BBX 11 12 1 0
BITMAP
E0E0
E0E0
E0E0
E4E0
E4E0
E4E0
7FE0
3EE0
04E0
04E0
00E0
00E0
ENDCHAR
STARTCHAR 04BA
ENCODING 1210
SWIDTH 666 0
DWIDTH 16 0
BBX 12 17 2 0
BITMAP
E000
E000
E000
E000
E000
E000
FF80
FFE0
E0F0
E070
E030
E030
E030
E030
E030
E030
E030
ENDCHAR
STARTCHAR 04BB
ENCODING 1211
SWIDTH 583 0
DWIDTH 14 0
BBX 10 18 2 0
BITMAP
C000
C000
C000
C000
C000
C000
CF00
DF80
E1C0
E1C0
C0C0
C0C0
C0C0
C0C0
C0C0
C0C0
C0C0
C0C0
ENDCHAR
STARTCHAR 04C0
ENCODING 1216
SWIDTH 416 0
DWIDTH 10 0
BBX 8 17 1 0
BITMAP
FF
FF
18
18
18
18
18
18
18
18
18
18
18
18
18
FF
FF
ENDCHAR
STARTCHAR 04C1
ENCODING 1217
SWIDTH 1000 0
DWIDTH 24 0
BBX 22 22 1 0
BITMAP
008400
01CE00
00FC00
007800
000000
E03038
F03038
383070
183060
1830E0
1C30E0
0C31C0
0E31C0
07FF80
07FF80
0E31C0
1C30C0
1C30E0
383070
383070
F0303C
E0301C
ENDCHAR
STARTCHAR 04C2
ENCODING 1218
SWIDTH 791 0
DWIDTH 19 0
BBX 18 18 1 0
BITMAP
063000
063800
07F000
01E000
000000
000000
E1C380
F1C380
31C700
39C600
19CE00
1FFC00
1FFC00
19CE00
39C600
31C700
F1C3C0
E1C3C0
ENDCHAR
STARTCHAR 04CF
ENCODING 1231
SWIDTH 250 0
DWIDTH 6 0
BBX 2 18 2 0
BITMAP
C0
C0
C0
C0
C0
C0
C0
C0
C0
C0
C0
C0
C0
C0
C0
C0
C0
C0
ENDCHAR
STARTCHAR 04D0
ENCODING 1232
SWIDTH 666 0
DWIDTH 16 0
BBX 14 22 1 0
BITMAP
0840
1CE0
0FC0
0780
0000
0780
0780
0F80
0FC0
0CC0
1CC0
1CE0
1860
3870
3870
3FF0
7FF8
7038
6038
E01C
E01C
C01C
ENDCHAR
STARTCHAR 04D1
ENCODING 1233
SWIDTH 541 0
DWIDTH 13 0
BBX 11 18 1 0
BITMAP
2180
7180
3F80
1E00
0000
0000
1F00
7F80
E1C0
01C0
00C0
3FC0
7FC0
E0C0
E0C0
E1C0
FEE0
3C60
ENDCHAR
STARTCHAR 04D2
ENCODING 1234
SWIDTH 666 0
DWIDTH 16 0
BBX 14 22 1 0
BITMAP
1CE0
1CE0
1CE0
0000
0000
0780
0780
0F80
0FC0
0CC0
1CC0
1CE0
1860
3870
3870
3FF0
7FF8
7038
6038
E01C
E01C
C01C
ENDCHAR
STARTCHAR 04D3
ENCODING 1235
SWIDTH 541 0
DWIDTH 13 0
BBX 11 18 1 0
BITMAP
3380
7380
3380
0000
0000
0000
1F00
7F80
E1C0
01C0
00C0
3FC0
7FC0
E0C0
E0C0
E1C0
FEE0
3C60
ENDCHAR
STARTCHAR 04D4
ENCODING 1236
SWIDTH 916 0
DWIDTH 22 0
BBX 21 17 0 0
BITMAP
00FFF8
00FFF8
01F800
01B800
03B800
033800
073800
063FF0
0E3FF0
0C3800
1FF800
1FF800
383800
303800
703800
603FF8
E03FF8
ENDCHAR
STARTCHAR 04D5
ENCODING 1237
SWIDTH 875 0
DWIDTH 21 0
BBX 19 12 1 0
BITMAP
3E1F00
7F3F80
E1E1C0
41C0C0
00C0E0
3FFFE0
7FFFE0
E0C000
E0C080
E160C0
7F7FC0
3C1F00
ENDCHAR
STARTCHAR 04D6
ENCODING 1238
SWIDTH 583 0
DWIDTH 14 0
BBX 11 22 2 0
BITMAP
3180
71C0
3F80
1F00
0000
FFE0
FFE0
E000
E000
E000
E000
E000
FFC0
FFC0
E000
E000
E000
E000
E000
E000
FFE0
FFE0
ENDCHAR
STARTCHAR 04D7
ENCODING 1239
SWIDTH 541 0
DWIDTH 13 0
BBX 11 18 1 0
BITMAP
1080
31C0
1F80
0F00
0000
0000
1F00
3FC0
71C0
E0E0
E060
FFE0
FFE0
E000
E080
70E0
3FC0
1F80
ENDCHAR
STARTCHAR 04D8
ENCODING 1240
SWIDTH 708 0
DWIDTH 17 0
BBX 15 17 1 0
BITMAP
07C0
1FF0
3878
701C
701C
000C
000E
000E
FFFE
FFFE
E00E
600C
701C
701C
3C78
1FF0
07C0
ENDCHAR
STARTCHAR 04D9
ENCODING 1241
SWIDTH 541 0
DWIDTH 13 0
BBX 11 12 1 0
BITMAP
1F00
7FC0
61C0
40E0
0060
FFE0
FFE0
E060
E0E0
71C0
3FC0
1F00
ENDCHAR
STARTCHAR 04DC
ENCODING 1244
SWIDTH 1000 0
DWIDTH 24 0
BBX 22 22 1 0
BITMAP
01CE00
01CE00
01CE00
000000
000000
E03038
F03038
383070
183060
1830E0
1C30E0
0C31C0
0E31C0
07FF80
07FF80
0E31C0
1C30C0
1C30E0
383070
383070
F0303C
E0301C
ENDCHAR
STARTCHAR 04DD
ENCODING 1245
SWIDTH 791 0
DWIDTH 19 0
BBX 18 18 1 0
BITMAP
073000
073800
073000
000000
000000
000000
E1C380
F1C380
31C700
39C600
19CE00
1FFC00
1FFC00
19CE00
39C600
31C700
F1C3C0
E1C3C0
ENDCHAR
STARTCHAR 04DE
ENCODING 1246
SWIDTH 583 0
DWIDTH 14 0
BBX 12 22 1 0
BITMAP
39C0
39C0
39C0
0000
0000
1F80
7FE0
F0E0
6070
0070
0070
00E0
1FC0
1FC0
00E0
0070
0070
0070
4070
F0E0
7FE0
1F80
ENDCHAR
STARTCHAR 04DF
ENCODING 1247
SWIDTH 500 0
DWIDTH 12 0
BBX 10 18 1 0
BITMAP
7300
7380
7380
0000
0000
0000
3F00
FF80
41C0
01C0
0180
1F00
1F80
01C0
41C0
E1C0
FF80
3F00
ENDCHAR
STARTCHAR 04E2
ENCODING 1250
SWIDTH 708 0
DWIDTH 17 0
BBX 13 21 2 0
BITMAP
1FC0
1FC0
0000
0000
E038
E038
E078
E0F8
E0D8
E1D8
E3B8
E3B8
E738
E638
EE38
FC38
F838
F838
F038
E038
E038
ENDCHAR
STARTCHAR 04E3
ENCODING 1251
SWIDTH 583 0
DWIDTH 14 0
BBX 10 17 2 0
BITMAP
3F80
3F80
0000
0000
0000
C0C0
C1C0
C3C0
C3C0
C6C0
CEC0
DCC0
D8C0
F8C0
F0C0
E0C0
E0C0
ENDCHAR
STARTCHAR 04E4
ENCODING 1252
SWIDTH 708 0
DWIDTH 17 0
BBX 13 22 2 0
BITMAP
18C0
1DC0
18C0
0000
0000
E038
E038
E078
E0F8
E0D8
E1D8
E3B8
E3B8
E738
E638
EE38
FC38
F838
F838
F038
E038
E038
ENDCHAR
STARTCHAR 04E5
ENCODING 1253
SWIDTH 583 0
DWIDTH 14 0
BBX 10 18 2 0
BITMAP
3380
7380
3380
0000
0000
0000
C0C0
C1C0
C3C0
C3C0
C6C0
CEC0
DCC0
D8C0
F8C0
F0C0
E0C0
E0C0
ENDCHAR
STARTCHAR 04E6
ENCODING 1254
SWIDTH 708 0
DWIDTH 17 0
BBX 15 22 1 0
BITMAP
0C60
0EE0
0C60
0000
0000
07C0
1FF0
3C38
701C
701C
600C
E00E
E00E
E00E
E00E
E00E
600C
701C
701C
3838
1FF0
07C0
ENDCHAR
STARTCHAR 04E7
ENCODING 1255
SWIDTH 583 0
DWIDTH 14 0
BBX 12 18 1 0
BITMAP
3980
39C0
3980
0000
0000
0000
1F00
3FC0
70E0
E0E0
E060
E060
E070
E060
E0E0
70E0
3FC0
1F00
ENDCHAR
STARTCHAR 04E8
ENCODING 1256
SWIDTH 708 0
DWIDTH 17 0
BBX 15 17 1 0
BITMAP
07C0
1FF0
3838
701C
701C
600C
E00E
FFFE
FFFE
E00E
E00E
600C
701C
701C
3C78
1FF0
07C0
ENDCHAR
STARTCHAR 04E9
ENCODING 1257
SWIDTH 583 0
DWIDTH 14 0
BBX 12 12 1 0
BITMAP
1F00
3FC0
70E0
E060
E060
FFE0
FFF0
E060
E060
70E0
3FC0
1F00
ENDCHAR
STARTCHAR 04EE
ENCODING 1262
SWIDTH 625 0
DWIDTH 15 0
BBX 14 21 0 0
BITMAP
0FE0
0FE0
0000
0000
F01C
701C
3018
3838
3830
1C70
1C70
0E60
0EE0
07C0
07C0
03C0
0380
0380
0300
1F00
1E00
ENDCHAR
STARTCHAR 04EF
ENCODING 1263
SWIDTH 500 0
DWIDTH 12 0
BBX 12 22 0 -5
BITMAP
1FC0
1FC0
0000
0000
0000
E070
6070
7060
30E0
30C0
38C0
19C0
1980
1D80
0F80
0F00
0F00
0700
0600
0E00
3C00
3C00
ENDCHAR
STARTCHAR 04F0
ENCODING 1264
SWIDTH 625 0
DWIDTH 15 0
BBX 14 22 0 0
BITMAP
0C60
0EE0
0C60
0000
0000
F01C
701C
3018
3838
3830
1C70
1C70
0E60
0EE0
07C0
07C0
03C0
0380
0380
0300
1F00
1E00
ENDCHAR
STARTCHAR 04F1
ENCODING 1265
SWIDTH 500 0
DWIDTH 12 0
BBX 12 23 0 -5
BITMAP
19C0
39C0
19C0
0000
0000
0000
E070
6070
7060
30E0
30C0
38C0
19C0
1980
1D80
0F80
0F00
0F00
0700
0600
0E00
3C00
3C00
ENDCHAR
STARTCHAR 04F2
ENCODING 1266
SWIDTH 625 0
DWIDTH 15 0
BBX 14 23 0 0
BITMAP
0230
0738
0670
0E60
0CC0
0000
F01C
701C
3018
3838
3830
1C70
1C70
0E60
0EE0
07C0
07C0
03C0
0380
0380
0300
1F00
1E00
ENDCHAR
STARTCHAR 04F3
ENCODING 1267
SWIDTH 500 0
DWIDTH 12 0
BBX 12 24 0 -5
BITMAP
0440
0E60
0CC0
18C0
1980
0000
0000
E070
6070
7060
30E0
30C0
38C0
19C0
1980
1D80
0F80
0F00
0F00
0700
0600
0E00
3C00
3C00
ENDCHAR
STARTCHAR 04F4
ENCODING 1268
SWIDTH 666 0
DWIDTH 16 0
BBX 13 22 1 0
BITMAP
18C0
1DC0
18C0
0000
0000
E038
E038
E038
E038
E038
E038
E038
7038
7038
3FF8
1FF8
0038
0038
0038
0038
0038
0038
ENDCHAR
STARTCHAR 04F5
ENCODING 1269
SWIDTH 541 0
DWIDTH 13 0
BBX 10 18 1 0
BITMAP
3380
7380
3380
0000
0000
0000
E0C0
E0C0
E0C0
E0C0
E0C0
E1C0
7FC0
3EC0
00C0
00C0
00C0
00C0
ENDCHAR
STARTCHAR 04F8
ENCODING 1272
SWIDTH 916 0
DWIDTH 22 0
BBX 18 22 2 0
BITMAP
073000
073800
073000
000000
000000
E001C0
E001C0
E001C0
E001C0
E001C0
E001C0
E001C0
FFC1C0
FFE1C0
E071C0
E071C0
E071C0
E071C0
E071C0
E071C0
FFE1C0
FFC1C0
ENDCHAR
STARTCHAR 04F9
ENCODING 1273
SWIDTH 750 0
DWIDTH 18 0
BBX 14 18 2 0
BITMAP
1CE0
1CE0
1CE0
0000
0000
0000
C00C
C00C
C00C
C00C
FF0C
FF8C
C1CC
C1CC
C1CC
C1CC
FF8C
FF0C
ENDCHAR
STARTCHAR 0E3F
ENCODING 3647
SWIDTH 666 0
DWIDTH 16 0
BBX 12 22 2 -3
BITMAP
0600
0600
FFC0
FFE0
E660
E670
E670
E670
E660
FFC0
FFE0
E670
E630
E630
E630
E630
E670
FFE0
FFC0
0600
0600
0600
ENDCHAR
STARTCHAR 1E80
ENCODING 7808
SWIDTH 916 0
DWIDTH 22 0
BBX 21 23 1 0
BITMAP
00C000
01C000
00E000
006000
003000
000000
C0F038
E0F030
E0F070
E0F070
60F870
619860
719860
7198E0
319CE0
330CC0
3B0CC0
3B0CC0
3B0FC0
1E0780
1E0780
1E0780
1E0780
ENDCHAR
STARTCHAR 1E81
ENCODING 7809
SWIDTH 791 0
DWIDTH 19 0
BBX 18 19 1 0
BITMAP
010000
038000
018000
01C000
008000
000000
000000
C1C1C0
E1C180
E1E380
636380
636300
737300
773700
363600
363600
3E3E00
1C1E00
1C1C00
ENDCHAR
STARTCHAR 1E82
ENCODING 7810
SWIDTH 916 0
DWIDTH 22 0
BBX 21 23 1 0
BITMAP
001000
003800
003000
006000
006000
000000
C0F038
E0F030
E0F070
E0F070
60F870
619860
719860
7198E0
319CE0
330CC0
3B0CC0
3B0CC0
3B0FC0
1E0780
1E0780
1E0780
1E0780
ENDCHAR
STARTCHAR 1E83
ENCODING 7811
SWIDTH 791 0
DWIDTH 19 0
BBX 18 19 1 0
BITMAP
006000
007000
00E000
00C000
018000
000000
000000
C1C1C0
E1C180
E1E380
636380
636300
737300
773700
363600
363600
3E3E00
1C1E00
1C1C00
ENDCHAR
STARTCHAR 1E84
ENCODING 7812
SWIDTH 916 0
DWIDTH 22 0
BBX 21 22 1 0
BITMAP
039C00
039C00
039C00
000000
000000
C0F038
E0F030
E0F070
E0F070
60F870
619860
719860
7198E0
319CE0
330CC0
3B0CC0
3B0CC0
3B0FC0
1E0780
1E0780
1E0780
1E0780
ENDCHAR
STARTCHAR 1E85
ENCODING 7813
SWIDTH 791 0
DWIDTH 19 0
BBX 18 18 1 0
BITMAP
063000
073800
063000
000000
000000
000000
C1C1C0
E1C180
E1E380
636380
636300
737300
773700
363600
363600
3E3E00
1C1E00
1C1C00
ENDCHAR
STARTCHAR 1E9E
ENCODING 7838
SWIDTH 708 0
DWIDTH 17 0
BBX 14 17 2 0
BITMAP
FFF8
FFF8
E038
E070
E0E0
E1C0
E1C0
E3E0
E3F8
E03C
E01C
E01C
E01C
E41C
E638
EFF8
E3E0
ENDCHAR
STARTCHAR 1EA0
ENCODING 7840
SWIDTH 666 0
DWIDTH 16 0
BBX 14 21 1 -4
BITMAP
0780
0780
0F80
0FC0
0CC0
1CC0
1CE0
1860
3870
3870
3FF0
7FF8
7038
6038
E01C
E01C
C01C
0000
0300
0700
0300
ENDCHAR
STARTCHAR 1EA1
ENCODING 7841
SWIDTH 541 0
DWIDTH 13 0
BBX 11 16 1 -4
BITMAP
1F00
7F80
E1C0
01C0
00C0
3FC0
7FC0
E0C0
E0C0
E1C0
FEE0
3C60
0000
0C00
0E00
0C00
ENDCHAR
STARTCHAR 1EA2
ENCODING 7842
SWIDTH 666 0
DWIDTH 16 0
BBX 14 23 1 0
BITMAP
0780
0780
0180
0180
0300
0000
0780
0780
0F80
0FC0
0CC0
1CC0
1CE0
1860
3870
3870
3FF0
7FF8
7038
6038
E01C
E01C
C01C
ENDCHAR
STARTCHAR 1EA3
ENCODING 7843
SWIDTH 541 0
DWIDTH 13 0
BBX 11 18 1 0
BITMAP
1E00
1F00
0700
0600
0C00
0000
1F00
7F80
E1C0
01C0
00C0
3FC0
7FC0
E0C0
E0C0
E1C0
FEE0
3C60
ENDCHAR
STARTCHAR 1EA4
ENCODING 7844
SWIDTH 666 0
DWIDTH 16 0
BBX 14 27 1 0
BITMAP
0018
001C
0038
0030
0760
0780
0DC0
18E0
1840
0000
0780
0780
0F80
0FC0
0CC0
1CC0
1CE0
1860
3870
3870
3FF0
7FF8
7038
6038
E01C
E01C
C01C
ENDCHAR
STARTCHAR 1EA5
ENCODING 7845
SWIDTH 541 0
DWIDTH 13 0
BBX 12 22 1 0
BITMAP
0020
0070
0060
00C0
0E80
1F00
3B00
7180
2080
0000
1F00
7F80
E1C0
01C0
00C0
3FC0
7FC0
E0C0
E0C0
E1C0
FEE0
3C60
ENDCHAR
STARTCHAR 1EA6
ENCODING 7846
SWIDTH 666 0
DWIDTH 16 0
BBX 14 27 1 0
BITMAP
6000
E000
7000
3000
1F00
0780
0DC0
18E0
1840
0000
0780
0780
0F80
0FC0
0CC0
1CC0
1CE0
1860
3870
3870
3FF0
7FF8
7038
6038
E01C
E01C
C01C
ENDCHAR
STARTCHAR 1EA7
ENCODING 7847
SWIDTH 541 0
DWIDTH 13 0
BBX 13 22 -1 0
BITMAP
2000
E000
3000
3000
1B80
07C0
0EC0
1C60
0820
0000
07C0
1FE0
3870
0070
0030
0FF0
1FF0
3830
3830
3870
3FB8
0F18
ENDCHAR
STARTCHAR 1EA8
ENCODING 7848
SWIDTH 666 0
DWIDTH 16 0
BBX 14 27 1 0
BITMAP
00F0
00F8
0018
0030
0720
0780
0DC0
18E0
1840
0000
0780
0780
0F80
0FC0
0CC0
1CC0
1CE0
1860
3870
3870
3FF0
7FF8
7038
6038
E01C
E01C
C01C
ENDCHAR
STARTCHAR 1EA9
ENCODING 7849
SWIDTH 541 0
DWIDTH 13 0
BBX 11 22 1 0
BITMAP
03E0
03E0
0060
00C0
0EC0
1F00
3B00
7180
2080
0000
1F00
7F80
E1C0
01C0
00C0
3FC0
7FC0
E0C0
E0C0
E1C0
FEE0
3C60
ENDCHAR
STARTCHAR 1EAA
ENCODING 7850
SWIDTH 666 0
DWIDTH 16 0
BBX 14 27 1 0
BITMAP
0E20
1FE0
11C0
0000
0700
0780
0DC0
18E0
0840
0000
0780
0780
0F80
0FC0
0CC0
1CC0
1CE0
1860
3870
3870
3FF0
7FF8
7038
6038
E01C
E01C
C01C
ENDCHAR
STARTCHAR 1EAB
ENCODING 7851
SWIDTH 541 0
DWIDTH 13 0
BBX 11 22 1 0
BITMAP
3880
7F80
4780
0000
0E00
1F00
3B00
7180
2080
0000
1F00
7F80
E1C0
01C0
00C0
3FC0
7FC0
E0C0
E0C0
E1C0
FEE0
3C60
ENDCHAR
STARTCHAR 1EAC
ENCODING 7852
SWIDTH 666 0
DWIDTH 16 0
BBX 14 27 1 -4
BITMAP
0780
0F80
0DC0
18E0
1840
0000
0780
0780
0F80
0FC0
0CC0
1CC0
1CE0
1860
3870
3870
3FF0
7FF8
7038
6038
E01C
E01C
C01C
0000
0300
0700
0300
ENDCHAR
STARTCHAR 1EAD
ENCODING 7853
SWIDTH 541 0
DWIDTH 13 0
BBX 11 23 1 -4
BITMAP
0E00
1F00
3B00
7180
2080
0000
0000
1F00
7F80
E1C0
01C0
00C0
3FC0
7FC0
E0C0
E0C0
E1C0
FEE0
3C60
0000
0C00
0E00
0C00
ENDCHAR
STARTCHAR 1EAE
ENCODING 7854
SWIDTH 666 0
DWIDTH 16 0
BBX 14 27 1 0
BITMAP
0080
01C0
0180
0300
0300
1860
18E0
0FC0
0780
0000
0780
0780
0F80
0FC0
0CC0
1CC0
1CE0
1860
3870
3870
3FF0
7FF8
7038
6038
E01C
E01C
C01C
ENDCHAR
STARTCHAR 1EAF
ENCODING 7855
SWIDTH 541 0
DWIDTH 13 0
BBX 11 22 1 0
BITMAP
0200
0700
0600
0E00
0C00
2080
7180
3F00
1E00
0000
1F00
7F80
E1C0
01C0
00C0
3FC0
7FC0
E0C0
E0C0
E1C0
FEE0
3C60
ENDCHAR
STARTCHAR 1EB0
ENCODING 7856
SWIDTH 666 0
DWIDTH 16 0
BBX 14 27 1 0
BITMAP
0400
0E00
0600
0300
0300
1860
18E0
0FC0
0780
0000
0780
0780
0F80
0FC0
0CC0
1CC0
1CE0
1860
3870
3870
3FF0
7FF8
7038
6038
E01C
E01C
C01C
ENDCHAR
STARTCHAR 1EB1
ENCODING 7857
SWIDTH 541 0
DWIDTH 13 0
BBX 11 22 1 0
BITMAP
1800
3800
1C00
0C00
0400
2080
7180
3F00
1E00
0000
1F00
7F80
E1C0
01C0
00C0
3FC0
7FC0
E0C0
E0C0
E1C0
FEE0
3C60
ENDCHAR
STARTCHAR 1EB2
ENCODING 7858
SWIDTH 666 0
DWIDTH 16 0
BBX 14 27 1 0
BITMAP
0F80
0F80
0180
0300
0300
1860
18E0
0FC0
0780
0000
0780
0780
0F80
0FC0
0CC0
1CC0
1CE0
1860
3870
3870
3FF0
7FF8
7038
6038
E01C
E01C
C01C
ENDCHAR
STARTCHAR 1EB3
ENCODING 7859
SWIDTH 541 0
DWIDTH 13 0
BBX 11 22 1 0
BITMAP
1E00
1E00
0600
0600
0C00
2080
7180
3F00
1E00
0000
1F00
7F80
E1C0
01C0
00C0
3FC0
7FC0
E0C0
E0C0
E1C0
FEE0
3C60
ENDCHAR
STARTCHAR 1EB4
ENCODING 7860
SWIDTH 666 0
DWIDTH 16 0
BBX 14 26 1 0
BITMAP
0E20
1FE0
11C0
0000
1860
18E0
0FC0
0780
0000
0780
0780
0F80
0FC0
0CC0
1CC0
1CE0
1860
3870
3870
3FF0
7FF8
7038
6038
E01C
E01C
C01C
ENDCHAR
STARTCHAR 1EB5
ENCODING 7861
SWIDTH 541 0
DWIDTH 13 0
BBX 11 21 1 0
BITMAP
3880
7F80
4700
0000
2080
7180
3F00
1E00
0000
1F00
7F80
E1C0
01C0
00C0
3FC0
7FC0
E0C0
E0C0
E1C0
FEE0
3C60
ENDCHAR
STARTCHAR 1EB6
ENCODING 7862
SWIDTH 666 0
DWIDTH 16 0
BBX 14 26 1 -4
BITMAP
1860
18E0
0FC0
0780
0000
0780
0780
0F80
0FC0
0CC0
1CC0
1CE0
1860
3870
3870
3FF0
7FF8
7038
6038
E01C
E01C
C01C
0000
0300
0700
0300
ENDCHAR
STARTCHAR 1EB7
ENCODING 7863
SWIDTH 541 0
DWIDTH 13 0
BBX 11 22 1 -4
BITMAP
2180
7180
3F00
1E00
0000
0000
1F00
7F80
E1C0
01C0
00C0
3FC0
7FC0
E0C0
E0C0
E1C0
FEE0
3C60
0000
0C00
0E00
0C00
ENDCHAR
STARTCHAR 1EB8
ENCODING 7864
SWIDTH 583 0
DWIDTH 14 0
BBX 11 21 2 -4
BITMAP
FFE0
FFE0
E000
E000
E000
E000
E000
FFC0
FFC0
E000
E000
E000
E000
E000
E000
FFE0
FFE0
0000
0E00
0E00
0E00
ENDCHAR
STARTCHAR 1EB9
ENCODING 7865
SWIDTH 541 0
DWIDTH 13 0
BBX 11 16 1 -4
BITMAP
1F00
3FC0
71C0
E0E0
E060
FFE0
FFE0
E000
E080
70E0
3FC0
1F80
0000
0600
0E00
0600
ENDCHAR
STARTCHAR 1EBA
ENCODING 7866
SWIDTH 583 0
DWIDTH 14 0
BBX 11 23 2 0
BITMAP
1F00
1F00
0300
0600
0600
0000
FFE0
FFE0
E000
E000
E000
E000
E000
FFC0
FFC0
E000
E000
E000
E000
E000
E000
FFE0
FFE0
ENDCHAR
STARTCHAR 1EBB
ENCODING 7867
SWIDTH 541 0
DWIDTH 13 0
BBX 11 18 1 0
BITMAP
1F00
1F00
0300
0300
0600
0000
1F00
3FC0
71C0
E0E0
E060
FFE0
FFE0
E000
E080
70E0
3FC0
1F80
ENDCHAR
STARTCHAR 1EBC
ENCODING 7868
SWIDTH 583 0
DWIDTH 14 0
BBX 11 22 2 0
BITMAP
3C80
7FC0
2780
0000
0000
FFE0
FFE0
E000
E000
E000
E000
E000
FFC0
FFC0
E000
E000
E000
E000
E000
E000
FFE0
FFE0
ENDCHAR
STARTCHAR 1EBD
ENCODING 7869
SWIDTH 541 0
DWIDTH 13 0
BBX 11 18 1 0
BITMAP
3C80
3FC0
2380
0000
0000
0000
1F00
3FC0
71C0
E0E0
E060
FFE0
FFE0
E000
E080
70E0
3FC0
1F80
ENDCHAR
STARTCHAR 1EBE
ENCODING 7870
SWIDTH 583 0
DWIDTH 14 0
BBX 12 27 2 0
BITMAP
0020
0070
0060
00C0
0EC0
1F00
3B80
7180
20C0
0000
FFE0
FFE0
E000
E000
E000
E000
E000
FFC0
FFC0
E000
E000
E000
E000
E000
E000
FFE0
FFE0
ENDCHAR
STARTCHAR 1EBF
ENCODING 7871
SWIDTH 541 0
DWIDTH 13 0
BBX 13 22 1 0
BITMAP
0030
0038
0060
0060
0EC0
1F00
1B80
31C0
2080
0000
1F00
3FC0
71C0
E0E0
E060
FFE0
FFE0
E000
E080
70E0
3FC0
1F80
ENDCHAR
STARTCHAR 1EC0
ENCODING 7872
SWIDTH 583 0
DWIDTH 14 0
BBX 12 27 1 0
BITMAP
4000
E000
6000
7000
3700
0F80
1DC0
38C0
1060
0000
7FF0
7FF0
7000
7000
7000
7000
7000
7FE0
7FE0
7000
7000
7000
7000
7000
7000
7FF0
7FF0
ENDCHAR
STARTCHAR 1EC1
ENCODING 7873
SWIDTH 541 0
DWIDTH 13 0
BBX 12 22 0 0
BITMAP
6000
E000
7000
3000
1700
0F80
0DC0
18E0
1040
0000
0F80
1FE0
38E0
7070
7030
7FF0
7FF0
7000
7040
3870
1FE0
0FC0
ENDCHAR
STARTCHAR 1EC2
ENCODING 7874
SWIDTH 583 0
DWIDTH 14 0
BBX 11 27 2 0
BITMAP
03E0
03E0
0060
0060
0EC0
1F00
3B80
7180
20C0
0000
FFE0
FFE0
E000
E000
E000
E000
E000
FFC0
FFC0
E000
E000
E000
E000
E000
E000
FFE0
FFE0
ENDCHAR
STARTCHAR 1EC3
ENCODING 7875
SWIDTH 541 0
DWIDTH 13 0
BBX 12 22 1 0
BITMAP
01E0
01F0
0020
0060
0E40
1F00
1B80
31C0
2080
0000
1F00
3FC0
71C0
E0E0
E060
FFE0
FFE0
E000
E080
70E0
3FC0
1F80
ENDCHAR
STARTCHAR 1EC4
ENCODING 7876
SWIDTH 583 0
DWIDTH 14 0
BBX 11 27 2 0
BITMAP
3C80
7FC0
2780
0000
0E00
1F00
3B80
7180
20C0
0000
FFE0
FFE0
E000
E000
E000
E000
E000
FFC0
FFC0
E000
E000
E000
E000
E000
E000
FFE0
FFE0
ENDCHAR
STARTCHAR 1EC5
ENCODING 7877
SWIDTH 541 0
DWIDTH 13 0
BBX 11 22 1 0
BITMAP
1C80
3FC0
2380
0000
0E00
1F00
1B80
31C0
2080
0000
1F00
3FC0
71C0
E0E0
E060
FFE0
FFE0
E000
E080
70E0
3FC0
1F80
ENDCHAR
STARTCHAR 1EC6
ENCODING 7878
SWIDTH 583 0
DWIDTH 14 0
BBX 11 27 2 -4
BITMAP
0E00
1F00
3B80
3180
60C0
0000
FFE0
FFE0
E000
E000
E000
E000
E000
FFC0
FFC0
E000
E000
E000
E000
E000
E000
FFE0
FFE0
0000
0E00
0E00
0E00
ENDCHAR
STARTCHAR 1EC7
ENCODING 7879
SWIDTH 541 0
DWIDTH 13 0
BBX 11 23 1 -4
BITMAP
0F00
1F00
1B80
31C0
2080
0000
0000
1F00
3FC0
71C0
E0E0
E060
FFE0
FFE0
E000
E080
70E0
3FC0
1F80
0000
0600
0E00
0600
ENDCHAR
STARTCHAR 1EC8
ENCODING 7880
SWIDTH 416 0
DWIDTH 10 0
BBX 8 23 1 0
BITMAP
3C
3E
0C
0C
18
00
FF
FF
18
18
18
18
18
18
18
18
18
18
18
18
18
FF
FF
ENDCHAR
STARTCHAR 1EC9
ENCODING 7881
SWIDTH 250 0
DWIDTH 6 0
BBX 5 18 1 0
BITMAP
F0
F8
38
30
60
00
60
60
60
60
60
60
60
60
60
60
60
60
ENDCHAR
STARTCHAR 1ECA
ENCODING 7882
SWIDTH 416 0
DWIDTH 10 0
BBX 8 21 1 -4
BITMAP
FF
FF
18
18
18
18
18
18
18
18
18
18
18
18
18
FF
FF
00
18
3C
18
ENDCHAR
STARTCHAR 1ECB
ENCODING 7883
SWIDTH 250 0
DWIDTH 6 0
BBX 3 22 2 -4
BITMAP
C0
E0
E0
C0
00
00
C0
C0
C0
C0
C0
C0
C0
C0
C0
C0
C0
C0
00
C0
E0
C0
ENDCHAR
STARTCHAR 1ECC
ENCODING 7884
SWIDTH 708 0
DWIDTH 17 0
BBX 15 21 1 -4
BITMAP
07C0
1FF0
3C38
701C
701C
600C
E00E
E00E
E00E
E00E
E00E
600C
701C
701C
3838
1FF0
07C0
0000
0380
0380
0380
ENDCHAR
STARTCHAR 1ECD
ENCODING 7885
SWIDTH 583 0
DWIDTH 14 0
BBX 12 16 1 -4
BITMAP
1F00
3FC0
70E0
E0E0
E060
E060
E070
E060
E0E0
70E0
3FC0
1F00
0000
0E00
0E00
0E00
ENDCHAR
STARTCHAR 1ECE
ENCODING 7886
SWIDTH 708 0
DWIDTH 17 0
BBX 15 23 1 0
BITMAP
07C0
07C0
00C0
0180
0180
0000
07C0
1FF0
3C38
701C
701C
600C
E00E
E00E
E00E
E00E
E00E
600C
701C
701C
3838
1FF0
07C0
ENDCHAR
STARTCHAR 1ECF
ENCODING 7887
SWIDTH 583 0
DWIDTH 14 0
BBX 12 18 1 0
BITMAP
1F00
1F00
0300
0700
0600
0000
1F00
3FC0
70E0
E0E0
E060
E060
E070
E060
E0E0
70E0
3FC0
1F00
ENDCHAR
STARTCHAR 1ED0
ENCODING 7888
SWIDTH 708 0
DWIDTH 17 0
BBX 15 27 1 0
BITMAP
0008
001C
0018
0038
03B0
07C0
0EE0
0C70
1820
0000
07C0
1FF0
3C38
701C
701C
600C
E00E
E00E
E00E
E00E
E00E
600C
701C
701C
3838
1FF0
07C0
ENDCHAR
STARTCHAR 1ED1
ENCODING 7889
SWIDTH 583 0
DWIDTH 14 0
BBX 12 22 1 0
BITMAP
0020
0030
0060
0060
0EC0
1F00
1B80
31C0
2080
0000
1F00
3FC0
70E0
E0E0
E060
E060
E070
E060
E0E0
70E0
3FC0
1F00
ENDCHAR
STARTCHAR 1ED2
ENCODING 7890
SWIDTH 708 0
DWIDTH 17 0
BBX 15 27 1 0
BITMAP
2000
7000
3000
1800
1B80
07C0
0EE0
0C70
1820
0000
07C0
1FF0
3C38
701C
701C
600C
E00E
E00E
E00E
E00E
E00E
600C
701C
701C
3838
1FF0
07C0
ENDCHAR
STARTCHAR 1ED3
ENCODING 7891
SWIDTH 583 0
DWIDTH 14 0
BBX 13 22 0 0
BITMAP
4000
E000
6000
3000
3700
0F80
0DC0
18E0
1040
0000
0F80
1FE0
3870
7070
7030
7030
7038
7030
7070
3870
1FE0
0F80
ENDCHAR
STARTCHAR 1ED4
ENCODING 7892
SWIDTH 708 0
DWIDTH 17 0
BBX 15 27 1 0
BITMAP
0078
0078
0018
0018
03B0
07C0
0EE0
0C70
1820
0000
07C0
1FF0
3C38
701C
701C
600C
E00E
E00E
E00E
E00E
E00E
600C
701C
701C
3838
1FF0
07C0
ENDCHAR
STARTCHAR 1ED5
ENCODING 7893
SWIDTH 583 0
DWIDTH 14 0
BBX 12 22 1 0
BITMAP
01E0
01F0
0060
0060
0EC0
1F00
1B80
31C0
2080
0000
1F00
3FC0
70E0
E0E0
E060
E060
E070
E060
E0E0
70E0
3FC0
1F00
ENDCHAR
STARTCHAR 1ED6
ENCODING 7894
SWIDTH 708 0
DWIDTH 17 0
BBX 15 27 1 0
BITMAP
0F20
1FF0
09E0
0000
0380
07C0
0EE0
0C60
1820
0000
07C0
1FF0
3C38
701C
701C
600C
E00E
E00E
E00E
E00E
E00E
600C
701C
701C
3838
1FF0
07C0
ENDCHAR
STARTCHAR 1ED7
ENCODING 7895
SWIDTH 583 0
DWIDTH 14 0
BBX 12 22 1 0
BITMAP
3C80
3FC0
2380
0000
0E00
1F00
1B80
31C0
2080
0000
1F00
3FC0
70E0
E0E0
E060
E060
E070
E060
E0E0
70E0
3FC0
1F00
ENDCHAR
STARTCHAR 1ED8
ENCODING 7896
SWIDTH 708 0
DWIDTH 17 0
BBX 15 27 1 -4
BITMAP
0380
07C0
0EE0
0C60
1830
0000
07C0
1FF0
3C38
701C
701C
600C
E00E
E00E
E00E
E00E
E00E
600C
701C
701C
3838
1FF0
07C0
0000
0380
0380
0380
ENDCHAR
STARTCHAR 1ED9
ENCODING 7897
SWIDTH 583 0
DWIDTH 14 0
BBX 12 23 1 -4
BITMAP
0E00
1F00
1B80
31C0
2080
0000
0000
1F00
3FC0
70E0
E0E0
E060
E060
E070
E060
E0E0
70E0
3FC0
1F00
0000
0E00
0E00
0E00
ENDCHAR
STARTCHAR 1EDA
ENCODING 7898
SWIDTH 708 0
DWIDTH 17 0
BBX 15 23 1 0
BITMAP
00C0
00E0
01C0
0186
0306
0006
07FE
1FFE
3C38
701C
701C
600C
E00E
E00E
E00E
E00E
E00E
600C
701C
701C
3838
1FF0
07C0
ENDCHAR
STARTCHAR 1EDB
ENCODING 7899
SWIDTH 583 0
DWIDTH 14 0
BBX 12 19 1 0
BITMAP
0300
0380
0700
0600
0C30
0030
0030
1FF0
3FE0
70C0
E0E0
E060
E060
E060
E060
E0E0
70E0
3FC0
1F00
ENDCHAR
STARTCHAR 1EDC
ENCODING 7900
SWIDTH 708 0
DWIDTH 17 0
BBX 15 23 1 0
BITMAP
0200
0F00
0700
0386
0106
0006
07FE
1FFE
3C38
701C
701C
600C
E00E
E00E
E00E
E00E
E00E
600C
701C
701C
3838
1FF0
07C0
ENDCHAR
STARTCHAR 1EDD
ENCODING 7901
SWIDTH 583 0
DWIDTH 14 0
BBX 12 19 1 0
BITMAP
0800
1C00
0C00
0E00
0630
0030
0030
1FF0
3FE0
70C0
E0E0
E060
E060
E060
E060
E0E0
70E0
3FC0
1F00
ENDCHAR
STARTCHAR 1EDE
ENCODING 7902
SWIDTH 708 0
DWIDTH 17 0
BBX 15 23 1 0
BITMAP
07C0
07C0
00C0
0186
0186
0006
07FE
1FFE
3C38
701C
701C
600C
E00E
E00E
E00E
E00E
E00E
600C
701C
701C
3838
1FF0
07C0
ENDCHAR
STARTCHAR 1EDF
ENCODING 7903
SWIDTH 583 0
DWIDTH 14 0
BBX 12 18 1 0
BITMAP
1F00
1F00
0300
0730
0630
0030
1FF0
3FE0
70C0
E0E0
E060
E060
E060
E060
E0E0
70E0
3FC0
1F00
ENDCHAR
STARTCHAR 1EE0
ENCODING 7904
SWIDTH 708 0
DWIDTH 17 0
BBX 15 22 1 0
BITMAP
0720
0FE0
09C6
0006
0006
07FE
1FFE
3C38
701C
701C
600C
E00E
E00E
E00E
E00E
E00E
600C
701C
701C
3838
1FF0
07C0
ENDCHAR
STARTCHAR 1EE1
ENCODING 7905
SWIDTH 583 0
DWIDTH 14 0
BBX 12 18 1 0
BITMAP
1C80
3FC0
2380
0030
0030
0030
1FF0
3FE0
70C0
E0E0
E060
E060
E060
E060
E0E0
70E0
3FC0
1F00
ENDCHAR
STARTCHAR 1EE2
ENCODING 7906
SWIDTH 708 0
DWIDTH 17 0
BBX 15 24 1 -4
BITMAP
0006
0006
0006
07FE
1FFE
3C38
701C
701C
600C
E00E
E00E
E00E
E00E
E00E
600C
701C
701C
3838
1FF0
07C0
0000
0380
0380
0380
ENDCHAR
STARTCHAR 1EE3
ENCODING 7907
SWIDTH 583 0
DWIDTH 14 0
BBX 12 19 1 -4
BITMAP
0030
0030
0030
1FF0
3FE0
70C0
E0E0
E060
E060
E060
E060
E0E0
70E0
3FC0
1F00
0000
0E00
0E00
0E00
ENDCHAR
STARTCHAR 1EE4
ENCODING 7908
SWIDTH 666 0
DWIDTH 16 0
BBX 13 21 2 -4
BITMAP
E038
E038
E038
E038
E038
E038
E038
E038
E038
E038
E030
E030
E030
E070
70F0
3FE0
1F80
0000
0600
0700
0700
ENDCHAR
STARTCHAR 1EE5
ENCODING 7909
SWIDTH 583 0
DWIDTH 14 0
BBX 10 16 2 -4
BITMAP
C1C0
C1C0
C1C0
C1C0
C1C0
C1C0
C1C0
C1C0
E1C0
E1C0
7FC0
3DC0
0000
0C00
1C00
0C00
ENDCHAR
STARTCHAR 1EE6
ENCODING 7910
SWIDTH 666 0
DWIDTH 16 0
BBX 13 23 2 0
BITMAP
0F00
0F80
0380
0300
0200
0000
E038
E038
E038
E038
E038
E038
E038
E038
E038
E038
E030
E030
E030
E070
70F0
3FE0
1F80
ENDCHAR
STARTCHAR 1EE7
ENCODING 7911
SWIDTH 583 0
DWIDTH 14 0
BBX 10 18 2 0
BITMAP
1E00
1E00
0600
0600
0C00
0000
C1C0
C1C0
C1C0
C1C0
C1C0
C1C0
C1C0
C1C0
E1C0
E1C0
7FC0
3DC0
ENDCHAR
STARTCHAR 1EE8
ENCODING 7912
SWIDTH 666 0
DWIDTH 16 0
BBX 14 23 2 0
BITMAP
0100
0380
0300
070C
060C
000C
E03C
E03C
E038
E038
E038
E038
E038
E038
E038
E038
E030
E030
E030
E070
70F0
3FE0
1F80
ENDCHAR
STARTCHAR 1EE9
ENCODING 7913
SWIDTH 583 0
DWIDTH 14 0
BBX 12 19 2 0
BITMAP
0600
0700
0E00
0C00
0C30
0030
0030
C1F0
C1E0
C1C0
C1C0
C1C0
C1C0
C1C0
C1C0
E1C0
E1C0
7FC0
3DC0
ENDCHAR
STARTCHAR 1EEA
ENCODING 7914
SWIDTH 666 0
DWIDTH 16 0
BBX 14 23 2 0
BITMAP
0C00
1C00
0E00
060C
030C
000C
E03C
E03C
E038
E038
E038
E038
E038
E038
E038
E038
E030
E030
E030
E070
70F0
3FE0
1F80
ENDCHAR
STARTCHAR 1EEB
ENCODING 7915
SWIDTH 583 0
DWIDTH 14 0
BBX 12 19 2 0
BITMAP
1000
3800
1800
0C00
0C30
0030
0030
C1F0
C1E0
C1C0
C1C0
C1C0
C1C0
C1C0
C1C0
E1C0
E1C0
7FC0
3DC0
ENDCHAR
STARTCHAR 1EEC
ENCODING 7916
SWIDTH 666 0
DWIDTH 16 0
BBX 14 23 2 0
BITMAP
0F00
0F80
0380
030C
060C
000C
E03C
E03C
E038
E038
E038
E038
E038
E038
E038
E038
E030
E030
E030
E070
70F0
3FE0
1F80
ENDCHAR
STARTCHAR 1EED
ENCODING 7917
SWIDTH 583 0
DWIDTH 14 0
BBX 12 18 2 0
BITMAP
1E00
1E00
0600
0630
0C30
0030
C1F0
C1E0
C1C0
C1C0
C1C0
C1C0
C1C0
C1C0
E1C0
E1C0
7FC0
3DC0
ENDCHAR
STARTCHAR 1EEE
ENCODING 7918
SWIDTH 666 0
DWIDTH 16 0
BBX 14 22 2 0
BITMAP
1C80
3FC0
138C
000C
000C
E03C
E03C
E038
E038
E038
E038
E038
E038
E038
E038
E030
E030
E030
E070
70F0
3FE0
1F80
ENDCHAR
STARTCHAR 1EEF
ENCODING 7919
SWIDTH 583 0
DWIDTH 14 0
BBX 12 18 2 0
BITMAP
3900
7F80
2700
0030
0030
0030
C1F0
C1E0
C1C0
C1C0
C1C0
C1C0
C1C0
C1C0
E1C0
E1C0
7FC0
3DC0
ENDCHAR
STARTCHAR 1EF0
ENCODING 7920
SWIDTH 666 0
DWIDTH 16 0
BBX 14 24 2 -4
BITMAP
000C
000C
000C
E03C
E03C
E038
E038
E038
E038
E038
E038
E038
E038
E030
E030
E030
E070
70F0
3FE0
1F80
0000
0600
0700
0600
ENDCHAR
STARTCHAR 1EF1
ENCODING 7921
SWIDTH 583 0
DWIDTH 14 0
BBX 12 19 2 -4
BITMAP
0030
0030
0030
C1F0
C1E0
C1C0
C1C0
C1C0
C1C0
C1C0
C1C0
E1C0
E1C0
7FC0
3DC0
0000
0C00
1C00
0C00
ENDCHAR
STARTCHAR 1EF2
ENCODING 7922
SWIDTH 625 0
DWIDTH 15 0
BBX 15 23 0 0
BITMAP
0600
0E00
0700
0300
0180
0000
F01E
701C
3838
3838
1C70
1C70
0EE0
0EC0
07C0
0780
0380
0380
0380
0380
0380
0380
0380
ENDCHAR
STARTCHAR 1EF3
ENCODING 7923
SWIDTH 500 0
DWIDTH 12 0
BBX 12 24 0 -5
BITMAP
0C00
1C00
0E00
0600
0300
0000
0000
E070
6070
7060
30E0
30C0
38C0
19C0
1980
1D80
0F80
0F00
0F00
0700
0600
0E00
3C00
3C00
ENDCHAR
STARTCHAR 1EF4
ENCODING 7924
SWIDTH 625 0
DWIDTH 15 0
BBX 15 21 0 -4
BITMAP
F01E
701C
3838
3838
1C70
1C70
0EE0
0EC0
07C0
0780
0380
0380
0380
0380
0380
0380
0380
0000
0380
0380
0380
ENDCHAR
STARTCHAR 1EF5
ENCODING 7925
SWIDTH 500 0
DWIDTH 12 0
BBX 12 17 0 -5
BITMAP
E070
6070
7060
30E0
30C0
38C0
19C0
1980
1D80
0F80
0F00
0F00
0700
0660
0EE0
3C60
3C00
ENDCHAR
STARTCHAR 1EF6
ENCODING 7926
SWIDTH 625 0
DWIDTH 15 0
BBX 15 23 0 0
BITMAP
07C0
07C0
00C0
0180
0180
0000
F01E
701C
3838
3838
1C70
1C70
0EE0
0EC0
07C0
0780
0380
0380
0380
0380
0380
0380
0380
ENDCHAR
STARTCHAR 1EF7
ENCODING 7927
SWIDTH 500 0
DWIDTH 12 0
BBX 12 23 0 -5
BITMAP
0F00
0F80
0380
0300
0600
0000
E070
6070
7060
30E0
30C0
38C0
19C0
1980
1D80
0F80
0F00
0F00
0700
0600
0E00
3C00
3C00
ENDCHAR
STARTCHAR 1EF8
ENCODING 7928
SWIDTH 625 0
DWIDTH 15 0
BBX 15 22 0 0
BITMAP
0F20
1FF0
09E0
0000
0000
F01E
701C
3838
3838
1C70
1C70
0EE0
0EC0
07C0
0780
0380
0380
0380
0380
0380
0380
0380
ENDCHAR
STARTCHAR 1EF9
ENCODING 7929
SWIDTH 500 0
DWIDTH 12 0
BBX 12 23 0 -5
BITMAP
1C40
3FE0
23C0
0000
0000
0000
E070
6070
7060
30E0
30C0
38C0
19C0
1980
1D80
0F80
0F00
0F00
0700
0600
0E00
3C00
3C00
ENDCHAR
STARTCHAR 2013
ENCODING 8211
SWIDTH 583 0
DWIDTH 14 0
BBX 12 2 1 6
BITMAP
FFF0
FFF0
ENDCHAR
STARTCHAR 2014
ENCODING 8212
SWIDTH 791 0
DWIDTH 19 0
BBX 17 2 1 6
BITMAP
FFFF80
FFFF80
ENDCHAR
STARTCHAR 2018
ENCODING 8216
SWIDTH 291 0
DWIDTH 7 0
BBX 4 7 2 11
BITMAP
70
60
C0
C0
E0
E0
E0
ENDCHAR
STARTCHAR 2019
ENCODING 8217
SWIDTH 291 0
DWIDTH 7 0
BBX 4 7 1 11
BITMAP
70
70
70
30
70
60
C0
ENDCHAR
STARTCHAR 201A
ENCODING 8218
SWIDTH 291 0
DWIDTH 7 0
BBX 4 7 1 -3
BITMAP
70
70
70
30
70
60
C0
ENDCHAR
STARTCHAR 201C
ENCODING 8220
SWIDTH 500 0
DWIDTH 12 0
BBX 9 7 2 11
BITMAP
7180
6300
C700
C600
E700
E700
E700
ENDCHAR
STARTCHAR 201D
ENCODING 8221
SWIDTH 500 0
DWIDTH 12 0
BBX 9 7 1 11
BITMAP
7380
7380
7380
3180
7180
6300
C700
ENDCHAR
STARTCHAR 201E
ENCODING 8222
SWIDTH 500 0
DWIDTH 12 0
BBX 9 7 1 -3
BITMAP
7380
7380
7380
3180
7180
6300
C600
ENDCHAR
STARTCHAR 2020
ENCODING 8224
SWIDTH 541 0
DWIDTH 13 0
BBX 11 23 1 -5
BITMAP
0E00
0E00
0E00
0E00
0E00
0E00
FFE0
FFE0
0E00
0E00
0E00
0E00
0E00
0E00
0E00
0E00
0E00
0E00
0E00
0E00
0E00
0E00
0E00
ENDCHAR
STARTCHAR 2021
ENCODING 8225
SWIDTH 541 0
DWIDTH 13 0
BBX 11 23 1 -5
BITMAP
0E00
0E00
0E00
0E00
0E00
0E00
FFE0
FFE0
0E00
0E00
0E00
0E00
0E00
0E00
0E00
FFE0
FFE0
0E00
0E00
0E00
0E00
0E00
0E00
ENDCHAR
STARTCHAR 2022
ENCODING 8226
SWIDTH 416 0
DWIDTH 10 0
BBX 6 6 2 4
BITMAP
78
FC
FC
FC
FC
78
ENDCHAR
STARTCHAR 2026
ENCODING 8230
SWIDTH 833 0
DWIDTH 20 0
BBX 17 4 2 0
BITMAP
E18300
E3C780
E3C780
E18300
ENDCHAR
STARTCHAR 2030
ENCODING 8240
SWIDTH 1333 0
DWIDTH 32 0
BBX 30 17 1 0
BITMAP
3E018000
7F030000
63070000
E3060000
E30C0000
E31C0000
63180000
7F300000
3E73C0F0
00E7F3F8
00C63318
01CE331C
038E331C
030E331C
06063318
0E07F3F8
1C03E0F0
ENDCHAR
STARTCHAR 2032
ENCODING 8242
SWIDTH 250 0
DWIDTH 6 0
BBX 4 8 1 9
BITMAP
70
70
70
60
60
60
E0
E0
ENDCHAR
STARTCHAR 2033
ENCODING 8243
SWIDTH 458 0
DWIDTH 11 0
BBX 9 8 1 9
BITMAP
7380
7300
7300
6300
6700
6700
E700
E600
ENDCHAR
STARTCHAR 2039
ENCODING 8249
SWIDTH 291 0
DWIDTH 7 0
BBX 5 10 1 2
BITMAP
08
18
30
F0
E0
C0
E0
70
38
08
ENDCHAR
STARTCHAR 203A
ENCODING 8250
SWIDTH 291 0
DWIDTH 7 0
BBX 6 10 1 2
BITMAP
40
E0
70
38
1C
1C
38
70
E0
40
ENDCHAR
STARTCHAR 2044
ENCODING 8260
SWIDTH 166 0
DWIDTH 4 0
BBX 14 17 -5 0
BITMAP
001C
0018
0030
0060
0060
00C0
0180
0380
0300
0600
0C00
0C00
1800
3000
7000
6000
C000
ENDCHAR
STARTCHAR 2070
ENCODING 8304
SWIDTH 375 0
DWIDTH 9 0
BBX 7 9 1 8
BITMAP
7C
C4
C6
C6
C6
C6
C6
C4
78
ENDCHAR
STARTCHAR 2074
ENCODING 8308
SWIDTH 333 0
DWIDTH 8 0
BBX 8 9 0 8
BITMAP
0E
1E
36
36
66
C6
FF
06
06
ENDCHAR
STARTCHAR 2075
ENCODING 8309
SWIDTH 333 0
DWIDTH 8 0
BBX 7 9 1 8
BITMAP
FC
C0
C0
FC
CC
06
86
CC
78
ENDCHAR
STARTCHAR 2076
ENCODING 8310
SWIDTH 375 0
DWIDTH 9 0
BBX 7 9 1 8
BITMAP
1C
70
60
FC
CE
C6
C6
CC
78
ENDCHAR
STARTCHAR 2077
ENCODING 8311
SWIDTH 333 0
DWIDTH 8 0
BBX 6 9 1 8
BITMAP
FC
8C
8C
1C
18
18
30
30
60
ENDCHAR
STARTCHAR 2078
ENCODING 8312
SWIDTH 375 0
DWIDTH 9 0
BBX 7 9 1 8
BITMAP
7C
C4
C6
C4
38
C6
C6
C6
7C
ENDCHAR
STARTCHAR 2079
ENCODING 8313
SWIDTH 375 0
DWIDTH 9 0
BBX 7 9 1 8
BITMAP
78
CC
C6
C6
CE
74
0C
18
70
ENDCHAR
STARTCHAR 2080
ENCODING 8320
SWIDTH 375 0
DWIDTH 9 0
BBX 7 9 1 0
BITMAP
7C
C4
C6
C6
C6
C6
C6
C4
78
ENDCHAR
STARTCHAR 2081
ENCODING 8321
SWIDTH 333 0
DWIDTH 8 0
BBX 7 9 1 0
BITMAP
78
F8
D8
98
18
18
18
18
FE
ENDCHAR
STARTCHAR 2082
ENCODING 8322
SWIDTH 333 0
DWIDTH 8 0
BBX 7 9 1 0
BITMAP
78
CC
0C
0C
0C
10
60
C0
FE
ENDCHAR
STARTCHAR 2083
ENCODING 8323
SWIDTH 333 0
DWIDTH 8 0
BBX 7 9 0 0
BITMAP
7C
46
06
06
18
06
06
46
FC
ENDCHAR
STARTCHAR 2084
ENCODING 8324
SWIDTH 333 0
DWIDTH 8 0
BBX 8 9 0 0
BITMAP
0E
1E
36
36
66
C6
FF
06
06
ENDCHAR
STARTCHAR 2085
ENCODING 8325
SWIDTH 333 0
DWIDTH 8 0
BBX 7 9 1 0
BITMAP
FC
C0
C0
FC
CC
06
86
CC
78
ENDCHAR
STARTCHAR 2086
ENCODING 8326
SWIDTH 375 0
DWIDTH 9 0
BBX 7 9 1 0
BITMAP
1C
70
60
FC
CE
C6
C6
CC
78
ENDCHAR
STARTCHAR 2087
ENCODING 8327
SWIDTH 333 0
DWIDTH 8 0
BBX 6 9 1 0
BITMAP
FC
8C
8C
1C
18
18
30
30
60
ENDCHAR
STARTCHAR 2088
ENCODING 8328
SWIDTH 375 0
DWIDTH 9 0
BBX 7 9 1 0
BITMAP
7C
C4
C6
C4
38
C6
C6
C6
7C
ENDCHAR
STARTCHAR 2089
ENCODING 8329
SWIDTH 375 0
DWIDTH 9 0
BBX 7 9 1 0
BITMAP
78
CC
C6
C6
CE
74
0C
18
70
ENDCHAR
STARTCHAR 20A1
ENCODING 8353
SWIDTH 625 0
DWIDTH 15 0
BBX 13 21 1 -2
BITMAP
0240
02C0
07C0
1FF0
3EF8
76D0
76C0
6680
E680
E480
E480
E580
E580
6580
6D80
7D90
3DF8
1FF0
0FC0
0900
0B00
ENDCHAR
STARTCHAR 20A4
ENCODING 8356
SWIDTH 583 0
DWIDTH 14 0
BBX 12 17 1 0
BITMAP
0FC0
1FE0
3870
7020
7000
7000
FF80
FF80
3800
3800
FF80
FF80
3800
3800
7000
7FF0
7FF0
ENDCHAR
STARTCHAR 20A6
ENCODING 8358
SWIDTH 750 0
DWIDTH 18 0
BBX 17 17 0 0
BITMAP
3C0600
3C0600
3E0600
3E0600
3F0600
3B0600
FBFF80
F9FF80
39C600
38C600
FFE780
FFE780
387600
383E00
383E00
381E00
380E00
ENDCHAR
STARTCHAR 20A8
ENCODING 8360
SWIDTH 791 0
DWIDTH 19 0
BBX 16 17 2 0
BITMAP
FE00
FF00
E380
E180
E180
E1DF
E1BF
E3B8
FF38
FE38
E71C
E30E
E387
E187
E1C7
E0FF
E07C
ENDCHAR
STARTCHAR 20A9
ENCODING 8361
SWIDTH 1000 0
DWIDTH 24 0
BBX 22 17 1 0
BITMAP
E07018
607838
607838
70F838
70D830
70DC30
FFCFFC
FFCFFC
398C60
398E60
F9FEFC
F9FEFC
1F06C0
1F07C0
0F07C0
0F03C0
0E0380
ENDCHAR
STARTCHAR 20AA
ENCODING 8362
SWIDTH 833 0
DWIDTH 20 0
BBX 16 17 2 0
BITMAP
FF87
FFC7
E0E7
E067
EE67
EE67
EE67
EE67
EE67
EE67
EE67
EE67
EE67
EE07
EE06
EFFE
EFFC
ENDCHAR
STARTCHAR 20AB
ENCODING 8363
SWIDTH 583 0
DWIDTH 14 0
BBX 12 18 1 0
BITMAP
00C0
07F0
07F0
00C0
00C0
3CC0
7EC0
71C0
E0C0
E0C0
E0C0
E0C0
71C0
7EC0
3CC0
0000
7FE0
7FE0
ENDCHAR
STARTCHAR 20AC
ENCODING 8364
SWIDTH 625 0
DWIDTH 15 0
BBX 13 17 1 0
BITMAP
07C0
1FF0
3878
7010
6000
7F80
FF80
E000
E000
FF80
FF80
6000
7010
7038
3878
1FF0
0FC0
ENDCHAR
STARTCHAR 20AD
ENCODING 8365
SWIDTH 666 0
DWIDTH 16 0
BBX 15 17 0 0
BITMAP
381E
3838
3838
3870
38E0
38C0
39C0
FFFC
FFFC
39C0
39E0
38E0
3870
3878
3838
381C
381E
ENDCHAR
STARTCHAR 20AE
ENCODING 8366
SWIDTH 625 0
DWIDTH 15 0
BBX 13 17 1 0
BITMAP
FFF8
FFF8
0700
0700
0720
07E0
07C0
0F00
3F20
37E0
47C0
0F00
3F00
3700
4700
0700
0700
ENDCHAR
STARTCHAR 20B1
ENCODING 8369
SWIDTH 666 0
DWIDTH 16 0
BBX 14 17 1 0
BITMAP
3FC0
3FE0
3070
FFFC
FFFC
3030
3030
FFFC
FFFC
3070
3FE0
3FC0
3000
3000
3000
3000
3000
ENDCHAR
STARTCHAR 20B2
ENCODING 8370
SWIDTH 666 0
DWIDTH 16 0
BBX 14 21 1 -2
BITMAP
00C0
01C0
07C0
1FF0
39F8
7198
71A0
6100
E300
E300
E3FC
E3FC
E21C
621C
7618
7638
3E78
1FF0
0FC0
0C00
0C00
ENDCHAR
STARTCHAR 20B4
ENCODING 8372
SWIDTH 625 0
DWIDTH 15 0
BBX 13 17 1 0
BITMAP
0F80
3FE0
30E0
0070
0070
FFF8
FFF8
0380
0F00
FFF8
FFF8
3000
3000
3020
3870
1FE0
0F80
ENDCHAR
STARTCHAR 20B5
ENCODING 8373
SWIDTH 625 0
DWIDTH 15 0
BBX 13 21 1 -2
BITMAP
00C0
01C0
07C0
1FF0
39F8
71B0
7180
6100
E300
E300
E300
E300
E300
6200
7620
7638
3E78
1FF0
07C0
0C00
0C00
ENDCHAR
STARTCHAR 20B8
ENCODING 8376
SWIDTH 625 0
DWIDTH 15 0
BBX 13 17 1 0
BITMAP
FFF8
FFF8
0000
0000
FFF8
FFF8
0700
0700
0700
0700
0700
0700
0700
0700
0700
0700
0700
ENDCHAR
STARTCHAR 20B9
ENCODING 8377
SWIDTH 625 0
DWIDTH 15 0
BBX 13 17 1 0
BITMAP
FFF8
FFF8
0180
00C0
FFF8
FFF8
00C0
01C0
FF80
FF00
0E00
0E00
0700
0380
03C0
01C0
00E0
ENDCHAR
STARTCHAR 20BA
ENCODING 8378
SWIDTH 625 0
DWIDTH 15 0
BBX 14 17 0 0
BITMAP
1800
1800
1840
19C0
1F80
1E00
7840
F9C0
9F80
1E00
781C
F81C
9818
1838
1878
1FF0
1FC0
ENDCHAR
STARTCHAR 20BD
ENCODING 8381
SWIDTH 625 0
DWIDTH 15 0
BBX 13 17 1 0
BITMAP
3FE0
3FF0
3038
3038
3018
3018
3038
3038
FFF0
FFE0
3000
3000
FFC0
FFC0
3000
3000
3000
ENDCHAR
STARTCHAR 20BF
ENCODING 8383
SWIDTH 666 0
DWIDTH 16 0
BBX 12 21 2 -2
BITMAP
1B00
1B00
FFC0
FFE0
E060
E070
E070
E070
E060
FFC0
FFE0
E070
E030
E030
E030
E030
E070
FFE0
FFC0
1B00
1B00
ENDCHAR
STARTCHAR 2113
ENCODING 8467
SWIDTH 500 0
DWIDTH 12 0
BBX 11 18 1 0
BITMAP
0F00
1F80
3980
3180
3180
3180
3180
3380
3700
3600
3C00
3800
F000
F080
B0E0
39C0
1FC0
0F00
ENDCHAR
STARTCHAR 2116
ENCODING 8470
SWIDTH 1041 0
DWIDTH 25 0
BBX 22 17 2 0
BITMAP
E030F0
F031F8
F0338C
F8330C
F8330C
FC338C
EC31F8
EE30F0
E73000
E731FC
E3B1FC
E3B000
E1F000
E0F000
E0F000
E07000
E07000
ENDCHAR
STARTCHAR 2122
ENCODING 8482
SWIDTH 625 0
DWIDTH 15 0
BBX 12 7 1 10
BITMAP
FB30
2330
23F0
22D0
2250
2290
2210
ENDCHAR
STARTCHAR 2126
ENCODING 8486
SWIDTH 708 0
DWIDTH 17 0
BBX 15 17 1 0
BITMAP
07C0
1FF0
3C38
701C
701C
600E
600E
E00E
E00E
600E
700E
701C
301C
3838
0C70
FC7E
FC7E
ENDCHAR
STARTCHAR 212E
ENCODING 8494
SWIDTH 708 0
DWIDTH 17 0
BBX 15 17 1 0
BITMAP
07E0
1830
300C
700C
700E
F00E
F00E
FFFE
F000
F000
F000
F000
7004
7006
3008
1830
07C0
ENDCHAR
STARTCHAR 2150
ENCODING 8528
SWIDTH 875 0
DWIDTH 21 0
BBX 19 17 1 0
BITMAP
780380
F80300
D80600
980C00
181C00
181800
183000
186000
FE6FE0
00CC60
018C60
0380C0
0300C0
060180
0C0180
0C0380
180300
ENDCHAR
STARTCHAR 2151
ENCODING 8529
SWIDTH 875 0
DWIDTH 21 0
BBX 19 17 1 0
BITMAP
780380
F80300
D80600
980C00
181C00
181800
183000
186000
FE63C0
00C660
018C60
038C60
030E60
0607E0
0C0040
0C01C0
180780
ENDCHAR
STARTCHAR 2153
ENCODING 8531
SWIDTH 875 0
DWIDTH 21 0
BBX 19 17 1 0
BITMAP
780380
F80300
D80600
980C00
181C00
181800
183000
186000
FE67C0
00CC60
018060
038060
030380
060060
0C0060
0C0C60
1807C0
ENDCHAR
STARTCHAR 2154
ENCODING 8532
SWIDTH 833 0
DWIDTH 20 0
BBX 18 17 1 0
BITMAP
780300
CC0600
0C0C00
0C0C00
0C1800
103000
607000
C06000
FECF80
0188C0
0180C0
0300C0
060300
0E00C0
0C00C0
1808C0
301F80
ENDCHAR
STARTCHAR 2155
ENCODING 8533
SWIDTH 875 0
DWIDTH 21 0
BBX 19 17 1 0
BITMAP
780380
F80300
D80600
980C00
181C00
181800
183000
186000
FE67E0
00C400
018400
0385C0
030660
060060
0C0460
0C0C60
1807C0
ENDCHAR
STARTCHAR 2156
ENCODING 8534
SWIDTH 833 0
DWIDTH 20 0
BBX 19 17 1 0
BITMAP
780300
CC0600
0C0C00
0C0C00
0C1800
103000
607000
C06000
FECFC0
018C00
018C00
030F80
060CC0
0E0060
0C0860
180CC0
300780
ENDCHAR
STARTCHAR 2157
ENCODING 8535
SWIDTH 875 0
DWIDTH 21 0
BBX 20 17 0 0
BITMAP
7C0180
460300
060700
060600
180C00
061800
061800
463000
FC67E0
00E600
00C600
0187E0
030660
030030
060430
0C0660
1C03C0
ENDCHAR
STARTCHAR 2158
ENCODING 8536
SWIDTH 875 0
DWIDTH 21 0
BBX 20 17 0 0
BITMAP
0E0180
1E0300
360300
360600
660C00
C61C00
FF1800
063000
0663E0
006200
00C600
0187E0
038670
030030
060430
0C0660
1C03C0
ENDCHAR
STARTCHAR 2159
ENCODING 8537
SWIDTH 833 0
DWIDTH 20 0
BBX 19 17 1 0
BITMAP
780380
F80300
D80600
980C00
181C00
181800
183000
186000
FE63C0
00C600
018400
038FC0
030CC0
060C60
0C0C60
0C0CC0
180780
ENDCHAR
STARTCHAR 215A
ENCODING 8538
SWIDTH 833 0
DWIDTH 20 0
BBX 18 17 1 0
BITMAP
FC0300
C00600
C00600
FC0C00
CC1800
063800
863000
CC6000
78C380
00C600
018C00
030B80
071CC0
0618C0
0C18C0
180CC0
380780
ENDCHAR
STARTCHAR 215B
ENCODING 8539
SWIDTH 875 0
DWIDTH 21 0
BBX 19 17 1 0
BITMAP
780380
F80300
D80600
980C00
181C00
181800
183000
186000
FE63C0
00C660
018460
038660
0303C0
060660
0C0C60
0C0660
1803C0
ENDCHAR
STARTCHAR 215C
ENCODING 8540
SWIDTH 875 0
DWIDTH 21 0
BBX 20 17 0 0
BITMAP
7C0180
460300
060700
060600
180C00
061800
061800
463000
FC63E0
00E630
00C630
018220
0301C0
030630
060630
0C0630
1C03E0
ENDCHAR
STARTCHAR 215D
ENCODING 8541
SWIDTH 875 0
DWIDTH 21 0
BBX 19 17 1 0
BITMAP
FC0300
C00600
C00600
FC0C00
CC1800
063800
863000
CC6000
78C3C0
00C460
018C60
030460
070380
060C60
0C0C60
180C60
3807C0
ENDCHAR
STARTCHAR 215E
ENCODING 8542
SWIDTH 833 0
DWIDTH 20 0
BBX 18 17 1 0
BITMAP
FC0700
8C0C00
8C0C00
1C1800
183000
183000
306000
30C000
61C780
018CC0
0318C0
060CC0
060700
0C18C0
1818C0
3818C0
700F80
ENDCHAR
STARTCHAR 2190
ENCODING 8592
SWIDTH 875 0
DWIDTH 21 0
BBX 17 10 2 3
BITMAP
0C0000
1E0000
380000
700000
FFFF80
FFFF80
700000
380000
1C0000
0E0000
ENDCHAR
STARTCHAR 2191
ENCODING 8593
SWIDTH 875 0
DWIDTH 21 0
BBX 11 17 5 0
BITMAP
0400
0E00
1F00
3F80
7DC0
ECE0
4C80
0C00
0C00
0C00
0C00
0C00
0C00
0C00
0C00
0C00
0C00
ENDCHAR
STARTCHAR 2192
ENCODING 8594
SWIDTH 875 0
DWIDTH 21 0
BBX 17 10 2 3
BITMAP
001000
003800
001C00
000E00
FFFF00
FFFF80
000E00
001C00
003800
001000
ENDCHAR
STARTCHAR 2193
ENCODING 8595
SWIDTH 875 0
DWIDTH 21 0
BBX 11 17 5 0
BITMAP
0C00
0C00
0C00
0C00
0C00
0C00
0C00
0C00
0C00
0C00
4C80
ECC0
7DE0
3F80
1F00
0E00
0400
ENDCHAR
STARTCHAR 2194
ENCODING 8596
SWIDTH 875 0
DWIDTH 21 0
BBX 17 10 2 3
BITMAP
0C1000
1C3800
381C00
700E00
FFFF00
FFFF80
700E00
381C00
1C3800
0C1000
ENDCHAR
STARTCHAR 2195
ENCODING 8597
SWIDTH 875 0
DWIDTH 21 0
BBX 11 17 5 0
BITMAP
0400
0E00
1F00
3F80
7DC0
ECE0
4C80
0C00
0C00
0C00
4C80
ECC0
7DE0
3F80
1F00
0E00
0400
ENDCHAR
STARTCHAR 2196
ENCODING 8598
SWIDTH 875 0
DWIDTH 21 0
BBX 13 13 4 2
BITMAP
FF00
FF00
F000
D800
DC00
CE00
C700
0380
01C0
00E0
0070
0038
0010
ENDCHAR
STARTCHAR 2197
ENCODING 8599
SWIDTH 875 0
DWIDTH 21 0
BBX 13 13 3 2
BITMAP
03F8
03F8
0078
00F8
01D8
0398
0718
0E00
1C00
3800
7000
E000
4000
ENDCHAR
STARTCHAR 2198
ENCODING 8600
SWIDTH 875 0
DWIDTH 21 0
BBX 13 13 3 2
BITMAP
4000
6000
F000
3800
1C00
0E00
0718
0398
01D8
00F8
0078
03F8
03F8
ENDCHAR
STARTCHAR 2199
ENCODING 8601
SWIDTH 875 0
DWIDTH 21 0
BBX 13 13 4 2
BITMAP
0010
0038
0070
00E0
01C0
0380
C700
CE00
DC00
D800
F000
FF00
FF00
ENDCHAR
STARTCHAR 21A9
ENCODING 8617
SWIDTH 875 0
DWIDTH 21 0
BBX 17 13 2 2
BITMAP
000C00
000F00
000700
0C0380
1E0380
380380
700700
FFFF00
FFFC00
700000
380000
1C0000
0E0000
ENDCHAR
STARTCHAR 21AA
ENCODING 8618
SWIDTH 875 0
DWIDTH 21 0
BBX 17 13 2 2
BITMAP
380000
780000
E00000
C01000
C03800
C01C00
E00E00
7FFF00
3FFF80
000E00
001C00
003800
001000
ENDCHAR
STARTCHAR 21B0
ENCODING 8624
SWIDTH 875 0
DWIDTH 21 0
BBX 12 17 4 0
BITMAP
0800
1C00
3800
7000
FFF0
FFF0
7030
3830
1C30
0C30
0030
0030
0030
0030
0030
0030
0030
ENDCHAR
STARTCHAR 21B1
ENCODING 8625
SWIDTH 875 0
DWIDTH 21 0
BBX 12 17 5 0
BITMAP
0200
0700
0380
01C0
FFE0
FFF0
C1C0
C380
C700
C200
C000
C000
C000
C000
C000
C000
C000
ENDCHAR
STARTCHAR 21B2
ENCODING 8626
SWIDTH 875 0
DWIDTH 21 0
BBX 12 17 4 0
BITMAP
0030
0030
0030
0030
0030
0030
0030
0C30
1C30
3830
7030
FFF0
FFF0
7000
3800
1C00
0800
ENDCHAR
STARTCHAR 21B3
ENCODING 8627
SWIDTH 875 0
DWIDTH 21 0
BBX 12 17 5 0
BITMAP
C000
C000
C000
C000
C000
C000
C000
C200
C700
C380
C1C0
FFE0
FFF0
01C0
0380
0700
0200
ENDCHAR
STARTCHAR 21B6
ENCODING 8630
SWIDTH 875 0
DWIDTH 21 0
BBX 20 15 0 1
BITMAP
007E00
00FF80
03C1C0
0380E0
070060
060070
060030
060030
464000
66E000
F7C000
3F8000
1F0000
0E0000
040000
ENDCHAR
STARTCHAR 21B7
ENCODING 8631
SWIDTH 875 0
DWIDTH 21 0
BBX 20 15 0 1
BITMAP
07E000
1FF800
3C1C00
300E00
700600
600600
600700
E00300
002320
003370
007BE0
001FC0
000F80
000700
000200
ENDCHAR
STARTCHAR 21BA
ENCODING 8634
SWIDTH 875 0
DWIDTH 21 0
BBX 16 17 2 0
BITMAP
00FE
00FE
10F0
18F8
38DC
70CE
60C7
E0C3
E003
C003
E003
6003
6007
700E
3C1C
1FF8
07E0
ENDCHAR
STARTCHAR 21BB
ENCODING 8635
SWIDTH 875 0
DWIDTH 21 0
BBX 16 17 2 0
BITMAP
7F80
7F80
0F90
1F9C
398E
7386
6387
6383
E003
C003
E003
6003
6007
700E
3C1C
1FF8
07E0
ENDCHAR
STARTCHAR 21C4
ENCODING 8644
SWIDTH 875 0
DWIDTH 21 0
BBX 17 18 2 -1
BITMAP
001000
003800
001C00
000E00
FFFF00
FFFF80
000E00
001C00
0C3800
1E1000
380000
700000
FFFF80
FFFF80
700000
380000
1C0000
0E0000
ENDCHAR
STARTCHAR 21C6
ENCODING 8646
SWIDTH 875 0
DWIDTH 21 0
BBX 17 18 2 -1
BITMAP
0C0000
1E0000
380000
700000
FFFF80
FFFF80
700000
380000
1C1000
0E3800
001C00
000E00
FFFF00
FFFF80
000E00
001C00
003800
001000
ENDCHAR
STARTCHAR 2202
ENCODING 8706
SWIDTH 583 0
DWIDTH 14 0
BBX 12 17 1 0
BITMAP
3E00
0F00
0380
01C0
00C0
1EE0
3F60
70F0
6070
E070
E070
E070
E070
6060
70E0
3FC0
1F80
ENDCHAR
STARTCHAR 2206
ENCODING 8710
SWIDTH 666 0
DWIDTH 16 0
BBX 14 17 1 0
BITMAP
0780
0780
0F80
0FC0
0CC0
1CE0
1CE0
1860
3870
3870
3070
7038
7038
6038
E01C
FFFC
FFFC
ENDCHAR
STARTCHAR 220F
ENCODING 8719
SWIDTH 708 0
DWIDTH 17 0
BBX 15 22 1 -5
BITMAP
FFFE
FFFE
3838
3838
3838
3838
3838
3838
3838
3838
3838
3838
3838
3838
3838
3838
3838
3838
3838
3838
3838
3838
ENDCHAR
STARTCHAR 2211
ENCODING 8721
SWIDTH 541 0
DWIDTH 13 0
BBX 11 22 1 -5
BITMAP
FFE0
FFE0
E000
7000
7000
3800
1C00
1C00
0E00
0700
0700
0700
0700
0E00
1C00
1C00
3800
7000
7000
E000
FFE0
FFE0
ENDCHAR
STARTCHAR 2212
ENCODING 8722
SWIDTH 583 0
DWIDTH 14 0
BBX 11 2 2 6
BITMAP
FFE0
FFE0
ENDCHAR
STARTCHAR 2215
ENCODING 8725
SWIDTH 166 0
DWIDTH 4 0
BBX 14 17 -5 0
BITMAP
001C
0018
0030
0060
0060
00C0
0180
0380
0300
0600
0C00
0C00
1800
3000
7000
6000
C000
ENDCHAR
STARTCHAR 221A
ENCODING 8730
SWIDTH 583 0
DWIDTH 14 0
BBX 13 17 1 0
BITMAP
0038
0030
0030
0070
0070
F060
F060
30E0
38C0
38C0
18C0
19C0
1D80
0D80
0F80
0F00
0F00
ENDCHAR
STARTCHAR 221E
ENCODING 8734
SWIDTH 750 0
DWIDTH 18 0
BBX 18 10 0 2
BITMAP
1E0F00
3FBF80
73B180
61E1C0
E0C1C0
E0C1C0
61E1C0
717180
3F3F80
1E1F00
ENDCHAR
STARTCHAR 222B
ENCODING 8747
SWIDTH 416 0
DWIDTH 10 0
BBX 8 23 1 -5
BITMAP
0F
1F
1C
1C
1C
1C
1C
1C
1C
1C
1C
1C
1C
1C
1C
1C
1C
1C
1C
1C
18
F8
F0
ENDCHAR
STARTCHAR 2248
ENCODING 8776
SWIDTH 583 0
DWIDTH 14 0
BBX 12 10 1 2
BITMAP
7800
FE20
47F0
01E0
0000
0000
7800
FE20
47F0
01E0
ENDCHAR
STARTCHAR 2260
ENCODING 8800
SWIDTH 583 0
DWIDTH 14 0
BBX 11 11 2 2
BITMAP
01C0
0380
FFE0
FFE0
0600
0C00
0C00
FFE0
FFE0
3000
7000
ENDCHAR
STARTCHAR 2264
ENCODING 8804
SWIDTH 583 0
DWIDTH 14 0
BBX 10 14 2 0
BITMAP
0040
01C0
07C0
3F00
F800
E000
F800
3F00
07C0
01C0
0040
0000
FFC0
FFC0
ENDCHAR
STARTCHAR 2265
ENCODING 8805
SWIDTH 583 0
DWIDTH 14 0
BBX 10 14 2 0
BITMAP
8000
F000
FC00
1F00
07C0
01C0
07C0
1F00
FC00
F000
8000
0000
FFC0
FFC0
ENDCHAR
STARTCHAR 25CA
ENCODING 9674
SWIDTH 583 0
DWIDTH 14 0
BBX 12 17 1 0
BITMAP
0600
0F00
0F80
1D80
19C0
30C0
7060
6070
E030
6070
7060
30C0
19C0
1D80
0F80
0F00
0600
ENDCHAR
STARTCHAR 2713
ENCODING 10003
SWIDTH 916 0
DWIDTH 22 0
BBX 16 17 3 0
BITMAP
0006
0007
000E
000E
001C
401C
E038
6038
7030
3070
3860
18E0
1CC0
0DC0
0F80
0780
0780
ENDCHAR
STARTCHAR 274C
ENCODING 10060
SWIDTH 916 0
DWIDTH 22 0
BBX 16 17 3 0
BITMAP
4002
E007
F00F
781E
3C3C
1E78
0FF0
07E0
03C0
07E0
0FF0
1E78
3C3C
781E
F00F
E007
4002
ENDCHAR
STARTCHAR 2B0E
ENCODING 11022
SWIDTH 875 0
DWIDTH 21 0
BBX 17 12 2 2
BITMAP
FFF800
FFF800
003800
003800
003800
013A00
03BB00
01FF80
00FE00
007C00
003800
001000
ENDCHAR
STARTCHAR 2B0F
ENCODING 11023
SWIDTH 875 0
DWIDTH 21 0
BBX 17 12 2 3
BITMAP
001000
003800
007C00
00FE00
01F700
03BB80
013A00
003800
003800
003800
FFF800
FFF800
ENDCHAR
STARTCHAR 2B10
ENCODING 11024
SWIDTH 875 0
DWIDTH 21 0
BBX 17 12 2 2
BITMAP
0FFF80
0FFF80
0C0000
0C0000
0C0000
8C8000
CCC000
EDC000
7F8000
3F0000
1E0000
0C0000
ENDCHAR
STARTCHAR 2B11
ENCODING 11025
SWIDTH 875 0
DWIDTH 21 0
BBX 17 12 2 3
BITMAP
0C0000
1E0000
3F0000
7F8000
EDC000
CCC000
8C8000
0C0000
0C0000
0C0000
0FFF80
0FFF80
ENDCHAR
STARTCHAR ECE0
ENCODING 60640
SWIDTH 1166 0
DWIDTH 28 0
BBX 24 17 2 0
BITMAP
07800F
1F803F
3F807F
7C00F0
7001E0
E001C0
E00180
C003FC
C003FC
C003FC
C00180
E001C0
7001E0
7C00F0
3F807F
1F803F
07800F
ENDCHAR
STARTCHAR EFCC
ENCODING 61388
SWIDTH 1041 0
DWIDTH 25 0
BBX 21 17 3 0
BITMAP
FE1F00
FC7FC0
C1E0E0
C38030
C31F18
C73F80
C671C0
FE6000
FE6000
C66000
C67180
C33FC0
C31F10
C18038
C0E0E0
C07FC0
801F00
ENDCHAR
STARTCHAR F6D7
ENCODING 63191
SWIDTH 0 0
DWIDTH 0 0
BBX 8 8 -4 14
BITMAP
06
0E
0C
18
10
E7
E7
E7
ENDCHAR
STARTCHAR F6D8
ENCODING 63192
SWIDTH 0 0
DWIDTH 0 0
BBX 8 8 -4 14
BITMAP
60
70
30
18
10
E7
E7
E7
ENDCHAR
STARTCHAR FB01
ENCODING 64257
SWIDTH 583 0
DWIDTH 14 0
BBX 12 18 1 0
BITMAP
1E60
3E70
3070
3060
3000
3000
FFF0
FFF0
3070
3070
3070
3070
3070
3070
3070
3070
3070
3070
ENDCHAR
STARTCHAR FB02
ENCODING 64258
SWIDTH 625 0
DWIDTH 15 0
BBX 13 18 1 0
BITMAP
1E70
3E70
3070
3070
3070
3070
FE70
FE70
3070
3070
3070
3070
3070
3070
3070
3070
3078
3038
ENDCHAR
ENDFONT
